<svg width="127" height="26" viewBox="0 0 127 26" fill="none" xmlns="http://www.w3.org/2000/svg">
<g id="logo">
<g id="Page-1">
<g id="Artboard">
<g id="Group-41">
<path id="Fill-1" fill-rule="evenodd" clip-rule="evenodd" d="M54.602 9.18655C54.8391 9.18655 55.0658 9.16397 55.2822 9.1188C55.4986 9.07364 55.6891 8.99818 55.854 8.8927C56.0189 8.78723 56.1502 8.64402 56.2484 8.46309C56.3459 8.28242 56.3952 8.05154 56.3952 7.76992C56.3952 7.21756 56.2353 6.82328 55.9159 6.58708C55.5962 6.35115 55.174 6.23292 54.6483 6.23292H52.0053V9.18655H54.602ZM54.463 4.62048C54.8958 4.62048 55.2512 4.52032 55.5294 4.31919C55.8077 4.11833 55.9469 3.79181 55.9469 3.33961C55.9469 3.0888 55.9003 2.88263 55.8077 2.72162C55.715 2.56115 55.5913 2.43548 55.4367 2.34515C55.2822 2.25481 55.1045 2.19185 54.9034 2.15678C54.7025 2.1217 54.4938 2.1039 54.2774 2.1039H52.0053V4.62048H54.463ZM54.772 0.265625C55.2975 0.265625 55.7769 0.310792 56.2094 0.401125C56.6424 0.491723 57.0133 0.639976 57.3224 0.845617C57.6317 1.05179 57.8713 1.32571 58.0413 1.66685C58.2114 2.00852 58.2964 2.43043 58.2964 2.93284C58.2964 3.47537 58.17 3.92757 57.9176 4.2889C57.665 4.65077 57.2916 4.94701 56.797 5.17815C57.4772 5.36918 57.9847 5.70315 58.3196 6.18032C58.6543 6.65749 58.8219 7.2327 58.8219 7.90568C58.8219 8.44821 58.7137 8.91794 58.4973 9.31461C58.2809 9.71155 57.9898 10.0357 57.6238 10.2868C57.2581 10.5378 56.8406 10.7238 56.3721 10.8442C55.9028 10.9648 55.4212 11.0251 54.9266 11.0251H49.5781V0.265625H54.772Z" fill="#231F20"/>
<path id="Fill-3" fill-rule="evenodd" clip-rule="evenodd" d="M64.2861 5.05779C64.0234 4.7767 63.6239 4.63588 63.0881 4.63588C62.7376 4.63588 62.4466 4.69354 62.2149 4.80911C61.983 4.92468 61.7974 5.06789 61.6584 5.23846C61.5194 5.40956 61.4213 5.59023 61.3646 5.78099C61.3079 5.97202 61.2744 6.14285 61.2643 6.2935H64.835C64.7317 5.75097 64.5491 5.33915 64.2861 5.05779ZM61.8053 9.15653C62.1348 9.46817 62.609 9.62387 63.2274 9.62387C63.6705 9.62387 64.0518 9.51573 64.3712 9.29973C64.6906 9.08373 64.8863 8.85497 64.9588 8.614H66.891C66.5817 9.54841 66.1075 10.2166 65.4687 10.6183C64.8296 11.0203 64.0567 11.2212 63.1502 11.2212C62.5215 11.2212 61.9546 11.1231 61.4499 10.9273C60.9446 10.7312 60.517 10.4525 60.1666 10.0909C59.8163 9.72934 59.5457 9.29734 59.3552 8.79493C59.1644 8.29278 59.0693 7.74015 59.0693 7.13731C59.0693 6.55493 59.1672 6.0124 59.3631 5.50999C59.5585 5.00758 59.8368 4.57318 60.1976 4.20627C60.5582 3.83989 60.9885 3.55082 61.4883 3.33987C61.9879 3.12891 62.5419 3.02344 63.1502 3.02344C63.8302 3.02344 64.4227 3.1515 64.9277 3.40762C65.4324 3.66374 65.8475 4.00807 66.1721 4.43981C66.4967 4.87208 66.731 5.36413 66.8752 5.91675C67.0194 6.46911 67.0709 7.04698 67.0297 7.64956H61.2643C61.2951 8.34273 61.4753 8.84541 61.8053 9.15653Z" fill="#231F20"/>
<g id="Group-7">
<mask id="mask0_592_22776" style="mask-type:alpha" maskUnits="userSpaceOnUse" x="67" y="0" width="9" height="12">
<g id="mask-2">
<path id="Vector" d="M67.2158 0.265625H75.3466V11.2211H67.2158V0.265625Z" fill="white"/>
</g>
</mask>
<g mask="url(#mask0_592_22776)">
<path id="Fill-5" fill-rule="evenodd" clip-rule="evenodd" d="M73.136 6.18032C73.0742 5.88408 72.9684 5.62265 72.8191 5.39655C72.6697 5.17071 72.4765 4.98766 72.2394 4.84658C72.0023 4.70603 71.7036 4.63589 71.3428 4.63589C70.9819 4.63589 70.6783 4.70603 70.4309 4.84658C70.1837 4.98766 69.985 5.17337 69.8357 5.40452C69.6863 5.6354 69.5781 5.89922 69.5111 6.19546C69.444 6.4917 69.4108 6.8007 69.4108 7.12218C69.4108 7.42346 69.4468 7.72475 69.519 8.02657C69.5909 8.32786 69.7068 8.59673 69.8667 8.83266C70.0262 9.06859 70.2273 9.25962 70.4696 9.40521C70.7116 9.55107 71.0027 9.62361 71.3428 9.62361C71.7036 9.62361 72.005 9.55346 72.2473 9.41265C72.4891 9.2721 72.6826 9.08373 72.8267 8.8478C72.9712 8.61161 73.0742 8.34274 73.136 8.04145C73.1979 7.74016 73.2287 7.42878 73.2287 7.10703C73.2287 6.78555 73.1979 6.47682 73.136 6.18032ZM73.2287 10.0306C72.9712 10.4525 72.6335 10.7565 72.2162 10.9422C71.799 11.1282 71.3275 11.2212 70.8018 11.2212C70.2041 11.2212 69.6784 11.108 69.2252 10.8819C68.7717 10.6561 68.3983 10.3495 68.1045 9.96289C67.8108 9.57605 67.5889 9.13156 67.4398 8.62914C67.2902 8.12673 67.2158 7.6044 67.2158 7.06187C67.2158 6.53979 67.2902 6.03499 67.4398 5.54746C67.5889 5.06045 67.8108 4.63084 68.1045 4.25915C68.3983 3.88745 68.7665 3.58856 69.2097 3.36246C69.6528 3.13636 70.1682 3.02344 70.7555 3.02344C71.2294 3.02344 71.6804 3.12121 72.1081 3.31729C72.5357 3.5131 72.8733 3.8019 73.1205 4.18369H73.1513V0.265625H75.3466V11.0251H73.2598V10.0306H73.2287Z" fill="#231F20"/>
</g>
</g>
<path id="Fill-8" fill-rule="evenodd" clip-rule="evenodd" d="M78.3143 3.23439V4.68105H78.3454C78.4481 4.44007 78.5871 4.21637 78.7626 4.01046C78.9379 3.80455 79.1387 3.62894 79.3655 3.48307C79.5919 3.33774 79.8345 3.2243 80.0918 3.14406C80.3496 3.06356 80.6178 3.02344 80.8957 3.02344C81.0399 3.02344 81.1996 3.04868 81.3751 3.09889V5.08782C81.2718 5.06789 81.1481 5.05009 81.0039 5.03521C80.8595 5.02007 80.7205 5.01263 80.5867 5.01263C80.1847 5.01263 79.8449 5.07798 79.5663 5.20844C79.2883 5.33915 79.0641 5.51743 78.894 5.74326C78.7239 5.96936 78.6027 6.23319 78.5307 6.53447C78.4585 6.83603 78.4225 7.16255 78.4225 7.51406V11.0254H76.2275V3.23439H78.3143Z" fill="#231F20"/>
<path id="Fill-10" fill-rule="evenodd" clip-rule="evenodd" d="M83.23 8.04915C83.2919 8.34565 83.3974 8.61187 83.547 8.8478C83.696 9.08399 83.8947 9.27236 84.1419 9.41291C84.3891 9.55372 84.6984 9.62387 85.0696 9.62387C85.4405 9.62387 85.7518 9.55372 86.0047 9.41291C86.257 9.27236 86.4579 9.08399 86.6075 8.8478C86.7566 8.61187 86.8626 8.34565 86.9245 8.04915C86.9861 7.75291 87.0171 7.44896 87.0171 7.13758C87.0171 6.8262 86.9861 6.51959 86.9245 6.21831C86.8626 5.91702 86.7566 5.6508 86.6075 5.41966C86.4579 5.18851 86.257 5.00014 86.0047 4.85454C85.7518 4.70895 85.4405 4.63588 85.0696 4.63588C84.6984 4.63588 84.3891 4.70895 84.1419 4.85454C83.8947 5.00014 83.696 5.18851 83.547 5.41966C83.3974 5.6508 83.2919 5.91702 83.23 6.21831C83.1682 6.51959 83.1374 6.8262 83.1374 7.13758C83.1374 7.44896 83.1682 7.75291 83.23 8.04915ZM81.2359 5.44197C81.4316 4.93505 81.7098 4.50278 82.0707 4.14622C82.4312 3.78967 82.8643 3.51336 83.369 3.31755C83.874 3.12148 84.4409 3.02344 85.0696 3.02344C85.6978 3.02344 86.2674 3.12148 86.7776 3.31755C87.2875 3.51336 87.7227 3.78967 88.0838 4.14622C88.4441 4.50278 88.7226 4.93505 88.9183 5.44197C89.114 5.94943 89.2121 6.51481 89.2121 7.13758C89.2121 7.76061 89.114 8.32307 88.9183 8.82521C88.7226 9.32763 88.4441 9.75724 88.0838 10.1138C87.7227 10.4703 87.2875 10.7443 86.7776 10.935C86.2674 11.1258 85.6978 11.2212 85.0696 11.2212C84.4409 11.2212 83.874 11.1258 83.369 10.935C82.8643 10.7443 82.4312 10.4703 82.0707 10.1138C81.7098 9.75724 81.4316 9.32763 81.2359 8.82521C81.0402 8.32307 80.9424 7.76061 80.9424 7.13758C80.9424 6.51481 81.0402 5.94943 81.2359 5.44197Z" fill="#231F20"/>
<path id="Fill-12" fill-rule="evenodd" clip-rule="evenodd" d="M91.7083 9.08878C91.8061 9.25456 91.9323 9.39006 92.0868 9.49554C92.2416 9.60102 92.4193 9.67913 92.6202 9.72934C92.8213 9.77982 93.0301 9.80453 93.2465 9.80453C93.4007 9.80453 93.5631 9.78726 93.7332 9.75193C93.9033 9.71659 94.0578 9.66133 94.197 9.58614C94.336 9.51068 94.4519 9.41025 94.5448 9.28459C94.6375 9.15918 94.6838 9.00083 94.6838 8.81007C94.6838 8.48859 94.4647 8.24735 94.0267 8.08687C93.5888 7.92613 92.9783 7.7654 92.195 7.60439C91.8756 7.53425 91.5638 7.45135 91.26 7.35597C90.9558 7.26059 90.6855 7.13492 90.4484 6.97897C90.2113 6.82354 90.0208 6.62746 89.8766 6.39153C89.7321 6.15534 89.6599 5.86654 89.6599 5.52487C89.6599 5.02272 89.7605 4.61091 89.9614 4.28916C90.1625 3.96768 90.4277 3.71422 90.7577 3.52824C91.0875 3.34253 91.4584 3.21154 91.8704 3.13635C92.2825 3.06116 92.7052 3.02344 93.1383 3.02344C93.5708 3.02344 93.9907 3.06356 94.3979 3.14406C94.8048 3.2243 95.1681 3.36006 95.4878 3.55082C95.8072 3.74185 96.0723 3.99532 96.2838 4.31201C96.4948 4.62818 96.6212 5.0275 96.6624 5.50999H94.5756C94.5448 5.09791 94.3848 4.81921 94.0965 4.67361C93.8079 4.52802 93.4678 4.45495 93.0764 4.45495C92.9524 4.45495 92.8186 4.46266 92.6744 4.47754C92.53 4.49268 92.3986 4.52536 92.2803 4.57557C92.1618 4.62605 92.0612 4.69859 91.9786 4.79397C91.8961 4.88961 91.8552 5.01767 91.8552 5.17841C91.8552 5.36918 91.9271 5.52487 92.0716 5.64549C92.2157 5.76611 92.4038 5.86388 92.6357 5.93934C92.8676 6.01479 93.1328 6.08254 93.4318 6.14285C93.7305 6.20316 94.0346 6.26852 94.3437 6.3384C94.6631 6.40907 94.9749 6.49435 95.279 6.59478C95.5829 6.69521 95.8532 6.82832 96.0906 6.99411C96.3274 7.1599 96.5179 7.36607 96.6624 7.61183C96.8065 7.85839 96.8788 8.16206 96.8788 8.52393C96.8788 9.03617 96.773 9.46552 96.5621 9.81224C96.3506 10.1587 96.0751 10.4374 95.7349 10.6483C95.3948 10.8596 95.0059 11.0078 94.568 11.0928C94.1297 11.1781 93.6841 11.2212 93.2309 11.2212C92.7671 11.2212 92.3136 11.1757 91.8704 11.0854C91.4273 10.9951 91.0332 10.8442 90.6879 10.6332C90.3426 10.4225 90.0592 10.1435 89.8379 9.79709C89.616 9.45037 89.495 9.01598 89.4746 8.49364H91.5614C91.5614 8.72479 91.6102 8.92299 91.7083 9.08878Z" fill="#231F20"/>
<mask id="mask1_592_22776" style="mask-type:alpha" maskUnits="userSpaceOnUse" x="0" y="0" width="127" height="26">
<g id="mask-4">
<path id="Vector_2" d="M0 25.5507H126.763V0.265625H0V25.5507Z" fill="white"/>
</g>
</mask>
<g mask="url(#mask1_592_22776)">
<path id="Fill-14" fill-rule="evenodd" clip-rule="evenodd" d="M97.4502 11.0251H99.6452V3.23413H97.4502V11.0251ZM97.4502 2.02872H99.6452V0.265625H97.4502V2.02872Z" fill="#231F20"/>
<path id="Fill-16" fill-rule="evenodd" clip-rule="evenodd" d="M105.581 7.21277C105.488 7.29327 105.372 7.35597 105.233 7.40114C105.094 7.44631 104.945 7.48403 104.785 7.51406C104.625 7.54434 104.458 7.56958 104.283 7.58951C104.107 7.60997 103.932 7.63468 103.757 7.66496C103.592 7.69499 103.43 7.73511 103.27 7.78559C103.11 7.8358 102.971 7.90382 102.853 7.98884C102.734 8.07439 102.639 8.18225 102.567 8.31297C102.495 8.44369 102.459 8.60921 102.459 8.81007C102.459 9.0011 102.495 9.16184 102.567 9.29229C102.639 9.42301 102.737 9.52609 102.861 9.60128C102.984 9.67674 103.128 9.72934 103.293 9.75936C103.458 9.78965 103.628 9.80453 103.804 9.80453C104.236 9.80453 104.571 9.73466 104.808 9.59358C105.045 9.45329 105.22 9.28485 105.334 9.08904C105.447 8.89296 105.517 8.69476 105.543 8.49364C105.568 8.29278 105.581 8.13204 105.581 8.01142V7.21277ZM100.511 5.63034C100.542 5.1282 100.671 4.71134 100.897 4.37976C101.124 4.04819 101.413 3.78224 101.763 3.58111C102.113 3.38025 102.507 3.23705 102.946 3.1515C103.384 3.06648 103.824 3.02344 104.267 3.02344C104.669 3.02344 105.076 3.05133 105.488 3.10633C105.9 3.16159 106.277 3.26973 106.617 3.43047C106.957 3.59121 107.235 3.81465 107.451 4.10106C107.668 4.3872 107.776 4.7666 107.776 5.23872V9.29229C107.776 9.64406 107.797 9.98068 107.838 10.3019C107.879 10.6236 107.951 10.8646 108.054 11.0254H105.829C105.787 10.9047 105.754 10.782 105.728 10.6561C105.702 10.5306 105.684 10.4026 105.674 10.2719C105.323 10.6236 104.911 10.8697 104.437 11.0102C103.963 11.151 103.479 11.2212 102.984 11.2212C102.603 11.2212 102.247 11.176 101.918 11.0857C101.588 10.9951 101.299 10.8545 101.052 10.6638C100.805 10.473 100.612 10.232 100.472 9.9403C100.333 9.6491 100.264 9.30239 100.264 8.90067C100.264 8.45857 100.344 8.09431 100.503 7.8079C100.663 7.52176 100.869 7.29327 101.122 7.12243C101.374 6.95186 101.663 6.82354 101.987 6.73825C102.312 6.65297 102.639 6.58495 102.969 6.53474C103.299 6.48452 103.623 6.4444 103.943 6.41412C104.262 6.38383 104.545 6.33866 104.793 6.27835C105.04 6.21831 105.236 6.13036 105.38 6.01479C105.524 5.89948 105.591 5.73104 105.581 5.50999C105.581 5.27911 105.543 5.09552 105.465 4.96002C105.388 4.82425 105.285 4.71878 105.156 4.64359C105.027 4.56813 104.878 4.51792 104.708 4.49268C104.538 4.4677 104.355 4.45522 104.159 4.45522C103.726 4.45522 103.386 4.54555 103.139 4.72648C102.891 4.90715 102.747 5.2087 102.706 5.63034H100.511Z" fill="#231F20"/>
<path id="Fill-17" fill-rule="evenodd" clip-rule="evenodd" d="M110.79 3.23439V4.31945H110.836C111.114 3.86726 111.475 3.53834 111.918 3.33243C112.362 3.12652 112.815 3.02344 113.279 3.02344C113.866 3.02344 114.348 3.10155 114.724 3.25698C115.1 3.41293 115.397 3.62894 115.613 3.90498C115.829 4.1813 115.981 4.51792 116.069 4.91459C116.156 5.31152 116.2 5.75097 116.2 6.23319V11.0254H114.005V6.62507C114.005 5.98211 113.902 5.50255 113.696 5.18585C113.49 4.86942 113.124 4.71134 112.599 4.71134C112.001 4.71134 111.568 4.8843 111.3 5.23102C111.032 5.57774 110.898 6.1479 110.898 6.9415V11.0254H108.703V3.23439H110.79Z" fill="#231F20"/>
<path id="Fill-18" fill-rule="evenodd" clip-rule="evenodd" d="M118.944 9.08878C119.041 9.25456 119.168 9.39006 119.322 9.49554C119.477 9.60102 119.655 9.67913 119.856 9.72934C120.057 9.77982 120.265 9.80453 120.482 9.80453C120.636 9.80453 120.798 9.78726 120.969 9.75193C121.139 9.71659 121.293 9.66133 121.432 9.58614C121.571 9.51068 121.687 9.41025 121.78 9.28459C121.873 9.15918 121.919 9.00083 121.919 8.81007C121.919 8.48859 121.7 8.24735 121.262 8.08687C120.824 7.92613 120.214 7.7654 119.43 7.60439C119.111 7.53425 118.799 7.45135 118.495 7.35597C118.191 7.26059 117.921 7.13492 117.684 6.97897C117.447 6.82354 117.256 6.62746 117.112 6.39153C116.968 6.15534 116.895 5.86654 116.895 5.52487C116.895 5.02272 116.996 4.61091 117.197 4.28916C117.398 3.96768 117.663 3.71422 117.993 3.52824C118.323 3.34253 118.694 3.21154 119.106 3.13635C119.518 3.06116 119.941 3.02344 120.374 3.02344C120.806 3.02344 121.226 3.06356 121.633 3.14406C122.04 3.2243 122.403 3.36006 122.723 3.55082C123.043 3.74185 123.308 3.99532 123.519 4.31201C123.73 4.62818 123.857 5.0275 123.898 5.50999H121.811C121.78 5.09791 121.62 4.81921 121.332 4.67361C121.043 4.52802 120.703 4.45495 120.312 4.45495C120.188 4.45495 120.054 4.46266 119.91 4.47754C119.765 4.49268 119.634 4.52536 119.516 4.57557C119.397 4.62605 119.297 4.69859 119.214 4.79397C119.131 4.88961 119.091 5.01767 119.091 5.17841C119.091 5.36918 119.162 5.52487 119.307 5.64549C119.451 5.76611 119.639 5.86388 119.871 5.93934C120.103 6.01479 120.368 6.08254 120.667 6.14285C120.966 6.20316 121.27 6.26852 121.579 6.3384C121.898 6.40907 122.21 6.49435 122.514 6.59478C122.818 6.69521 123.089 6.82832 123.326 6.99411C123.563 7.1599 123.753 7.36607 123.898 7.61183C124.042 7.85839 124.114 8.16206 124.114 8.52393C124.114 9.03617 124.008 9.46552 123.797 9.81224C123.586 10.1587 123.31 10.4374 122.97 10.6483C122.63 10.8596 122.241 11.0078 121.803 11.0928C121.365 11.1781 120.919 11.2212 120.466 11.2212C120.002 11.2212 119.549 11.1757 119.106 11.0854C118.663 10.9951 118.269 10.8442 117.924 10.6332C117.578 10.4225 117.295 10.1435 117.073 9.79709C116.851 9.45037 116.73 9.01598 116.71 8.49364H118.797C118.797 8.72479 118.846 8.92299 118.944 9.08878Z" fill="#231F20"/>
<path id="Fill-19" fill-rule="evenodd" clip-rule="evenodd" d="M48.7129 16.5387V14.5498H57.7558V16.5387H54.4478V25.309H52.0209V16.5387H48.7129Z" fill="#231F20"/>
<path id="Fill-20" fill-rule="evenodd" clip-rule="evenodd" d="M58.0801 25.309H60.2751V17.5183H58.0801V25.309ZM58.0801 16.3129H60.2751V14.5498H58.0801V16.3129Z" fill="#231F20"/>
<path id="Fill-21" fill-rule="evenodd" clip-rule="evenodd" d="M61.2949 25.3093H63.4899V14.5498H61.2949V25.3093Z" fill="#231F20"/>
<path id="Fill-22" fill-rule="evenodd" clip-rule="evenodd" d="M69.2793 19.342C69.0166 19.0606 68.6171 18.9198 68.0813 18.9198C67.7311 18.9198 67.4397 18.978 67.2081 19.0933C66.9761 19.2089 66.7905 19.3521 66.6516 19.5226C66.5126 19.6935 66.4144 19.8744 66.3578 20.0652C66.3011 20.2562 66.2676 20.427 66.2575 20.5774H69.8282C69.7249 20.0351 69.5423 19.6233 69.2793 19.342ZM66.7984 23.4407C67.1279 23.7524 67.6021 23.908 68.2205 23.908C68.6637 23.908 69.0449 23.7999 69.3643 23.5839C69.6837 23.3679 69.8794 23.1394 69.9519 22.8982H71.8842C71.5749 23.8323 71.1006 24.5008 70.4618 24.9025C69.8227 25.3042 69.0498 25.5051 68.1434 25.5051C67.5147 25.5051 66.9478 25.4073 66.4431 25.2115C65.9378 25.0154 65.5102 24.7367 65.16 24.3749C64.8095 24.0135 64.5389 23.5815 64.3484 23.0788C64.1576 22.577 64.0625 22.0243 64.0625 21.4215C64.0625 20.8391 64.1603 20.2966 64.3563 19.7939C64.5517 19.2918 64.83 18.8574 65.1908 18.4905C65.5513 18.1238 65.9817 17.835 66.4815 17.624C66.981 17.4131 67.5351 17.3076 68.1434 17.3076C68.8234 17.3076 69.4158 17.4354 69.9208 17.6918C70.4256 17.9479 70.8406 18.2922 71.1652 18.724C71.4898 19.1563 71.7242 19.6483 71.8684 20.2007C72.0128 20.7533 72.064 21.3309 72.0232 21.9337H66.2575C66.2883 22.6269 66.4684 23.1296 66.7984 23.4407Z" fill="#231F20"/>
<path id="Fill-23" fill-rule="evenodd" clip-rule="evenodd" d="M78.9865 16.1625C78.7857 15.9616 78.551 15.8612 78.2831 15.8612C78.0152 15.8612 77.7833 15.9491 77.5879 16.125C77.3917 16.3009 77.2941 16.5294 77.2941 16.8105C77.2941 17.1522 77.3868 17.4434 77.5724 17.6846C77.7577 17.9256 77.9534 18.1721 78.1597 18.4229C78.4687 18.2324 78.7342 18.0263 78.9557 17.8052C79.1773 17.5842 79.288 17.2776 79.288 16.886C79.288 16.6049 79.1877 16.3636 78.9865 16.1625ZM76.9385 20.8492C76.7529 20.9597 76.588 21.0902 76.4438 21.2411C76.2994 21.3917 76.1833 21.5572 76.0961 21.7382C76.0083 21.9191 75.9647 22.12 75.9647 22.3407C75.9647 22.532 76.0083 22.7154 76.0961 22.891C76.1833 23.0671 76.2994 23.2175 76.4438 23.3432C76.588 23.4688 76.7553 23.569 76.9461 23.6445C77.1369 23.7199 77.335 23.7574 77.5413 23.7574C77.9329 23.7574 78.2755 23.6697 78.5693 23.4936C78.8631 23.3182 79.1386 23.0894 79.3962 22.8081L77.5102 20.5628C77.3146 20.6435 77.1241 20.7387 76.9385 20.8492ZM79.1411 25.1892C78.6412 25.4001 78.0771 25.5056 77.4486 25.5056C76.954 25.5056 76.4877 25.4352 76.0497 25.2946C75.6115 25.1541 75.233 24.9455 74.9135 24.6692C74.5939 24.3929 74.3418 24.0563 74.1559 23.6596C73.9706 23.2629 73.8779 22.8081 73.8779 22.2956C73.8779 21.9141 73.9447 21.5647 74.0788 21.2485C74.2126 20.9321 74.3957 20.6459 74.6274 20.3895C74.8593 20.1334 75.1248 19.9049 75.4237 19.7041C75.7224 19.5032 76.0315 19.3271 76.3512 19.1764C76.0522 18.8249 75.8023 18.4734 75.6014 18.1217C75.4006 17.7699 75.3 17.3581 75.3 16.886C75.3 16.5143 75.3799 16.1776 75.5396 15.8763C75.6993 15.5751 75.9129 15.3163 76.1811 15.1C76.4487 14.8843 76.7553 14.7185 77.1009 14.6029C77.4459 14.4873 77.804 14.4297 78.1749 14.4297C78.5976 14.4297 78.9917 14.4849 79.3575 14.5955C79.7232 14.706 80.0426 14.8691 80.316 15.0851C80.5888 15.3014 80.8052 15.57 80.9651 15.8912C81.1248 16.213 81.205 16.5844 81.205 17.0063C81.205 17.6392 81.0166 18.1721 80.6405 18.6039C80.2642 19.0359 79.7981 19.3975 79.2416 19.6889L80.6637 21.3917C80.7771 21.1909 80.8648 20.9823 80.9264 20.7663C80.9886 20.5503 81.0346 20.3319 81.0657 20.1108H82.9669C82.9154 20.5928 82.802 21.0601 82.627 21.5121C82.4515 21.9643 82.2095 22.3814 81.9005 22.7629L84.1418 25.3095H81.4521L80.5555 24.2396C80.1124 24.6618 79.6409 24.9779 79.1411 25.1892Z" fill="#231F20"/>
<path id="Fill-24" fill-rule="evenodd" clip-rule="evenodd" d="M87.4806 22.6575C87.6145 22.9085 87.7924 23.1123 88.014 23.268C88.2356 23.4237 88.4958 23.539 88.7945 23.6145C89.0932 23.6899 89.4025 23.7274 89.7222 23.7274C89.9386 23.7274 90.1703 23.7101 90.4177 23.6748C90.6649 23.6394 90.8968 23.5717 91.1132 23.4713C91.3296 23.3711 91.5098 23.2327 91.6542 23.0571C91.7986 22.8814 91.8706 22.6575 91.8706 22.3862C91.8706 22.095 91.7752 21.8588 91.5847 21.6779C91.3939 21.4972 91.1443 21.3463 90.835 21.2259C90.5259 21.1053 90.1754 20.9999 89.7841 20.9095C89.3922 20.8189 88.9956 20.7188 88.5937 20.608C88.1813 20.5078 87.7793 20.3845 87.388 20.2389C86.9961 20.0933 86.6459 19.9052 86.3368 19.6738C86.0278 19.4427 85.7776 19.1539 85.5871 18.8074C85.3963 18.4607 85.3012 18.0414 85.3012 17.5489C85.3012 16.9965 85.4222 16.5169 85.6645 16.1099C85.9065 15.7029 86.2234 15.3639 86.6151 15.0926C87.0064 14.8213 87.4498 14.6205 87.9445 14.49C88.4391 14.3596 88.9338 14.2939 89.4284 14.2939C90.0054 14.2939 90.5592 14.3569 91.0901 14.4823C91.6207 14.6083 92.0922 14.8115 92.5045 15.0926C92.9166 15.374 93.2436 15.7332 93.4862 16.1702C93.7282 16.6073 93.8494 17.1373 93.8494 17.7598H91.4997C91.479 17.4383 91.4095 17.1721 91.2909 16.9614C91.1724 16.7502 91.0151 16.5847 90.8194 16.4641C90.6238 16.3434 90.3995 16.2582 90.1471 16.2079C89.8945 16.1577 89.6189 16.1325 89.3202 16.1325C89.1243 16.1325 88.9283 16.1527 88.7327 16.1928C88.5367 16.2332 88.3593 16.3033 88.1996 16.4038C88.0396 16.5042 87.9082 16.6299 87.8052 16.7805C87.7022 16.9311 87.651 17.1222 87.651 17.353C87.651 17.564 87.6919 17.7351 87.7744 17.8656C87.8567 17.996 88.0192 18.1166 88.2614 18.2272C88.5032 18.3377 88.8381 18.4482 89.2663 18.5587C89.6936 18.6693 90.2526 18.8101 90.9434 18.9806C91.1492 19.0208 91.4351 19.0938 91.8011 19.199C92.1668 19.3048 92.5301 19.473 92.891 19.7041C93.2515 19.9352 93.5633 20.244 93.826 20.6308C94.0887 21.0174 94.2201 21.5121 94.2201 22.1152C94.2201 22.6075 94.1222 23.0645 93.9266 23.4864C93.7309 23.9083 93.4398 24.2726 93.0531 24.5786C92.6667 24.8855 92.1875 25.1238 91.6158 25.2947C91.0437 25.4652 90.3815 25.551 89.6293 25.551C89.0213 25.551 88.4312 25.4777 87.8595 25.3321C87.2877 25.1868 86.7824 24.9583 86.3447 24.6467C85.9065 24.3353 85.5587 23.9383 85.3012 23.4564C85.0437 22.9739 84.9199 22.4013 84.9303 21.7382H87.2798C87.2798 22.0998 87.3466 22.4067 87.4806 22.6575Z" fill="#231F20"/>
<path id="Fill-25" fill-rule="evenodd" clip-rule="evenodd" d="M99.0422 17.5183V18.95H97.4345V22.8075C97.4345 23.1694 97.4964 23.4104 97.6201 23.531C97.7436 23.6516 97.9911 23.7119 98.362 23.7119C98.4857 23.7119 98.604 23.7069 98.7176 23.6965C98.831 23.687 98.9392 23.6718 99.0422 23.6516V25.309C98.8566 25.3392 98.6503 25.3594 98.4238 25.3693C98.1971 25.3794 97.9755 25.3844 97.7591 25.3844C97.419 25.3844 97.0969 25.3618 96.7933 25.3167C96.4891 25.2715 96.221 25.1836 95.9893 25.0528C95.7574 24.9224 95.5742 24.7364 95.4407 24.4954C95.3063 24.2545 95.2396 23.9378 95.2396 23.5459V18.95H93.9102V17.5183H95.2396V15.1826H97.4345V17.5183H99.0422Z" fill="#231F20"/>
<path id="Fill-26" fill-rule="evenodd" clip-rule="evenodd" d="M101.361 22.3333C101.423 22.6296 101.528 22.8958 101.678 23.132C101.827 23.3682 102.026 23.5565 102.273 23.6968C102.52 23.8376 102.829 23.908 103.2 23.908C103.571 23.908 103.883 23.8376 104.136 23.6968C104.388 23.5565 104.589 23.3682 104.738 23.132C104.887 22.8958 104.993 22.6296 105.055 22.3333C105.117 22.0371 105.148 21.7329 105.148 21.4215C105.148 21.1101 105.117 20.8035 105.055 20.5022C104.993 20.2009 104.887 19.935 104.738 19.7038C104.589 19.4724 104.388 19.2841 104.136 19.1387C103.883 18.9931 103.571 18.9198 103.2 18.9198C102.829 18.9198 102.52 18.9931 102.273 19.1387C102.026 19.2841 101.827 19.4724 101.678 19.7038C101.528 19.935 101.423 20.2009 101.361 20.5022C101.299 20.8035 101.268 21.1101 101.268 21.4215C101.268 21.7329 101.299 22.0371 101.361 22.3333ZM99.3668 19.7262C99.5624 19.219 99.8407 18.787 100.202 18.4304C100.562 18.0739 100.995 17.7973 101.5 17.6015C102.005 17.4057 102.572 17.3076 103.2 17.3076C103.829 17.3076 104.398 17.4057 104.908 17.6015C105.418 17.7973 105.854 18.0739 106.215 18.4304C106.575 18.787 106.853 19.219 107.049 19.7262C107.245 20.2336 107.343 20.7987 107.343 21.4215C107.343 22.0445 107.245 22.607 107.049 23.1094C106.853 23.6118 106.575 24.0412 106.215 24.398C105.854 24.7545 105.418 25.0284 104.908 25.2189C104.398 25.4097 103.829 25.5051 103.2 25.5051C102.572 25.5051 102.005 25.4097 101.5 25.2189C100.995 25.0284 100.562 24.7545 100.202 24.398C99.8407 24.0412 99.5624 23.6118 99.3668 23.1094C99.1711 22.607 99.0732 22.0445 99.0732 21.4215C99.0732 20.7987 99.1711 20.2336 99.3668 19.7262Z" fill="#231F20"/>
<path id="Fill-27" fill-rule="evenodd" clip-rule="evenodd" d="M110.078 17.5186V18.6036H110.124C110.403 18.1517 110.763 17.8228 111.207 17.6166C111.649 17.4107 112.103 17.3076 112.566 17.3076C113.154 17.3076 113.636 17.3857 114.012 17.5412C114.388 17.6971 114.684 17.9128 114.901 18.1889C115.117 18.4655 115.269 18.8021 115.357 19.1988C115.444 19.5957 115.488 20.0354 115.488 20.5174V25.3093H113.293V20.9093C113.293 20.2666 113.19 19.7865 112.984 19.47C112.778 19.1536 112.412 18.9955 111.887 18.9955C111.289 18.9955 110.856 19.1687 110.588 19.5155C110.32 19.8617 110.186 20.4321 110.186 21.2257V25.3093H107.991V17.5186H110.078Z" fill="#231F20"/>
<path id="Fill-28" fill-rule="evenodd" clip-rule="evenodd" d="M121.216 19.342C120.953 19.0606 120.554 18.9198 120.018 18.9198C119.668 18.9198 119.377 18.978 119.145 19.0933C118.913 19.2089 118.727 19.3521 118.588 19.5226C118.449 19.6935 118.351 19.8744 118.295 20.0652C118.238 20.2562 118.204 20.427 118.194 20.5774H121.765C121.662 20.0351 121.479 19.6233 121.216 19.342ZM118.735 23.4407C119.065 23.7524 119.539 23.908 120.157 23.908C120.6 23.908 120.982 23.7999 121.301 23.5839C121.621 23.3679 121.816 23.1394 121.889 22.8982H123.821C123.512 23.8323 123.037 24.5008 122.399 24.9025C121.76 25.3042 120.987 25.5051 120.08 25.5051C119.451 25.5051 118.884 25.4073 118.38 25.2115C117.875 25.0154 117.447 24.7367 117.097 24.3749C116.746 24.0135 116.476 23.5815 116.285 23.0788C116.094 22.577 115.999 22.0243 115.999 21.4215C115.999 20.8391 116.097 20.2966 116.293 19.7939C116.488 19.2918 116.767 18.8574 117.128 18.4905C117.488 18.1238 117.918 17.835 118.418 17.624C118.918 17.4131 119.472 17.3076 120.08 17.3076C120.76 17.3076 121.352 17.4354 121.858 17.6918C122.362 17.9479 122.777 18.2922 123.102 18.724C123.427 19.1563 123.661 19.6483 123.805 20.2007C123.949 20.7533 124.001 21.3309 123.96 21.9337H118.194C118.225 22.6269 118.405 23.1296 118.735 23.4407Z" fill="#231F20"/>
<path id="Fill-29" fill-rule="evenodd" clip-rule="evenodd" d="M125.458 2.83921H125.662C125.774 2.83921 125.83 2.79272 125.83 2.70318C125.83 2.62135 125.782 2.56688 125.666 2.56688H125.458V2.83921ZM125.139 2.32963H125.718C125.953 2.32963 126.149 2.44626 126.149 2.66412C126.149 2.80042 126.089 2.89368 125.921 2.94442V2.95213C126.057 2.9872 126.097 3.03369 126.117 3.16202C126.137 3.27892 126.129 3.43833 126.177 3.45374V3.48509H125.861C125.826 3.46543 125.826 3.3294 125.81 3.21648C125.798 3.11552 125.742 3.06478 125.63 3.06478H125.458V3.48509H125.139V2.32963ZM126.564 2.92104C126.564 2.36071 126.157 1.95235 125.614 1.95235C125.063 1.95235 124.66 2.36071 124.66 2.92104C124.66 3.47712 125.063 3.88947 125.614 3.88947C126.157 3.88947 126.564 3.47712 126.564 2.92104ZM124.457 2.92104C124.457 2.26347 124.968 1.78125 125.614 1.78125C126.256 1.78125 126.763 2.26347 126.763 2.92104C126.763 3.57038 126.256 4.05685 125.614 4.05685C124.968 4.05685 124.457 3.57038 124.457 2.92104Z" fill="#231F20"/>
<path id="Fill-30" fill-rule="evenodd" clip-rule="evenodd" d="M1.33459 0.265625H41.2938C42.0305 0.265625 42.6279 0.848008 42.6279 1.56669V24.007C42.6279 24.7262 42.0305 25.3084 41.2938 25.3084H1.33459C0.597391 25.3084 0 24.7262 0 24.007V1.56669C0 0.848008 0.597391 0.265625 1.33459 0.265625Z" fill="#587FC0"/>
<path id="Fill-33" fill-rule="evenodd" clip-rule="evenodd" d="M13.5322 15.8115V15.8194V15.8279C13.5322 15.8224 13.5328 15.817 13.533 15.8115H13.5322Z" fill="#FEFEFE"/>
<path id="Fill-34" fill-rule="evenodd" clip-rule="evenodd" d="M14.4404 5.66234C14.4543 5.66179 14.4682 5.66016 14.4821 5.66016H14.4404V5.66234Z" fill="#FEFEFE"/>
<path id="Fill-38" fill-rule="evenodd" clip-rule="evenodd" d="M15.68 11.1363H17.1228L17.1198 11.8027H12.943H7.58824H6.32233C5.44314 11.8027 4.73047 11.1076 4.73047 10.2505V5.06834L4.73701 5.07073C4.73347 5.02769 4.73047 4.98465 4.73047 4.94081C4.73047 4.08371 5.44314 3.38867 6.32233 3.38867L17.1211 3.39053L17.1198 5.66002H14.4814H14.4397V5.66214C13.9352 5.6834 13.5324 6.08751 13.5319 6.5846H13.53V6.70496L13.5319 6.70549V10.2104C13.5319 10.708 13.9347 11.113 14.4397 11.1342L15.68 11.1363Z" fill="#FEFEFE"/>
<path id="Fill-39" fill-rule="evenodd" clip-rule="evenodd" d="M36.3047 3.38867C37.1839 3.38867 37.8968 4.08344 37.8968 4.94054V10.2505C37.8968 11.1076 37.1839 11.8024 36.3047 11.8024C36.2938 11.8024 36.2832 11.8011 36.2725 11.8008L25.4146 11.8024L25.4154 11.1286L28.1445 11.1284C28.6683 11.1276 29.0927 10.7134 29.0927 10.2027V9.75477V6.70974V6.61914C29.0929 6.60799 29.0943 6.59709 29.0943 6.58567C29.0943 6.07422 28.6692 5.65975 28.1445 5.65975H28.141H24.7918C24.7831 5.65949 24.7747 5.65842 24.7659 5.65842C24.2413 5.65842 23.8162 6.07316 23.8162 6.58434V6.5846V7.91144L23.8148 7.91117V18.9977V20.6327C23.8148 21.4898 23.1021 22.1849 22.2229 22.1849H13.9818H6.32233C5.44314 22.1849 4.73047 21.4898 4.73047 20.6327V15.3334C4.73047 14.476 5.44314 13.7812 6.32233 13.7812L17.1198 13.7823V14.4486H14.4814C13.9628 14.4486 13.5423 14.8538 13.5324 15.357L13.5316 18.9977C13.5316 19.5091 13.9568 19.9239 14.4814 19.9239H18.2006C18.7253 19.9239 19.1504 19.5091 19.1504 18.9977V4.9424H19.1507C19.1507 4.94187 19.1504 4.94134 19.1504 4.94054C19.1504 4.08344 19.8634 3.38867 20.7426 3.38867H36.3047Z" fill="#FEFEFE"/>
<path id="Fill-40" fill-rule="evenodd" clip-rule="evenodd" d="M28.1416 14.4457C28.666 14.4457 29.0914 14.8514 29.0914 15.3629L29.0933 18.998H29.0914C29.0914 19.5094 28.666 19.9239 28.1416 19.9239H25.416V22.1849H36.3053C37.1845 22.1849 37.8974 21.4901 37.8974 20.6328V15.3334C37.8974 14.4763 37.1845 13.7812 36.3053 13.7812L25.416 13.7823V14.4468" fill="#FEFEFE"/>
</g>
</g>
</g>
</g>
</g>
</svg>
