<svg width="20" height="20" viewBox="0 0 20 20" fill="none" xmlns="http://www.w3.org/2000/svg">
<path d="M4 5.5C4 5.5 2.5 6.5 2 7C1.5 7.5 1.5 7.7 1.5 8.5C1.5 8.64081 1.5 8.91795 1.5 9.29268M18.5 9.27125C18.5 11.9393 18.5 16.2753 18.5 17C18.5 17.8 17.5 18.3333 17 18.5C12.5 18.5 3.3 18.5 2.5 18.5C1.7 18.5 1.5 17.5 1.5 17C1.5 14.94 1.5 11.0469 1.5 9.29268M18.5 9.27125C18.5 8.99421 18.5 8.73516 18.5 8.5C18.5 7.69542 18 7 18 7L16 5.5M18.5 9.27125L11 12.5C10.6667 12.6667 9.8 12.9 9 12.5C8.2 12.1 3.66667 10.1951 1.5 9.29268" stroke="currentColor" stroke-width="1.5" stroke-linecap="round"/>
<path d="M4.75 3C4.75 2.30964 5.30964 1.75 6 1.75H14C14.6904 1.75 15.25 2.30964 15.25 3V9.9286C15.25 10.3956 14.9926 10.8107 14.5913 11.0066C13.8841 11.352 12.9315 11.7976 12.0344 12.1552C11.5854 12.3342 11.1608 12.4869 10.7941 12.5938C10.4129 12.7049 10.1487 12.75 10 12.75C10.0043 12.75 9.99169 12.7502 9.95691 12.7451C9.92377 12.7402 9.87953 12.732 9.82312 12.7191C9.70958 12.6931 9.56598 12.6529 9.39426 12.5983C9.05111 12.4892 8.62925 12.3336 8.17021 12.1523C7.25383 11.7902 6.22784 11.3408 5.46167 10.9962C5.02947 10.8019 4.75 10.3679 4.75 9.88157V3Z" stroke="currentColor" stroke-width="1.5"/>
<line x1="7.5" y1="4.5" x2="12.5" y2="4.5" stroke="currentColor" stroke-linecap="round"/>
<line x1="7.5" y1="7" x2="12.5" y2="7" stroke="currentColor" stroke-linecap="round"/>
<line x1="7.5" y1="9.5" x2="12.5" y2="9.5" stroke="currentColor" stroke-linecap="round"/>
</svg>
