<svg width="393" height="436" viewBox="0 0 393 436" fill="none" xmlns="http://www.w3.org/2000/svg">
<g id="Group 883">
<g id="Group 862">
<circle id="Ellipse 29" cx="3.57273" cy="3.57273" r="3.57273" fill="#0967D2"/>
<circle id="Ellipse 30" cx="25.0102" cy="3.57273" r="3.57273" fill="#0967D2"/>
<circle id="Ellipse 31" cx="46.4438" cy="3.57273" r="3.57273" fill="#0967D2"/>
<circle id="Ellipse 32" cx="67.8813" cy="3.57273" r="3.57273" fill="#0967D2"/>
<circle id="Ellipse 33" cx="89.3188" cy="3.57273" r="3.57273" fill="#0967D2"/>
<circle id="Ellipse 34" cx="110.756" cy="3.57273" r="3.57273" fill="#0967D2"/>
<circle id="Ellipse 35" cx="132.19" cy="3.57273" r="3.57273" fill="#0967D2"/>
<circle id="Ellipse 36" cx="153.627" cy="3.57273" r="3.57273" fill="#0967D2"/>
<circle id="Ellipse 37" cx="175.065" cy="3.57273" r="3.57273" fill="#0967D2"/>
<circle id="Ellipse 38" cx="196.499" cy="3.57273" r="3.57273" fill="#0967D2"/>
<circle id="Ellipse 39" cx="217.936" cy="3.57273" r="3.57273" fill="#0967D2"/>
<circle id="Ellipse 40" cx="239.374" cy="3.57273" r="3.57273" fill="#0967D2"/>
<circle id="Ellipse 41" cx="260.807" cy="3.57273" r="3.57273" fill="#0967D2"/>
<circle id="Ellipse 42" cx="282.245" cy="3.57273" r="3.57273" fill="#0967D2"/>
<circle id="Ellipse 43" cx="303.682" cy="3.57273" r="3.57273" fill="#0967D2"/>
<circle id="Ellipse 44" cx="325.12" cy="3.57273" r="3.57273" fill="#0967D2"/>
<circle id="Ellipse 45" cx="346.553" cy="3.57273" r="3.57273" fill="#0967D2"/>
<circle id="Ellipse 46" cx="367.991" cy="3.57273" r="3.57273" fill="#0967D2"/>
<circle id="Ellipse 47" cx="389.428" cy="3.57273" r="3.57273" fill="#0967D2"/>
</g>
<g id="Group 863">
<circle id="Ellipse 29_2" cx="3.57273" cy="25.0093" r="3.57273" fill="#0967D2"/>
<circle id="Ellipse 30_2" cx="25.0102" cy="25.0093" r="3.57273" fill="#0967D2"/>
<circle id="Ellipse 31_2" cx="46.4438" cy="25.0093" r="3.57273" fill="#0967D2"/>
<circle id="Ellipse 32_2" cx="67.8813" cy="25.0093" r="3.57273" fill="#0967D2"/>
<circle id="Ellipse 33_2" cx="89.3188" cy="25.0093" r="3.57273" fill="#0967D2"/>
<circle id="Ellipse 34_2" cx="110.756" cy="25.0093" r="3.57273" fill="#0967D2"/>
<circle id="Ellipse 35_2" cx="132.19" cy="25.0093" r="3.57273" fill="#0967D2"/>
<circle id="Ellipse 36_2" cx="153.627" cy="25.0093" r="3.57273" fill="#0967D2"/>
<circle id="Ellipse 37_2" cx="175.065" cy="25.0093" r="3.57273" fill="#0967D2"/>
<circle id="Ellipse 38_2" cx="196.499" cy="25.0093" r="3.57273" fill="#0967D2"/>
<circle id="Ellipse 39_2" cx="217.936" cy="25.0093" r="3.57273" fill="#0967D2"/>
<circle id="Ellipse 40_2" cx="239.374" cy="25.0093" r="3.57273" fill="#0967D2"/>
<circle id="Ellipse 41_2" cx="260.807" cy="25.0093" r="3.57273" fill="#0967D2"/>
<circle id="Ellipse 42_2" cx="282.245" cy="25.0093" r="3.57273" fill="#0967D2"/>
<circle id="Ellipse 43_2" cx="303.682" cy="25.0093" r="3.57273" fill="#0967D2"/>
<circle id="Ellipse 44_2" cx="325.12" cy="25.0093" r="3.57273" fill="#0967D2"/>
<circle id="Ellipse 45_2" cx="346.553" cy="25.0093" r="3.57273" fill="#0967D2"/>
<circle id="Ellipse 46_2" cx="367.991" cy="25.0093" r="3.57273" fill="#0967D2"/>
<circle id="Ellipse 47_2" cx="389.428" cy="25.0093" r="3.57273" fill="#0967D2"/>
</g>
<g id="Group 864">
<circle id="Ellipse 29_3" cx="3.57273" cy="46.4448" r="3.57273" fill="#0967D2"/>
<circle id="Ellipse 30_3" cx="25.0102" cy="46.4448" r="3.57273" fill="#0967D2"/>
<circle id="Ellipse 31_3" cx="46.4438" cy="46.4448" r="3.57273" fill="#0967D2"/>
<circle id="Ellipse 32_3" cx="67.8813" cy="46.4448" r="3.57273" fill="#0967D2"/>
<circle id="Ellipse 33_3" cx="89.3188" cy="46.4448" r="3.57273" fill="#0967D2"/>
<circle id="Ellipse 34_3" cx="110.756" cy="46.4448" r="3.57273" fill="#0967D2"/>
<circle id="Ellipse 35_3" cx="132.19" cy="46.4448" r="3.57273" fill="#0967D2"/>
<circle id="Ellipse 36_3" cx="153.627" cy="46.4448" r="3.57273" fill="#0967D2"/>
<circle id="Ellipse 37_3" cx="175.065" cy="46.4448" r="3.57273" fill="#0967D2"/>
<circle id="Ellipse 38_3" cx="196.499" cy="46.4448" r="3.57273" fill="#0967D2"/>
<circle id="Ellipse 39_3" cx="217.936" cy="46.4448" r="3.57273" fill="#0967D2"/>
<circle id="Ellipse 40_3" cx="239.374" cy="46.4448" r="3.57273" fill="#0967D2"/>
<circle id="Ellipse 41_3" cx="260.807" cy="46.4448" r="3.57273" fill="#0967D2"/>
<circle id="Ellipse 42_3" cx="282.245" cy="46.4448" r="3.57273" fill="#0967D2"/>
<circle id="Ellipse 43_3" cx="303.682" cy="46.4448" r="3.57273" fill="#0967D2"/>
<circle id="Ellipse 44_3" cx="325.12" cy="46.4448" r="3.57273" fill="#0967D2"/>
<circle id="Ellipse 45_3" cx="346.553" cy="46.4448" r="3.57273" fill="#0967D2"/>
<circle id="Ellipse 46_3" cx="367.991" cy="46.4448" r="3.57273" fill="#0967D2"/>
<circle id="Ellipse 47_3" cx="389.428" cy="46.4448" r="3.57273" fill="#0967D2"/>
</g>
<g id="Group 865">
<circle id="Ellipse 29_4" cx="3.57273" cy="67.8823" r="3.57273" fill="#0967D2"/>
<circle id="Ellipse 30_4" cx="25.0102" cy="67.8823" r="3.57273" fill="#0967D2"/>
<circle id="Ellipse 31_4" cx="46.4438" cy="67.8823" r="3.57273" fill="#0967D2"/>
<circle id="Ellipse 32_4" cx="67.8813" cy="67.8823" r="3.57273" fill="#0967D2"/>
<circle id="Ellipse 33_4" cx="89.3188" cy="67.8823" r="3.57273" fill="#0967D2"/>
<circle id="Ellipse 34_4" cx="110.756" cy="67.8823" r="3.57273" fill="#0967D2"/>
<circle id="Ellipse 35_4" cx="132.19" cy="67.8823" r="3.57273" fill="#0967D2"/>
<circle id="Ellipse 36_4" cx="153.627" cy="67.8823" r="3.57273" fill="#0967D2"/>
<circle id="Ellipse 37_4" cx="175.065" cy="67.8823" r="3.57273" fill="#0967D2"/>
<circle id="Ellipse 38_4" cx="196.499" cy="67.8823" r="3.57273" fill="#0967D2"/>
<circle id="Ellipse 39_4" cx="217.936" cy="67.8823" r="3.57273" fill="#0967D2"/>
<circle id="Ellipse 40_4" cx="239.374" cy="67.8823" r="3.57273" fill="#0967D2"/>
<circle id="Ellipse 41_4" cx="260.807" cy="67.8823" r="3.57273" fill="#0967D2"/>
<circle id="Ellipse 42_4" cx="282.245" cy="67.8823" r="3.57273" fill="#0967D2"/>
<circle id="Ellipse 43_4" cx="303.682" cy="67.8823" r="3.57273" fill="#0967D2"/>
<circle id="Ellipse 44_4" cx="325.12" cy="67.8823" r="3.57273" fill="#0967D2"/>
<circle id="Ellipse 45_4" cx="346.553" cy="67.8823" r="3.57273" fill="#0967D2"/>
<circle id="Ellipse 46_4" cx="367.991" cy="67.8823" r="3.57273" fill="#0967D2"/>
<circle id="Ellipse 47_4" cx="389.428" cy="67.8823" r="3.57273" fill="#0967D2"/>
</g>
<g id="Group 866">
<circle id="Ellipse 29_5" cx="3.57273" cy="89.3178" r="3.57273" fill="#0967D2"/>
<circle id="Ellipse 30_5" cx="25.0102" cy="89.3178" r="3.57273" fill="#0967D2"/>
<circle id="Ellipse 31_5" cx="46.4438" cy="89.3178" r="3.57273" fill="#0967D2"/>
<circle id="Ellipse 32_5" cx="67.8813" cy="89.3178" r="3.57273" fill="#0967D2"/>
<circle id="Ellipse 33_5" cx="89.3188" cy="89.3178" r="3.57273" fill="#0967D2"/>
<circle id="Ellipse 34_5" cx="110.756" cy="89.3178" r="3.57273" fill="#0967D2"/>
<circle id="Ellipse 35_5" cx="132.19" cy="89.3178" r="3.57273" fill="#0967D2"/>
<circle id="Ellipse 36_5" cx="153.627" cy="89.3178" r="3.57273" fill="#0967D2"/>
<circle id="Ellipse 37_5" cx="175.065" cy="89.3178" r="3.57273" fill="#0967D2"/>
<circle id="Ellipse 38_5" cx="196.499" cy="89.3178" r="3.57273" fill="#0967D2"/>
<circle id="Ellipse 39_5" cx="217.936" cy="89.3178" r="3.57273" fill="#0967D2"/>
<circle id="Ellipse 40_5" cx="239.374" cy="89.3178" r="3.57273" fill="#0967D2"/>
<circle id="Ellipse 41_5" cx="260.807" cy="89.3178" r="3.57273" fill="#0967D2"/>
<circle id="Ellipse 42_5" cx="282.245" cy="89.3178" r="3.57273" fill="#0967D2"/>
<circle id="Ellipse 43_5" cx="303.682" cy="89.3178" r="3.57273" fill="#0967D2"/>
<circle id="Ellipse 44_5" cx="325.12" cy="89.3178" r="3.57273" fill="#0967D2"/>
<circle id="Ellipse 45_5" cx="346.553" cy="89.3178" r="3.57273" fill="#0967D2"/>
<circle id="Ellipse 46_5" cx="367.991" cy="89.3178" r="3.57273" fill="#0967D2"/>
<circle id="Ellipse 47_5" cx="389.428" cy="89.3178" r="3.57273" fill="#0967D2"/>
</g>
<g id="Group 867">
<circle id="Ellipse 29_6" cx="3.57273" cy="110.755" r="3.57273" fill="#0967D2"/>
<circle id="Ellipse 30_6" cx="25.0102" cy="110.754" r="3.57273" fill="#0967D2"/>
<circle id="Ellipse 31_6" cx="46.4438" cy="110.754" r="3.57273" fill="#0967D2"/>
<circle id="Ellipse 32_6" cx="67.8813" cy="110.754" r="3.57273" fill="#0967D2"/>
<circle id="Ellipse 33_6" cx="89.3188" cy="110.754" r="3.57273" fill="#0967D2"/>
<circle id="Ellipse 34_6" cx="110.756" cy="110.754" r="3.57273" fill="#0967D2"/>
<circle id="Ellipse 35_6" cx="132.19" cy="110.754" r="3.57273" fill="#0967D2"/>
<circle id="Ellipse 36_6" cx="153.627" cy="110.754" r="3.57273" fill="#0967D2"/>
<circle id="Ellipse 37_6" cx="175.065" cy="110.754" r="3.57273" fill="#0967D2"/>
<circle id="Ellipse 38_6" cx="196.499" cy="110.754" r="3.57273" fill="#0967D2"/>
<circle id="Ellipse 39_6" cx="217.936" cy="110.754" r="3.57273" fill="#0967D2"/>
<circle id="Ellipse 40_6" cx="239.374" cy="110.754" r="3.57273" fill="#0967D2"/>
<circle id="Ellipse 41_6" cx="260.807" cy="110.754" r="3.57273" fill="#0967D2"/>
<circle id="Ellipse 42_6" cx="282.245" cy="110.754" r="3.57273" fill="#0967D2"/>
<circle id="Ellipse 43_6" cx="303.682" cy="110.754" r="3.57273" fill="#0967D2"/>
<circle id="Ellipse 44_6" cx="325.12" cy="110.754" r="3.57273" fill="#0967D2"/>
<circle id="Ellipse 45_6" cx="346.553" cy="110.754" r="3.57273" fill="#0967D2"/>
<circle id="Ellipse 46_6" cx="367.991" cy="110.754" r="3.57273" fill="#0967D2"/>
<circle id="Ellipse 47_6" cx="389.428" cy="110.754" r="3.57273" fill="#0967D2"/>
</g>
<g id="Group 868">
<circle id="Ellipse 29_7" cx="3.57273" cy="132.19" r="3.57273" fill="#0967D2"/>
<circle id="Ellipse 30_7" cx="25.0102" cy="132.19" r="3.57273" fill="#0967D2"/>
<circle id="Ellipse 31_7" cx="46.4438" cy="132.19" r="3.57273" fill="#0967D2"/>
<circle id="Ellipse 32_7" cx="67.8813" cy="132.19" r="3.57273" fill="#0967D2"/>
<circle id="Ellipse 33_7" cx="89.3188" cy="132.19" r="3.57273" fill="#0967D2"/>
<circle id="Ellipse 34_7" cx="110.756" cy="132.19" r="3.57273" fill="#0967D2"/>
<circle id="Ellipse 35_7" cx="132.19" cy="132.19" r="3.57273" fill="#0967D2"/>
<circle id="Ellipse 36_7" cx="153.627" cy="132.19" r="3.57273" fill="#0967D2"/>
<circle id="Ellipse 37_7" cx="175.065" cy="132.19" r="3.57273" fill="#0967D2"/>
<circle id="Ellipse 38_7" cx="196.499" cy="132.19" r="3.57273" fill="#0967D2"/>
<circle id="Ellipse 39_7" cx="217.936" cy="132.19" r="3.57273" fill="#0967D2"/>
<circle id="Ellipse 40_7" cx="239.374" cy="132.19" r="3.57273" fill="#0967D2"/>
<circle id="Ellipse 41_7" cx="260.807" cy="132.19" r="3.57273" fill="#0967D2"/>
<circle id="Ellipse 42_7" cx="282.245" cy="132.19" r="3.57273" fill="#0967D2"/>
<circle id="Ellipse 43_7" cx="303.682" cy="132.19" r="3.57273" fill="#0967D2"/>
<circle id="Ellipse 44_7" cx="325.12" cy="132.19" r="3.57273" fill="#0967D2"/>
<circle id="Ellipse 45_7" cx="346.553" cy="132.19" r="3.57273" fill="#0967D2"/>
<circle id="Ellipse 46_7" cx="367.991" cy="132.19" r="3.57273" fill="#0967D2"/>
<circle id="Ellipse 47_7" cx="389.428" cy="132.19" r="3.57273" fill="#0967D2"/>
</g>
<g id="Group 869">
<circle id="Ellipse 29_8" cx="3.57273" cy="153.626" r="3.57273" fill="#0967D2"/>
<circle id="Ellipse 30_8" cx="25.0102" cy="153.626" r="3.57273" fill="#0967D2"/>
<circle id="Ellipse 31_8" cx="46.4438" cy="153.626" r="3.57273" fill="#0967D2"/>
<circle id="Ellipse 32_8" cx="67.8813" cy="153.626" r="3.57273" fill="#0967D2"/>
<circle id="Ellipse 33_8" cx="89.3188" cy="153.626" r="3.57273" fill="#0967D2"/>
<circle id="Ellipse 34_8" cx="110.756" cy="153.626" r="3.57273" fill="#0967D2"/>
<circle id="Ellipse 35_8" cx="132.19" cy="153.626" r="3.57273" fill="#0967D2"/>
<circle id="Ellipse 36_8" cx="153.627" cy="153.626" r="3.57273" fill="#0967D2"/>
<circle id="Ellipse 37_8" cx="175.065" cy="153.626" r="3.57273" fill="#0967D2"/>
<circle id="Ellipse 38_8" cx="196.499" cy="153.626" r="3.57273" fill="#0967D2"/>
<circle id="Ellipse 39_8" cx="217.936" cy="153.626" r="3.57273" fill="#0967D2"/>
<circle id="Ellipse 40_8" cx="239.374" cy="153.626" r="3.57273" fill="#0967D2"/>
<circle id="Ellipse 41_8" cx="260.807" cy="153.626" r="3.57273" fill="#0967D2"/>
<circle id="Ellipse 42_8" cx="282.245" cy="153.626" r="3.57273" fill="#0967D2"/>
<circle id="Ellipse 43_8" cx="303.682" cy="153.626" r="3.57273" fill="#0967D2"/>
<circle id="Ellipse 44_8" cx="325.12" cy="153.626" r="3.57273" fill="#0967D2"/>
<circle id="Ellipse 45_8" cx="346.553" cy="153.626" r="3.57273" fill="#0967D2"/>
<circle id="Ellipse 46_8" cx="367.991" cy="153.626" r="3.57273" fill="#0967D2"/>
<circle id="Ellipse 47_8" cx="389.428" cy="153.626" r="3.57273" fill="#0967D2"/>
</g>
<g id="Group 870">
<circle id="Ellipse 29_9" cx="3.57273" cy="175.064" r="3.57273" fill="#0967D2"/>
<circle id="Ellipse 30_9" cx="25.0102" cy="175.063" r="3.57273" fill="#0967D2"/>
<circle id="Ellipse 31_9" cx="46.4438" cy="175.063" r="3.57273" fill="#0967D2"/>
<circle id="Ellipse 32_9" cx="67.8813" cy="175.063" r="3.57273" fill="#0967D2"/>
<circle id="Ellipse 33_9" cx="89.3188" cy="175.063" r="3.57273" fill="#0967D2"/>
<circle id="Ellipse 34_9" cx="110.756" cy="175.063" r="3.57273" fill="#0967D2"/>
<circle id="Ellipse 35_9" cx="132.19" cy="175.063" r="3.57273" fill="#0967D2"/>
<circle id="Ellipse 36_9" cx="153.627" cy="175.063" r="3.57273" fill="#0967D2"/>
<circle id="Ellipse 37_9" cx="175.065" cy="175.063" r="3.57273" fill="#0967D2"/>
<circle id="Ellipse 38_9" cx="196.499" cy="175.063" r="3.57273" fill="#0967D2"/>
<circle id="Ellipse 39_9" cx="217.936" cy="175.063" r="3.57273" fill="#0967D2"/>
<circle id="Ellipse 40_9" cx="239.374" cy="175.063" r="3.57273" fill="#0967D2"/>
<circle id="Ellipse 41_9" cx="260.807" cy="175.063" r="3.57273" fill="#0967D2"/>
<circle id="Ellipse 42_9" cx="282.245" cy="175.063" r="3.57273" fill="#0967D2"/>
<circle id="Ellipse 43_9" cx="303.682" cy="175.063" r="3.57273" fill="#0967D2"/>
<circle id="Ellipse 44_9" cx="325.12" cy="175.063" r="3.57273" fill="#0967D2"/>
<circle id="Ellipse 45_9" cx="346.553" cy="175.063" r="3.57273" fill="#0967D2"/>
<circle id="Ellipse 46_9" cx="367.991" cy="175.063" r="3.57273" fill="#0967D2"/>
<circle id="Ellipse 47_9" cx="389.428" cy="175.063" r="3.57273" fill="#0967D2"/>
</g>
<g id="Group 871">
<circle id="Ellipse 29_10" cx="3.57273" cy="196.5" r="3.57273" fill="#0967D2"/>
<circle id="Ellipse 30_10" cx="25.0102" cy="196.5" r="3.57273" fill="#0967D2"/>
<circle id="Ellipse 31_10" cx="46.4438" cy="196.5" r="3.57273" fill="#0967D2"/>
<circle id="Ellipse 32_10" cx="67.8813" cy="196.5" r="3.57273" fill="#0967D2"/>
<circle id="Ellipse 33_10" cx="89.3188" cy="196.5" r="3.57273" fill="#0967D2"/>
<circle id="Ellipse 34_10" cx="110.756" cy="196.5" r="3.57273" fill="#0967D2"/>
<circle id="Ellipse 35_10" cx="132.19" cy="196.5" r="3.57273" fill="#0967D2"/>
<circle id="Ellipse 36_10" cx="153.627" cy="196.5" r="3.57273" fill="#0967D2"/>
<circle id="Ellipse 37_10" cx="175.065" cy="196.5" r="3.57273" fill="#0967D2"/>
<circle id="Ellipse 38_10" cx="196.499" cy="196.5" r="3.57273" fill="#0967D2"/>
<circle id="Ellipse 39_10" cx="217.936" cy="196.5" r="3.57273" fill="#0967D2"/>
<circle id="Ellipse 40_10" cx="239.374" cy="196.5" r="3.57273" fill="#0967D2"/>
<circle id="Ellipse 41_10" cx="260.807" cy="196.5" r="3.57273" fill="#0967D2"/>
<circle id="Ellipse 42_10" cx="282.245" cy="196.5" r="3.57273" fill="#0967D2"/>
<circle id="Ellipse 43_10" cx="303.682" cy="196.5" r="3.57273" fill="#0967D2"/>
<circle id="Ellipse 44_10" cx="325.12" cy="196.5" r="3.57273" fill="#0967D2"/>
<circle id="Ellipse 45_10" cx="346.553" cy="196.5" r="3.57273" fill="#0967D2"/>
<circle id="Ellipse 46_10" cx="367.991" cy="196.5" r="3.57273" fill="#0967D2"/>
<circle id="Ellipse 47_10" cx="389.428" cy="196.5" r="3.57273" fill="#0967D2"/>
</g>
<g id="Group 872">
<circle id="Ellipse 29_11" cx="3.57273" cy="217.937" r="3.57273" fill="#0967D2"/>
<circle id="Ellipse 30_11" cx="25.0102" cy="217.937" r="3.57273" fill="#0967D2"/>
<circle id="Ellipse 31_11" cx="46.4438" cy="217.937" r="3.57273" fill="#0967D2"/>
<circle id="Ellipse 32_11" cx="67.8813" cy="217.937" r="3.57273" fill="#0967D2"/>
<circle id="Ellipse 33_11" cx="89.3188" cy="217.937" r="3.57273" fill="#0967D2"/>
<circle id="Ellipse 34_11" cx="110.756" cy="217.937" r="3.57273" fill="#0967D2"/>
<circle id="Ellipse 35_11" cx="132.19" cy="217.937" r="3.57273" fill="#0967D2"/>
<circle id="Ellipse 36_11" cx="153.627" cy="217.937" r="3.57273" fill="#0967D2"/>
<circle id="Ellipse 37_11" cx="175.065" cy="217.937" r="3.57273" fill="#0967D2"/>
<circle id="Ellipse 38_11" cx="196.499" cy="217.937" r="3.57273" fill="#0967D2"/>
<circle id="Ellipse 39_11" cx="217.936" cy="217.937" r="3.57273" fill="#0967D2"/>
<circle id="Ellipse 40_11" cx="239.374" cy="217.937" r="3.57273" fill="#0967D2"/>
<circle id="Ellipse 41_11" cx="260.807" cy="217.937" r="3.57273" fill="#0967D2"/>
<circle id="Ellipse 42_11" cx="282.245" cy="217.937" r="3.57273" fill="#0967D2"/>
<circle id="Ellipse 43_11" cx="303.682" cy="217.937" r="3.57273" fill="#0967D2"/>
<circle id="Ellipse 44_11" cx="325.12" cy="217.937" r="3.57273" fill="#0967D2"/>
<circle id="Ellipse 45_11" cx="346.553" cy="217.937" r="3.57273" fill="#0967D2"/>
<circle id="Ellipse 46_11" cx="367.991" cy="217.937" r="3.57273" fill="#0967D2"/>
<circle id="Ellipse 47_11" cx="389.428" cy="217.937" r="3.57273" fill="#0967D2"/>
</g>
<g id="Group 873">
<circle id="Ellipse 29_12" cx="3.57273" cy="239.373" r="3.57273" fill="#0967D2"/>
<circle id="Ellipse 30_12" cx="25.0102" cy="239.373" r="3.57273" fill="#0967D2"/>
<circle id="Ellipse 31_12" cx="46.4438" cy="239.373" r="3.57273" fill="#0967D2"/>
<circle id="Ellipse 32_12" cx="67.8813" cy="239.373" r="3.57273" fill="#0967D2"/>
<circle id="Ellipse 33_12" cx="89.3188" cy="239.373" r="3.57273" fill="#0967D2"/>
<circle id="Ellipse 34_12" cx="110.756" cy="239.373" r="3.57273" fill="#0967D2"/>
<circle id="Ellipse 35_12" cx="132.19" cy="239.373" r="3.57273" fill="#0967D2"/>
<circle id="Ellipse 36_12" cx="153.627" cy="239.373" r="3.57273" fill="#0967D2"/>
<circle id="Ellipse 37_12" cx="175.065" cy="239.373" r="3.57273" fill="#0967D2"/>
<circle id="Ellipse 38_12" cx="196.499" cy="239.373" r="3.57273" fill="#0967D2"/>
<circle id="Ellipse 39_12" cx="217.936" cy="239.373" r="3.57273" fill="#0967D2"/>
<circle id="Ellipse 40_12" cx="239.374" cy="239.373" r="3.57273" fill="#0967D2"/>
<circle id="Ellipse 41_12" cx="260.807" cy="239.373" r="3.57273" fill="#0967D2"/>
<circle id="Ellipse 42_12" cx="282.245" cy="239.373" r="3.57273" fill="#0967D2"/>
<circle id="Ellipse 43_12" cx="303.682" cy="239.373" r="3.57273" fill="#0967D2"/>
<circle id="Ellipse 44_12" cx="325.12" cy="239.373" r="3.57273" fill="#0967D2"/>
<circle id="Ellipse 45_12" cx="346.553" cy="239.373" r="3.57273" fill="#0967D2"/>
<circle id="Ellipse 46_12" cx="367.991" cy="239.373" r="3.57273" fill="#0967D2"/>
<circle id="Ellipse 47_12" cx="389.428" cy="239.373" r="3.57273" fill="#0967D2"/>
</g>
<g id="Group 874">
<circle id="Ellipse 29_13" cx="3.57273" cy="260.81" r="3.57273" fill="#0967D2"/>
<circle id="Ellipse 30_13" cx="25.0102" cy="260.809" r="3.57273" fill="#0967D2"/>
<circle id="Ellipse 31_13" cx="46.4438" cy="260.809" r="3.57273" fill="#0967D2"/>
<circle id="Ellipse 32_13" cx="67.8813" cy="260.809" r="3.57273" fill="#0967D2"/>
<circle id="Ellipse 33_13" cx="89.3188" cy="260.809" r="3.57273" fill="#0967D2"/>
<circle id="Ellipse 34_13" cx="110.756" cy="260.809" r="3.57273" fill="#0967D2"/>
<circle id="Ellipse 35_13" cx="132.19" cy="260.809" r="3.57273" fill="#0967D2"/>
<circle id="Ellipse 36_13" cx="153.627" cy="260.809" r="3.57273" fill="#0967D2"/>
<circle id="Ellipse 37_13" cx="175.065" cy="260.809" r="3.57273" fill="#0967D2"/>
<circle id="Ellipse 38_13" cx="196.499" cy="260.809" r="3.57273" fill="#0967D2"/>
<circle id="Ellipse 39_13" cx="217.936" cy="260.809" r="3.57273" fill="#0967D2"/>
<circle id="Ellipse 40_13" cx="239.374" cy="260.809" r="3.57273" fill="#0967D2"/>
<circle id="Ellipse 41_13" cx="260.807" cy="260.809" r="3.57273" fill="#0967D2"/>
<circle id="Ellipse 42_13" cx="282.245" cy="260.809" r="3.57273" fill="#0967D2"/>
<circle id="Ellipse 43_13" cx="303.682" cy="260.809" r="3.57273" fill="#0967D2"/>
<circle id="Ellipse 44_13" cx="325.12" cy="260.809" r="3.57273" fill="#0967D2"/>
<circle id="Ellipse 45_13" cx="346.553" cy="260.809" r="3.57273" fill="#0967D2"/>
<circle id="Ellipse 46_13" cx="367.991" cy="260.809" r="3.57273" fill="#0967D2"/>
<circle id="Ellipse 47_13" cx="389.428" cy="260.809" r="3.57273" fill="#0967D2"/>
</g>
<g id="Group 875">
<circle id="Ellipse 29_14" cx="3.57273" cy="282.245" r="3.57273" fill="#0967D2"/>
<circle id="Ellipse 30_14" cx="25.0102" cy="282.245" r="3.57273" fill="#0967D2"/>
<circle id="Ellipse 31_14" cx="46.4438" cy="282.245" r="3.57273" fill="#0967D2"/>
<circle id="Ellipse 32_14" cx="67.8813" cy="282.245" r="3.57273" fill="#0967D2"/>
<circle id="Ellipse 33_14" cx="89.3188" cy="282.245" r="3.57273" fill="#0967D2"/>
<circle id="Ellipse 34_14" cx="110.756" cy="282.245" r="3.57273" fill="#0967D2"/>
<circle id="Ellipse 35_14" cx="132.19" cy="282.245" r="3.57273" fill="#0967D2"/>
<circle id="Ellipse 36_14" cx="153.627" cy="282.245" r="3.57273" fill="#0967D2"/>
<circle id="Ellipse 37_14" cx="175.065" cy="282.245" r="3.57273" fill="#0967D2"/>
<circle id="Ellipse 38_14" cx="196.499" cy="282.245" r="3.57273" fill="#0967D2"/>
<circle id="Ellipse 39_14" cx="217.936" cy="282.245" r="3.57273" fill="#0967D2"/>
<circle id="Ellipse 40_14" cx="239.374" cy="282.245" r="3.57273" fill="#0967D2"/>
<circle id="Ellipse 41_14" cx="260.807" cy="282.245" r="3.57273" fill="#0967D2"/>
<circle id="Ellipse 42_14" cx="282.245" cy="282.245" r="3.57273" fill="#0967D2"/>
<circle id="Ellipse 43_14" cx="303.682" cy="282.245" r="3.57273" fill="#0967D2"/>
<circle id="Ellipse 44_14" cx="325.12" cy="282.245" r="3.57273" fill="#0967D2"/>
<circle id="Ellipse 45_14" cx="346.553" cy="282.245" r="3.57273" fill="#0967D2"/>
<circle id="Ellipse 46_14" cx="367.991" cy="282.245" r="3.57273" fill="#0967D2"/>
<circle id="Ellipse 47_14" cx="389.428" cy="282.245" r="3.57273" fill="#0967D2"/>
</g>
<g id="Group 876">
<circle id="Ellipse 29_15" cx="3.57273" cy="303.682" r="3.57273" fill="#0967D2"/>
<circle id="Ellipse 30_15" cx="25.0102" cy="303.682" r="3.57273" fill="#0967D2"/>
<circle id="Ellipse 31_15" cx="46.4438" cy="303.682" r="3.57273" fill="#0967D2"/>
<circle id="Ellipse 32_15" cx="67.8813" cy="303.682" r="3.57273" fill="#0967D2"/>
<circle id="Ellipse 33_15" cx="89.3188" cy="303.682" r="3.57273" fill="#0967D2"/>
<circle id="Ellipse 34_15" cx="110.756" cy="303.682" r="3.57273" fill="#0967D2"/>
<circle id="Ellipse 35_15" cx="132.19" cy="303.682" r="3.57273" fill="#0967D2"/>
<circle id="Ellipse 36_15" cx="153.627" cy="303.682" r="3.57273" fill="#0967D2"/>
<circle id="Ellipse 37_15" cx="175.065" cy="303.682" r="3.57273" fill="#0967D2"/>
<circle id="Ellipse 38_15" cx="196.499" cy="303.682" r="3.57273" fill="#0967D2"/>
<circle id="Ellipse 39_15" cx="217.936" cy="303.682" r="3.57273" fill="#0967D2"/>
<circle id="Ellipse 40_15" cx="239.374" cy="303.682" r="3.57273" fill="#0967D2"/>
<circle id="Ellipse 41_15" cx="260.807" cy="303.682" r="3.57273" fill="#0967D2"/>
<circle id="Ellipse 42_15" cx="282.245" cy="303.682" r="3.57273" fill="#0967D2"/>
<circle id="Ellipse 43_15" cx="303.682" cy="303.682" r="3.57273" fill="#0967D2"/>
<circle id="Ellipse 44_15" cx="325.12" cy="303.682" r="3.57273" fill="#0967D2"/>
<circle id="Ellipse 45_15" cx="346.553" cy="303.682" r="3.57273" fill="#0967D2"/>
<circle id="Ellipse 46_15" cx="367.991" cy="303.682" r="3.57273" fill="#0967D2"/>
<circle id="Ellipse 47_15" cx="389.428" cy="303.682" r="3.57273" fill="#0967D2"/>
</g>
<g id="Group 877">
<circle id="Ellipse 29_16" cx="3.57273" cy="325.118" r="3.57273" fill="#0967D2"/>
<circle id="Ellipse 30_16" cx="25.0102" cy="325.118" r="3.57273" fill="#0967D2"/>
<circle id="Ellipse 31_16" cx="46.4438" cy="325.118" r="3.57273" fill="#0967D2"/>
<circle id="Ellipse 32_16" cx="67.8813" cy="325.118" r="3.57273" fill="#0967D2"/>
<circle id="Ellipse 33_16" cx="89.3188" cy="325.118" r="3.57273" fill="#0967D2"/>
<circle id="Ellipse 34_16" cx="110.756" cy="325.118" r="3.57273" fill="#0967D2"/>
<circle id="Ellipse 35_16" cx="132.19" cy="325.118" r="3.57273" fill="#0967D2"/>
<circle id="Ellipse 36_16" cx="153.627" cy="325.118" r="3.57273" fill="#0967D2"/>
<circle id="Ellipse 37_16" cx="175.065" cy="325.118" r="3.57273" fill="#0967D2"/>
<circle id="Ellipse 38_16" cx="196.499" cy="325.118" r="3.57273" fill="#0967D2"/>
<circle id="Ellipse 39_16" cx="217.936" cy="325.118" r="3.57273" fill="#0967D2"/>
<circle id="Ellipse 40_16" cx="239.374" cy="325.118" r="3.57273" fill="#0967D2"/>
<circle id="Ellipse 41_16" cx="260.807" cy="325.118" r="3.57273" fill="#0967D2"/>
<circle id="Ellipse 42_16" cx="282.245" cy="325.118" r="3.57273" fill="#0967D2"/>
<circle id="Ellipse 43_16" cx="303.682" cy="325.118" r="3.57273" fill="#0967D2"/>
<circle id="Ellipse 44_16" cx="325.12" cy="325.118" r="3.57273" fill="#0967D2"/>
<circle id="Ellipse 45_16" cx="346.553" cy="325.118" r="3.57273" fill="#0967D2"/>
<circle id="Ellipse 46_16" cx="367.991" cy="325.118" r="3.57273" fill="#0967D2"/>
<circle id="Ellipse 47_16" cx="389.428" cy="325.118" r="3.57273" fill="#0967D2"/>
</g>
<g id="Group 878">
<circle id="Ellipse 29_17" cx="3.57273" cy="346.555" r="3.57273" fill="#0967D2"/>
<circle id="Ellipse 30_17" cx="25.0102" cy="346.554" r="3.57273" fill="#0967D2"/>
<circle id="Ellipse 31_17" cx="46.4438" cy="346.554" r="3.57273" fill="#0967D2"/>
<circle id="Ellipse 32_17" cx="67.8813" cy="346.554" r="3.57273" fill="#0967D2"/>
<circle id="Ellipse 33_17" cx="89.3188" cy="346.554" r="3.57273" fill="#0967D2"/>
<circle id="Ellipse 34_17" cx="110.756" cy="346.554" r="3.57273" fill="#0967D2"/>
<circle id="Ellipse 35_17" cx="132.19" cy="346.554" r="3.57273" fill="#0967D2"/>
<circle id="Ellipse 36_17" cx="153.627" cy="346.554" r="3.57273" fill="#0967D2"/>
<circle id="Ellipse 37_17" cx="175.065" cy="346.554" r="3.57273" fill="#0967D2"/>
<circle id="Ellipse 38_17" cx="196.499" cy="346.554" r="3.57273" fill="#0967D2"/>
<circle id="Ellipse 39_17" cx="217.936" cy="346.554" r="3.57273" fill="#0967D2"/>
<circle id="Ellipse 40_17" cx="239.374" cy="346.554" r="3.57273" fill="#0967D2"/>
<circle id="Ellipse 41_17" cx="260.807" cy="346.554" r="3.57273" fill="#0967D2"/>
<circle id="Ellipse 42_17" cx="282.245" cy="346.554" r="3.57273" fill="#0967D2"/>
<circle id="Ellipse 43_17" cx="303.682" cy="346.554" r="3.57273" fill="#0967D2"/>
<circle id="Ellipse 44_17" cx="325.12" cy="346.554" r="3.57273" fill="#0967D2"/>
<circle id="Ellipse 45_17" cx="346.553" cy="346.554" r="3.57273" fill="#0967D2"/>
<circle id="Ellipse 46_17" cx="367.991" cy="346.554" r="3.57273" fill="#0967D2"/>
<circle id="Ellipse 47_17" cx="389.428" cy="346.554" r="3.57273" fill="#0967D2"/>
</g>
<g id="Group 879">
<circle id="Ellipse 29_18" cx="3.57273" cy="367.992" r="3.57273" fill="#0967D2"/>
<circle id="Ellipse 30_18" cx="25.0102" cy="367.991" r="3.57273" fill="#0967D2"/>
<circle id="Ellipse 31_18" cx="46.4438" cy="367.991" r="3.57273" fill="#0967D2"/>
<circle id="Ellipse 32_18" cx="67.8813" cy="367.991" r="3.57273" fill="#0967D2"/>
<circle id="Ellipse 33_18" cx="89.3188" cy="367.991" r="3.57273" fill="#0967D2"/>
<circle id="Ellipse 34_18" cx="110.756" cy="367.991" r="3.57273" fill="#0967D2"/>
<circle id="Ellipse 35_18" cx="132.19" cy="367.991" r="3.57273" fill="#0967D2"/>
<circle id="Ellipse 36_18" cx="153.627" cy="367.991" r="3.57273" fill="#0967D2"/>
<circle id="Ellipse 37_18" cx="175.065" cy="367.991" r="3.57273" fill="#0967D2"/>
<circle id="Ellipse 38_18" cx="196.499" cy="367.991" r="3.57273" fill="#0967D2"/>
<circle id="Ellipse 39_18" cx="217.936" cy="367.991" r="3.57273" fill="#0967D2"/>
<circle id="Ellipse 40_18" cx="239.374" cy="367.991" r="3.57273" fill="#0967D2"/>
<circle id="Ellipse 41_18" cx="260.807" cy="367.991" r="3.57273" fill="#0967D2"/>
<circle id="Ellipse 42_18" cx="282.245" cy="367.991" r="3.57273" fill="#0967D2"/>
<circle id="Ellipse 43_18" cx="303.682" cy="367.991" r="3.57273" fill="#0967D2"/>
<circle id="Ellipse 44_18" cx="325.12" cy="367.991" r="3.57273" fill="#0967D2"/>
<circle id="Ellipse 45_18" cx="346.553" cy="367.991" r="3.57273" fill="#0967D2"/>
<circle id="Ellipse 46_18" cx="367.991" cy="367.991" r="3.57273" fill="#0967D2"/>
<circle id="Ellipse 47_18" cx="389.428" cy="367.991" r="3.57273" fill="#0967D2"/>
</g>
<g id="Group 880">
<circle id="Ellipse 29_19" cx="3.57273" cy="389.427" r="3.57273" fill="#0967D2"/>
<circle id="Ellipse 30_19" cx="25.0102" cy="389.427" r="3.57273" fill="#0967D2"/>
<circle id="Ellipse 31_19" cx="46.4438" cy="389.427" r="3.57273" fill="#0967D2"/>
<circle id="Ellipse 32_19" cx="67.8813" cy="389.427" r="3.57273" fill="#0967D2"/>
<circle id="Ellipse 33_19" cx="89.3188" cy="389.427" r="3.57273" fill="#0967D2"/>
<circle id="Ellipse 34_19" cx="110.756" cy="389.427" r="3.57273" fill="#0967D2"/>
<circle id="Ellipse 35_19" cx="132.19" cy="389.427" r="3.57273" fill="#0967D2"/>
<circle id="Ellipse 36_19" cx="153.627" cy="389.427" r="3.57273" fill="#0967D2"/>
<circle id="Ellipse 37_19" cx="175.065" cy="389.427" r="3.57273" fill="#0967D2"/>
<circle id="Ellipse 38_19" cx="196.499" cy="389.427" r="3.57273" fill="#0967D2"/>
<circle id="Ellipse 39_19" cx="217.936" cy="389.427" r="3.57273" fill="#0967D2"/>
<circle id="Ellipse 40_19" cx="239.374" cy="389.427" r="3.57273" fill="#0967D2"/>
<circle id="Ellipse 41_19" cx="260.807" cy="389.427" r="3.57273" fill="#0967D2"/>
<circle id="Ellipse 42_19" cx="282.245" cy="389.427" r="3.57273" fill="#0967D2"/>
<circle id="Ellipse 43_19" cx="303.682" cy="389.427" r="3.57273" fill="#0967D2"/>
<circle id="Ellipse 44_19" cx="325.12" cy="389.427" r="3.57273" fill="#0967D2"/>
<circle id="Ellipse 45_19" cx="346.553" cy="389.427" r="3.57273" fill="#0967D2"/>
<circle id="Ellipse 46_19" cx="367.991" cy="389.427" r="3.57273" fill="#0967D2"/>
<circle id="Ellipse 47_19" cx="389.428" cy="389.427" r="3.57273" fill="#0967D2"/>
</g>
<g id="Group 881">
<circle id="Ellipse 29_20" cx="3.57273" cy="410.864" r="3.57273" fill="#0967D2"/>
<circle id="Ellipse 30_20" cx="25.0102" cy="410.864" r="3.57273" fill="#0967D2"/>
<circle id="Ellipse 31_20" cx="46.4438" cy="410.864" r="3.57273" fill="#0967D2"/>
<circle id="Ellipse 32_20" cx="67.8813" cy="410.864" r="3.57273" fill="#0967D2"/>
<circle id="Ellipse 33_20" cx="89.3188" cy="410.864" r="3.57273" fill="#0967D2"/>
<circle id="Ellipse 34_20" cx="110.756" cy="410.864" r="3.57273" fill="#0967D2"/>
<circle id="Ellipse 35_20" cx="132.19" cy="410.864" r="3.57273" fill="#0967D2"/>
<circle id="Ellipse 36_20" cx="153.627" cy="410.864" r="3.57273" fill="#0967D2"/>
<circle id="Ellipse 37_20" cx="175.065" cy="410.864" r="3.57273" fill="#0967D2"/>
<circle id="Ellipse 38_20" cx="196.499" cy="410.864" r="3.57273" fill="#0967D2"/>
<circle id="Ellipse 39_20" cx="217.936" cy="410.864" r="3.57273" fill="#0967D2"/>
<circle id="Ellipse 40_20" cx="239.374" cy="410.864" r="3.57273" fill="#0967D2"/>
<circle id="Ellipse 41_20" cx="260.807" cy="410.864" r="3.57273" fill="#0967D2"/>
<circle id="Ellipse 42_20" cx="282.245" cy="410.864" r="3.57273" fill="#0967D2"/>
<circle id="Ellipse 43_20" cx="303.682" cy="410.864" r="3.57273" fill="#0967D2"/>
<circle id="Ellipse 44_20" cx="325.12" cy="410.864" r="3.57273" fill="#0967D2"/>
<circle id="Ellipse 45_20" cx="346.553" cy="410.864" r="3.57273" fill="#0967D2"/>
<circle id="Ellipse 46_20" cx="367.991" cy="410.864" r="3.57273" fill="#0967D2"/>
<circle id="Ellipse 47_20" cx="389.428" cy="410.864" r="3.57273" fill="#0967D2"/>
</g>
<g id="Group 882">
<circle id="Ellipse 29_21" cx="3.57273" cy="432.299" r="3.57273" fill="#0967D2"/>
<circle id="Ellipse 30_21" cx="25.0102" cy="432.299" r="3.57273" fill="#0967D2"/>
<circle id="Ellipse 31_21" cx="46.4438" cy="432.299" r="3.57273" fill="#0967D2"/>
<circle id="Ellipse 32_21" cx="67.8813" cy="432.299" r="3.57273" fill="#0967D2"/>
<circle id="Ellipse 33_21" cx="89.3188" cy="432.299" r="3.57273" fill="#0967D2"/>
<circle id="Ellipse 34_21" cx="110.756" cy="432.299" r="3.57273" fill="#0967D2"/>
<circle id="Ellipse 35_21" cx="132.19" cy="432.299" r="3.57273" fill="#0967D2"/>
<circle id="Ellipse 36_21" cx="153.627" cy="432.299" r="3.57273" fill="#0967D2"/>
<circle id="Ellipse 37_21" cx="175.065" cy="432.299" r="3.57273" fill="#0967D2"/>
<circle id="Ellipse 38_21" cx="196.499" cy="432.299" r="3.57273" fill="#0967D2"/>
<circle id="Ellipse 39_21" cx="217.936" cy="432.299" r="3.57273" fill="#0967D2"/>
<circle id="Ellipse 40_21" cx="239.374" cy="432.299" r="3.57273" fill="#0967D2"/>
<circle id="Ellipse 41_21" cx="260.807" cy="432.299" r="3.57273" fill="#0967D2"/>
<circle id="Ellipse 42_21" cx="282.245" cy="432.299" r="3.57273" fill="#0967D2"/>
<circle id="Ellipse 43_21" cx="303.682" cy="432.299" r="3.57273" fill="#0967D2"/>
<circle id="Ellipse 44_21" cx="325.12" cy="432.299" r="3.57273" fill="#0967D2"/>
<circle id="Ellipse 45_21" cx="346.553" cy="432.299" r="3.57273" fill="#0967D2"/>
<circle id="Ellipse 46_21" cx="367.991" cy="432.299" r="3.57273" fill="#0967D2"/>
<circle id="Ellipse 47_21" cx="389.428" cy="432.299" r="3.57273" fill="#0967D2"/>
</g>
</g>
</svg>
