<svg width="85" height="85" viewBox="0 0 85 85" fill="none" xmlns="http://www.w3.org/2000/svg">
<path d="M45.1773 56.7814C45.362 61.3948 44.4163 64.1444 43.1097 65.4844C41.803 66.8243 40.1749 65.2851 41.68 63.9161C43.1851 62.547 43.2104 60.7354 43.0557 56.8688L43.0298 56.2096C42.9726 54.6817 42.9099 53.05 42.6467 51.2818C42.4676 51.0256 42.4044 50.6982 42.497 50.3793C42.1652 48.5897 41.6014 46.6589 40.6238 44.5499C40.4577 44.6698 40.2547 44.7439 40.0338 44.7509L40.0307 44.7509C40.0066 44.7515 39.947 44.7529 39.8557 44.7529C38.7033 44.7529 32.4361 44.5339 26.8506 39.9877C23.6973 37.4206 21.8132 32.9767 21.8127 28.1001C21.8127 23.9902 23.2381 20.3763 25.6277 18.4314C25.8695 18.2339 26.1869 18.1523 26.4933 18.211C26.8008 18.2687 27.0665 18.4588 27.2207 18.7304C28.1218 20.3158 30.2974 21.3389 32.0457 22.1611L32.048 22.1622C32.6003 22.4209 33.1222 22.6672 33.5615 22.911C42.4461 27.8421 42.772 37.8948 42.7814 38.3207C42.7944 38.9073 42.3292 39.3923 41.7436 39.4058C41.1436 39.4073 40.672 38.955 40.6586 38.369C40.6551 38.2505 40.3198 29.0907 32.5307 24.7678C32.1585 24.5613 31.6755 24.3339 31.1624 24.0923L31.1441 24.0837C29.5755 23.3469 27.5327 22.3857 26.167 20.8678C24.754 22.534 23.9361 25.1444 23.9361 28.1001C23.9372 32.2812 25.5665 36.2052 28.1913 38.3414C32.9237 42.1937 38.2815 42.5857 39.6386 42.625C38.05 39.7893 35.6894 36.6449 32.156 33.1121C31.7416 32.6977 31.7416 32.0266 32.156 31.6117C32.5715 31.1972 33.2426 31.1972 33.6575 31.6117C39.6789 37.6311 42.4848 42.6988 43.8291 46.9908C45.4395 43.3724 48.4375 37.9405 52.4137 36.5082C52.9644 36.3097 53.5734 36.5962 53.7709 37.1475C53.9704 37.6992 53.6828 38.3072 53.1316 38.5057C50.5788 39.4251 48.2927 42.7997 46.6758 45.9585C48.8818 45.8838 54.1679 45.2948 57.546 41.5744C60.0038 38.8669 61.3003 34.4086 60.849 30.2161C60.6102 27.9967 59.8804 26.1066 58.7963 24.824C57.7112 26.7191 55.6231 28.5603 54.6709 29.1688C47.4047 33.8091 47.1535 39.142 47.1515 39.1947C47.1326 39.7808 46.6341 40.2504 46.0565 40.2211C45.4709 40.2032 45.0112 39.7131 45.0296 39.127C45.038 38.8639 45.329 32.6161 53.5285 27.3803C54.8674 26.5251 57.1097 24.1435 57.3465 22.8211C57.4107 22.4629 57.6525 22.1619 57.9898 22.0251C58.3276 21.8873 58.7112 21.9325 59.0067 22.1435C61.1774 23.6893 62.5813 26.4754 62.96 29.9878C63.4734 34.757 61.9654 39.8655 59.1177 43.0018C54.8584 47.6933 48.3166 48.0948 46.1992 48.0948C45.9574 48.0948 45.7813 48.0898 45.6649 48.0848C45.2489 49.0301 44.9181 49.8789 44.6778 50.557C45.0181 52.6107 45.0892 54.4614 45.1514 56.1296L45.1773 56.7814Z" fill="#111111"/>
<rect x="0.75" y="0.75" width="83.5" height="83.5" rx="41.75" stroke="#111111" stroke-width="1.5"/>
</svg>
