<svg width="85" height="85" viewBox="0 0 85 85" fill="none" xmlns="http://www.w3.org/2000/svg">
<path d="M20.6201 61.1386C20.6201 61.1386 27.1029 53.0352 43.3098 53.0352C59.5167 53.0352 65.9994 61.1386 65.9994 61.1386" stroke="black" stroke-width="1.5" stroke-linecap="round"/>
<path d="M25.6631 66.0003C25.6631 66.0003 31.1558 59.5176 43.3106 59.5176C55.4654 59.5176 60.9581 66.0003 60.9581 66.0003" stroke="black" stroke-width="1.5" stroke-linecap="round"/>
<path d="M33.2246 69.2424C33.2246 69.2424 36.0151 66.001 43.3089 66.001C50.6027 66.001 53.3932 69.2424 53.3932 69.2424" stroke="black" stroke-width="1.5" stroke-linecap="round"/>
<path d="M31.5456 43.8864L31.5441 43.8853C28.6357 41.7088 28.1782 38.3692 28.9222 35.3009C29.2934 33.7697 29.9585 32.348 30.7275 31.2482C30.9327 30.9547 31.1408 30.6905 31.3477 30.4564C31.3446 30.6584 31.3547 30.8617 31.379 31.0631C31.525 32.2746 32.1977 33.5361 33.7167 34.1899C34.2117 34.4477 34.8891 34.4915 35.5228 34.4139C36.2053 34.3304 36.9707 34.0911 37.6667 33.6527C38.3676 33.2113 39.0073 32.5612 39.4017 31.6622C39.7969 30.7614 39.9231 29.6625 39.68 28.3622L39.6777 28.3496L39.6749 28.3372C39.6146 28.0661 39.4962 27.696 39.3675 27.2942C39.3588 27.2668 39.35 27.2393 39.3411 27.2116C39.1968 26.7602 39.0283 26.2297 38.8654 25.6325C38.5391 24.4369 38.2407 22.9939 38.2148 21.4604C38.1699 18.7939 38.942 15.8326 41.938 13.3989C42.011 13.9469 42.2395 14.5034 42.6532 15.1505C43.5542 16.5599 45.4897 18.6273 49.29 22.3187C49.4521 22.4907 49.6722 22.7043 49.9347 22.9593C50.8699 23.8674 52.3444 25.2991 53.6643 27.235C55.3476 29.7038 56.6751 32.8639 56.1228 36.4962C55.9242 37.6783 54.9525 40.2618 53.0226 42.4696C51.5083 44.202 49.4358 45.6709 46.7065 46.0735C47.458 45.3407 48.2769 44.345 48.8843 43.1135C49.5353 41.7936 49.9445 40.199 49.7589 38.3811C49.5734 36.5634 48.7986 34.5763 47.1674 32.4626L46.0435 31.0063L45.8288 32.8332C45.7624 33.3976 45.3943 34.242 44.7225 35.1763C44.0637 36.0924 43.164 37.0231 42.1338 37.7649L42.1238 37.772L42.1141 37.7795C42.0201 37.852 41.9193 37.9289 41.813 38.01C40.7789 38.7986 39.2212 39.9867 38.3199 41.3797C37.8104 42.1671 37.4583 43.0945 37.5788 44.108C37.6596 44.787 37.9448 45.4418 38.4426 46.0676C38.1494 46.1182 37.7998 46.1544 37.3994 46.1544C36.0246 46.1544 33.9938 45.7279 31.5456 43.8864Z" stroke="#111111" stroke-width="1.5"/>
<rect x="0.75" y="0.75" width="83.5" height="83.4999" rx="41.75" stroke="#111111" stroke-width="1.5"/>
</svg>
