<svg width="85" height="85" viewBox="0 0 85 85" fill="none" xmlns="http://www.w3.org/2000/svg">
<path d="M34.2055 28.6507C34.2096 26.4752 34.9723 24.3557 36.3548 22.6812L36.3548 22.6812C36.6729 22.2955 36.6184 21.725 36.2328 21.4069L36.2328 21.4069C35.8476 21.0891 35.2771 21.1434 34.9586 21.5288L34.9586 21.5289C33.3057 23.5319 32.3954 26.0673 32.3954 28.6687C32.3954 31.2928 33.3198 33.8454 34.9987 35.8571L34.9987 35.8571C36.4064 37.5434 37.1818 39.6841 37.1818 41.8849C37.1818 44.0667 36.4183 46.1932 35.0325 47.8723L35.0325 47.8723C34.7144 48.258 34.7689 48.8285 35.1544 49.1466L35.1545 49.1467C35.3233 49.2856 35.5273 49.3535 35.7305 49.3535C35.9911 49.3535 36.2501 49.2415 36.4291 49.0247L36.4291 49.0246C38.082 47.0217 38.9925 44.4863 38.9925 41.8848C38.9925 39.2607 38.0681 36.7081 36.3892 34.6964L36.3892 34.6964C34.981 33.0101 34.2055 30.8696 34.2055 28.6686V28.6507Z" fill="#111111" stroke="#111111" stroke-width="0.1"/>
<path d="M41.2955 28.6772L41.2955 28.6772V28.6686C41.2955 26.4868 42.059 24.3603 43.4449 22.6812L43.4449 22.6812C43.7629 22.2955 43.7084 21.725 43.3229 21.4069L43.3229 21.4069C42.9376 21.0891 42.3671 21.1434 42.0486 21.5288L42.0486 21.5289C40.3958 23.5319 39.4852 26.0673 39.4852 28.6687C39.4852 31.2928 40.4097 33.8454 42.0885 35.8571L42.0885 35.8571C43.4963 37.5434 44.2717 39.6841 44.2717 41.8849C44.2717 44.0667 43.5086 46.1932 42.1223 47.8723L42.1223 47.8724C41.8043 48.258 41.8588 48.8285 42.2443 49.1466L42.2443 49.1467C42.4134 49.2858 42.6174 49.3537 42.8203 49.3537C43.081 49.3537 43.3399 49.2417 43.519 49.0249L43.519 49.0249C45.1719 47.0219 46.0824 44.4865 46.0824 41.8851C46.0824 39.261 45.1579 36.7083 43.4791 34.6966L43.4791 34.6966C42.0729 33.0125 41.2975 30.8753 41.2955 28.6772Z" fill="#111111" stroke="#111111" stroke-width="0.1"/>
<path d="M53.1761 41.8868C53.1759 39.298 52.2761 36.779 50.6402 34.7804H50.6409L50.5724 34.6984C49.1647 33.0123 48.3893 30.8713 48.3893 28.6705C48.3893 26.4887 49.1528 24.3623 50.5386 22.6831L50.5386 22.6831C50.8567 22.2974 50.8022 21.7269 50.4167 21.4088L50.4167 21.4088C50.0314 21.091 49.4609 21.1453 49.1424 21.5308L49.1424 21.5308C47.4895 23.5338 46.579 26.0692 46.579 28.6706C46.579 31.2947 47.5034 33.8473 49.1823 35.859L49.1823 35.859C50.59 37.5453 51.3654 39.6861 51.3654 41.8869C51.3654 44.0687 50.6019 46.1951 49.2161 47.8743L49.2161 47.8743C48.898 48.26 48.9525 48.8305 49.338 49.1486L49.3381 49.1486C49.5072 49.2875 49.7111 49.3555 49.9141 49.3555C50.1747 49.3555 50.4337 49.2434 50.6127 49.0266L50.6127 49.0266C52.2656 47.0236 53.1761 44.4882 53.1761 41.8868Z" fill="#111111" stroke="#111111" stroke-width="0.1"/>
<path d="M17.633 58.159V58.234H17.708H69.0622H69.1372V58.159V56.3882V56.3132H69.0622H17.708H17.633V56.3882V58.159ZM21.1933 65.2056L21.2421 65.2626L21.2991 65.2138L25.3329 61.7568L25.3899 61.708L25.3411 61.651L24.1887 60.3064L24.1399 60.2495L24.083 60.2983L20.0491 63.7552L19.9922 63.804L20.041 63.861L21.1933 65.2056ZM31.1366 61.7568L31.1935 61.708L31.1447 61.651L29.9924 60.3064L29.9436 60.2495L29.8866 60.2983L25.8528 63.7552L25.7958 63.804L25.8446 63.861L26.997 65.2056L27.0458 65.2626L27.1027 65.2138L31.1366 61.7568ZM32.8006 65.2056L32.8494 65.2626L32.9063 65.2138L36.9402 61.7568L36.9971 61.708L36.9483 61.651L35.796 60.3064L35.7472 60.2495L35.6902 60.2983L31.6564 63.7552L31.5994 63.804L31.6483 63.861L32.8006 65.2056ZM42.7438 61.7568L42.8008 61.708L42.752 61.651L41.5996 60.3064L41.5508 60.2495L41.4939 60.2983L37.46 63.7552L37.4031 63.804L37.4519 63.861L38.6042 65.2056L38.653 65.2626L38.71 65.2138L42.7438 61.7568ZM49.5267 65.2056L49.5755 65.2626L49.6324 65.2138L53.6663 61.7568L53.7232 61.708L53.6744 61.651L52.5221 60.3064L52.4733 60.2495L52.4163 60.2983L48.3825 63.7552L48.3255 63.804L48.3743 63.861L49.5267 65.2056ZM48.5474 61.7568L48.6044 61.708L48.5556 61.651L47.4033 60.3064L47.3545 60.2495L47.2975 60.2983L43.2637 63.7552L43.2067 63.804L43.2555 63.861L44.4078 65.2056L44.4566 65.2626L44.5136 65.2138L48.5474 61.7568ZM55.3303 65.2056L55.3791 65.2626L55.436 65.2138L59.4699 61.7568L59.5268 61.708L59.478 61.651L58.3257 60.3064L58.2769 60.2495L58.22 60.2983L54.1861 63.7552L54.1292 63.804L54.178 63.861L55.3303 65.2056ZM60.6428 65.2057L60.6916 65.2626L60.7485 65.2138L64.7824 61.7568L64.8393 61.708L64.7905 61.6511L63.6382 60.3065L63.5894 60.2495L63.5325 60.2983L59.4986 63.7553L59.4417 63.8041L59.4905 63.861L60.6428 65.2057Z" fill="#111111" stroke="#111111" stroke-width="0.15"/>
<rect x="0.75" y="0.75" width="83.5" height="83.5" rx="41.75" stroke="#111111" stroke-width="1.5"/>
</svg>
