<svg width="85" height="85" viewBox="0 0 85 85" fill="none" xmlns="http://www.w3.org/2000/svg">
<path d="M55.9295 13.7335C55.6057 12.8538 54.8472 12.2564 53.9052 12.1383C52.9402 12.0169 52.0012 12.4368 51.4518 13.2305C48.0178 18.2153 46.0144 24.8172 45.8073 25.5119C45.637 25.8341 45.4702 26.155 45.3054 26.4716C36.1503 44.0219 33.3539 54.1594 33.3254 54.2599C33.2724 54.4522 33.3408 54.6589 33.4959 54.7861C33.631 54.8981 33.8124 54.9291 33.9766 54.8747C33.9995 54.8672 34.0247 54.8553 34.0465 54.8443C41.2695 51.1546 45.947 45.0083 48.5994 40.5005C51.468 35.6224 52.6224 31.6724 52.6698 31.5072C52.7095 31.3739 52.69 31.2275 52.617 31.1058C51.457 29.1628 49.683 28.1038 48.9416 27.723C49.0329 27.0084 49.3164 26.3354 49.767 25.7604C52.5494 22.2072 54.0797 19.3706 54.1909 17.5605C54.225 17.0141 54.5167 16.5315 54.9699 16.2723L55.0004 16.2548C55.8344 15.7823 56.2457 14.7905 55.9753 13.8968C55.9649 13.8423 55.9465 13.7864 55.9291 13.734L55.9295 13.7335ZM47.9978 27.256L46.4473 26.4764C46.5406 26.2962 46.635 26.1194 46.7318 25.938C46.7471 25.9076 46.7625 25.8768 46.769 25.8419C46.768 25.8387 46.7746 25.8256 46.7789 25.8058L48.203 26.5219C48.1149 26.7621 48.0464 27.0067 47.9978 27.256L47.9978 27.256ZM51.6318 31.4388C51.3521 32.3215 50.155 35.8673 47.7133 40.0105C45.265 44.1669 41.0504 49.7523 34.6583 53.3672C35.6349 50.2877 38.8047 41.1919 45.9772 27.3776L48.1831 28.4867C48.1873 28.4889 48.1919 28.4912 48.1962 28.4933C48.2004 28.4955 48.2093 28.4999 48.2135 28.5021C48.2331 28.5068 50.3235 29.399 51.6318 31.4386L51.6318 31.4388ZM54.5061 15.3735L54.4756 15.3909C53.7213 15.8188 53.2399 16.6083 53.1843 17.4968C53.1266 18.4117 52.5072 20.6229 48.9748 25.1341C48.8542 25.2868 48.7501 25.4452 48.648 25.61L47.0886 24.826C47.792 22.7036 49.6145 17.6801 52.2843 13.8076C52.4806 13.5206 52.7598 13.3188 53.078 13.2135C53.298 13.1407 53.5373 13.1162 53.7768 13.1462C54.3352 13.2164 54.7859 13.5662 54.9761 14.0856L55.0119 14.1939C55.1465 14.6338 54.9322 15.1306 54.5064 15.3736L54.5061 15.3735Z" fill="#111111"/>
<path fill-rule="evenodd" clip-rule="evenodd" d="M56.2666 13.824C56.5706 14.8537 56.0948 15.9792 55.1487 16.5156L55.1187 16.5327C54.7583 16.7388 54.5184 17.1274 54.4902 17.5789C54.4306 18.5486 53.9962 19.756 53.2445 21.1492C52.4896 22.5485 51.4008 24.1605 50.0031 25.9454C49.6283 26.4236 49.379 26.9736 49.2708 27.558C50.1166 28.0195 51.7642 29.0924 52.8744 30.9521C52.9889 31.1432 53.0214 31.3755 52.9576 31.5912L52.958 31.59L52.6696 31.5072L52.9571 31.5929L52.9576 31.5912C52.901 31.7881 51.7369 35.7568 48.8579 40.6526C46.1908 45.1851 41.4771 51.3854 34.1828 55.1114L34.1818 55.112C34.1573 55.1243 34.1157 55.1447 34.0707 55.1596C33.812 55.2452 33.5222 55.1974 33.3049 55.0176C33.0614 54.8174 32.9506 54.49 33.036 54.1802L33.0366 54.178L33.0397 54.1669L33.0474 54.1396C33.054 54.1164 33.0634 54.0834 33.0757 54.0408C33.1003 53.9556 33.1366 53.8318 33.1855 53.6701C33.2833 53.3466 33.4314 52.8713 33.6368 52.2495C34.0477 51.0059 34.6878 49.1759 35.6133 46.8006C37.4642 42.0499 40.4566 35.1179 45.0393 26.3329L45.0581 26.2967C45.2122 26.0005 45.3687 25.6998 45.5281 25.3978C45.525 25.4081 45.5222 25.4176 45.5196 25.4262L45.5 25.5L45.5419 25.3717C45.5373 25.3804 45.5327 25.3891 45.5281 25.3978C45.7769 24.5669 47.784 18.0257 51.2046 13.0603C51.8178 12.1744 52.8668 11.7054 53.9423 11.8407C54.9938 11.9725 55.8477 12.6432 56.2109 13.6298L56.2634 13.7725L56.2569 13.7823C56.2603 13.796 56.2636 13.8099 56.2666 13.824ZM46.656 26.0799C46.6327 26.1236 46.6096 26.1671 46.5865 26.2107C46.5397 26.299 46.4933 26.3873 46.4472 26.4764L47.9977 27.256C48.0174 27.1548 48.0404 27.0545 48.0666 26.9549C48.1051 26.8089 48.1505 26.6646 48.2029 26.5219L46.7788 25.8059C46.7766 25.8158 46.7738 25.8241 46.7717 25.8303C46.7697 25.8363 46.7689 25.8419 46.7689 25.8419C46.7624 25.8768 46.7469 25.9076 46.7316 25.9381L46.7194 25.961C46.6981 26.0008 46.677 26.0404 46.656 26.0799ZM47.7131 40.0106C50.1548 35.8673 51.352 32.3215 51.6317 31.4388C50.3234 29.3992 48.233 28.5068 48.2134 28.5021L45.9771 27.3777C39.1085 40.6066 35.9105 49.5085 34.7942 52.9434C34.7448 53.0954 34.6995 53.2367 34.6581 53.3672C34.7878 53.2939 34.9165 53.2198 35.0443 53.1449C41.2204 49.5264 45.3145 44.0826 47.7131 40.0106ZM53.1842 17.4968C53.1265 18.4117 52.5071 20.6229 48.9747 25.1341C48.854 25.2868 48.75 25.4452 48.6478 25.61L47.0885 24.826C47.7919 22.7036 49.6144 17.6801 52.2841 13.8076C52.4805 13.5207 52.7596 13.3188 53.0778 13.2136C53.2978 13.1408 53.5371 13.1162 53.7766 13.1462C54.335 13.2164 54.7858 13.5662 54.9759 14.0857L55.0118 14.1939C55.1463 14.6338 54.932 15.1306 54.5062 15.3736L54.4754 15.3909C53.7212 15.8188 53.2397 16.6083 53.1842 17.4968Z" fill="#111111"/>
<path d="M65.9058 59.6528H65.9808V59.5778V57.9158V57.8408H65.9058H17.708H17.633V57.9158V59.5778V59.6528H17.708H65.9058ZM24.8673 62.9579L24.9242 62.9091L24.8754 62.8521L23.7939 61.5902L23.7451 61.5332L23.6882 61.582L19.9022 64.8265L19.8453 64.8753L19.8941 64.9323L20.9756 66.1942L21.0244 66.2512L21.0814 66.2024L24.8673 62.9579ZM26.4225 66.1942L26.4713 66.2512L26.5283 66.2024L30.3142 62.9579L30.3711 62.9091L30.3223 62.8521L29.2408 61.5902L29.192 61.5332L29.1351 61.582L25.3492 64.8265L25.2922 64.8753L25.341 64.9323L26.4225 66.1942ZM35.7611 62.9579L35.8181 62.9091L35.7693 62.8521L34.6877 61.5902L34.6389 61.5332L34.582 61.582L30.7961 64.8265L30.7391 64.8753L30.7879 64.9323L31.8694 66.1942L31.9182 66.2512L31.9752 66.2024L35.7611 62.9579ZM37.3164 66.1942L37.3652 66.2512L37.4221 66.2024L41.208 62.9579L41.265 62.9091L41.2162 62.8521L40.1347 61.5902L40.0859 61.5332L40.0289 61.582L36.243 64.8265L36.1861 64.8753L36.2349 64.9323L37.3164 66.1942ZM51.4591 62.9579L51.5161 62.9091L51.4673 62.8521L50.3858 61.5902L50.337 61.5332L50.28 61.582L46.4941 64.8265L46.4372 64.8753L46.486 64.9323L47.5675 66.1942L47.6163 66.2512L47.6732 66.2024L51.4591 62.9579ZM42.7633 66.1942L42.8121 66.2512L42.869 66.2024L46.6549 62.9579L46.7119 62.9091L46.6631 62.8521L45.5816 61.5902L45.5328 61.5332L45.4758 61.582L41.6899 64.8265L41.633 64.8753L41.6818 64.9323L42.7633 66.1942ZM56.9061 62.9579L56.963 62.9091L56.9142 62.8521L55.8327 61.5902L55.7839 61.5332L55.7269 61.582L51.941 64.8265L51.8841 64.8753L51.9329 64.9323L53.0144 66.1942L53.0632 66.2512L53.1201 66.2024L56.9061 62.9579ZM61.892 62.9579L61.949 62.9091L61.9002 62.8522L60.8187 61.5902L60.7699 61.5333L60.7129 61.5821L56.927 64.8266L56.8701 64.8754L56.9189 64.9323L58.0004 66.1943L58.0492 66.2512L58.1061 66.2024L61.892 62.9579Z" fill="#111111" stroke="#111111" stroke-width="0.15"/>
<rect x="0.75" y="0.75" width="83.5" height="83.5" rx="41.75" stroke="#111111" stroke-width="1.5"/>
</svg>
