<svg width="85" height="85" viewBox="0 0 85 85" fill="none" xmlns="http://www.w3.org/2000/svg">
<path d="M36.6443 41.3257C36.6968 42.1659 36.8019 44.9491 36.1717 45.8943C35.8232 46.4171 34.0707 49.1534 32.1524 52.1959M36.6443 41.3257H40.6552M36.6443 41.3257V36.127M32.1524 52.1959C30.523 54.7802 28.7741 57.5855 27.6647 59.4426C26.7194 61.3856 26.0578 65.5236 30.973 66.5318H53.1858C58.5 66.0317 58.2244 61.4549 56.9667 59.4426C55.709 57.4303 53.9284 54.7329 52.2314 52.1959M32.1524 52.1959H52.2314M52.2314 52.1959C50.5275 49.6483 48.9079 47.2625 47.9871 45.8943C47.1994 44.634 47.1994 42.586 47.1994 41.3257C47.1994 40.0654 47.1994 34.184 47.1994 30.9282H36.6443V36.127M36.6443 36.127H42.0006" stroke="black" stroke-width="1.5" stroke-linecap="round"/>
<path d="M38.0277 24.9417H46.6923C50.0006 24.154 51.1033 21.0032 51.4184 18.01C50.7883 18.01 48.7403 17.9405 47.6375 18.1676C43.3525 19.0498 42.2812 22.3686 42.2812 23.8389C41.9031 19.5539 38.3427 18.3251 36.6098 18.1676L32.9865 18.01C33.2385 23.0512 36.4523 24.8367 38.0277 24.9417Z" stroke="black" stroke-width="1.5"/>
<rect x="0.75" y="0.75" width="83.5" height="83.5" rx="41.75" stroke="#111111" stroke-width="1.5"/>
</svg>
