<svg width="85" height="85" viewBox="0 0 85 85" fill="none" xmlns="http://www.w3.org/2000/svg">
<path d="M20.6201 61.1384C20.6201 61.1384 27.1029 53.0349 43.3098 53.0349C59.5167 53.0349 65.9994 61.1384 65.9994 61.1384" stroke="black" stroke-width="1.5" stroke-linecap="round"/>
<path d="M25.6631 66.0003C25.6631 66.0003 31.1558 59.5176 43.3106 59.5176C55.4654 59.5176 60.9581 66.0003 60.9581 66.0003" stroke="black" stroke-width="1.5" stroke-linecap="round"/>
<path d="M33.2246 69.2419C33.2246 69.2419 36.0151 66.0005 43.3089 66.0005C50.6027 66.0005 53.3932 69.2419 53.3932 69.2419" stroke="black" stroke-width="1.5" stroke-linecap="round"/>
<path d="M36.8271 39.5975L42.4996 43.3103M42.4996 43.3103L48.172 39.5975M42.4996 43.3103V23.8621" stroke="black" stroke-width="1.5" stroke-linecap="round" stroke-linejoin="round"/>
<path d="M54.6553 31.494L60.3277 35.2068M60.3277 35.2068L66.0001 31.494M60.3277 35.2068V15.7585" stroke="black" stroke-width="1.5" stroke-linecap="round" stroke-linejoin="round"/>
<path d="M19 31.494L24.6724 35.2068M24.6724 35.2068L30.3448 31.494M24.6724 35.2068V15.7585" stroke="black" stroke-width="1.5" stroke-linecap="round" stroke-linejoin="round"/>
<rect x="0.75" y="0.75" width="83.5" height="83.4999" rx="41.75" stroke="#111111" stroke-width="1.5"/>
</svg>
