<svg width="85" height="85" viewBox="0 0 85 85" fill="none" xmlns="http://www.w3.org/2000/svg">
<path d="M18.8975 27.2908L19.317 26.6691L18.1475 25.88V27.2908H18.8975ZM42.5618 30.9982L42.6547 30.254L42.5971 30.2468L42.539 30.2486L42.5618 30.9982ZM48.2506 31.6605L48.6206 31.008L48.4485 30.9105H48.2506V31.6605ZM47.7393 33.117L47.3345 32.4856L46.9209 32.7508L46.9988 33.2359L47.7393 33.117ZM48.6341 34.0438L48.3898 34.7529L48.6812 34.8533L48.959 34.7198L48.6341 34.0438ZM50.5516 33.3821L51.0082 32.7871L50.8417 32.6593L50.633 32.6365L50.5516 33.3821ZM52.2765 34.7056L53.0127 34.8485L53.1011 34.3931L52.733 34.1106L52.2765 34.7056ZM52.5324 40.664L52.7225 39.9385L52.7133 39.9361L52.704 39.9339L52.5324 40.664ZM55.401 38.7047L56.1438 38.6013L56.1403 38.5761L56.1351 38.5512L55.401 38.7047ZM55.878 34.5847L55.865 33.8348L55.4557 33.8419L55.2403 34.19L55.878 34.5847ZM57.5009 36.6257L58.15 37.0015L58.1976 36.9193L58.2232 36.8279L57.5009 36.6257ZM57.9485 37.2215L58.4881 37.7424L58.4881 37.7424L57.9485 37.2215ZM58.6516 36.4932L58.244 37.1227L58.2746 37.1425L58.3069 37.1593L58.6516 36.4932ZM59.4826 38.2144L60.116 38.6161L60.2326 38.4322V38.2144H59.4826ZM59.163 40.2007V40.9507L59.1703 40.9506L59.163 40.2007ZM65.5543 35.4339L66.119 35.9274L66.1928 35.843L66.2387 35.7407L65.5543 35.4339ZM65.9382 33.8448L65.2152 33.6452L65.2073 33.6739L65.2017 33.7031L65.9382 33.8448ZM66.8967 32.5867L66.5994 31.8982L66.5994 31.8982L66.8967 32.5867ZM69.837 31.4613L69.5121 30.7853L69.502 30.7902L69.4921 30.7953L69.837 31.4613ZM70.7318 29.8722L71.4506 30.0863L71.5529 29.743L71.3501 29.4477L70.7318 29.8722ZM70.7956 26.9595L70.5347 26.2563L70.2739 26.3531L70.1393 26.5965L70.7956 26.9595ZM72.5214 27.092L72.109 27.7185L72.1784 27.7642L72.2561 27.7936L72.5214 27.092ZM72.2022 35.4338L71.6098 34.9739L71.2112 35.4872L71.6626 35.9547L72.2022 35.4338ZM72.4576 36.0961L72.6323 36.8255L72.9119 36.7585L73.0751 36.5218L72.4576 36.0961ZM69.1335 41.5908L68.7931 42.2591L68.9175 42.3225L69.0563 42.3368L69.1335 41.5908ZM67.216 41.5252L66.7351 40.9497L66.657 41.0149L66.5992 41.0985L67.216 41.5252ZM68.6859 45.7629L68.8736 45.0366L68.8619 45.0338L68.6859 45.7629ZM68.0915 47.0208L68.4049 47.7022L68.6698 47.5804L68.7829 47.3115L68.0915 47.0208ZM64.0198 54.7004L64.7194 54.9707L64.727 54.9509L64.7335 54.9307L64.0198 54.7004ZM64.0835 56.8852L64.7862 57.1475L64.8455 56.9885L64.8306 56.8195L64.0835 56.8852ZM59.162 58.6059L58.7663 59.243L59.162 58.6059ZM58.1393 57.8776L58.2782 57.1406L58.2094 57.1276H58.1393V57.8776ZM49.767 59.7988L49.5789 60.5248L49.7892 60.5793L49.9962 60.5129L49.767 59.7988ZM48.1692 59.6662L47.8828 58.973L47.8109 59.0028L47.7466 59.0466L48.1692 59.6662ZM43.5674 63.6383L42.8663 63.3718L42.7975 63.5527L42.8249 63.7442L43.5674 63.6383ZM41.586 64.7637L40.9399 65.1445L41.586 64.7637ZM38.0069 59.5998L38.2154 58.8794L38.1133 58.8498H38.0069V59.5998ZM36.0894 60.5927L35.8179 61.2918L35.8179 61.2919L36.0894 60.5927ZM34.4915 59.4673H35.2415V59.3322L35.1944 59.2056L34.4915 59.4673ZM29.5977 56.9189L29.7504 56.1847L29.6575 56.1653L29.5627 56.1698L29.5977 56.9189ZM19.2154 53.0453L19.8434 52.6352L19.8238 52.6052L19.8015 52.5773L19.2154 53.0453ZM14.6782 45.8439L13.9546 46.0412L13.9805 46.1361L14.03 46.2212L14.6782 45.8439ZM14.1668 39.4725L13.512 39.107L13.4585 39.2027L13.4347 39.3096L14.1668 39.4725ZM16.8512 30.7996L17.5835 30.9618L17.6012 30.8816V30.7996H16.8512ZM17.0429 28.085L17.6584 27.6564L17.3337 27.1902L16.797 27.3765L17.0429 28.085ZM18.8963 28.8133L19.3913 29.3768L19.5058 29.2762L19.5719 29.1389L18.8963 28.8133ZM18.8975 27.2908C18.478 27.9125 18.4784 27.9128 18.4789 27.9131C18.479 27.9132 18.4795 27.9136 18.4799 27.9138C18.4806 27.9143 18.4815 27.9149 18.4824 27.9155C18.4842 27.9167 18.4865 27.9182 18.4891 27.92C18.4944 27.9234 18.5012 27.9279 18.5097 27.9333C18.5265 27.9442 18.5497 27.9588 18.5793 27.9771C18.6385 28.0135 18.7236 28.0641 18.8356 28.1267C19.0598 28.2518 19.3919 28.4248 19.8413 28.628C20.7403 29.0344 22.1076 29.5612 24.0181 30.0681C27.8392 31.0819 33.8286 32.0147 42.5847 31.7479L42.539 30.2486C33.9104 30.5115 28.0676 29.5906 24.4027 28.6182C22.5702 28.132 21.281 27.6327 20.4593 27.2612C20.0483 27.0754 19.754 26.9215 19.5669 26.817C19.4733 26.7647 19.4065 26.7248 19.3652 26.6995C19.3446 26.6868 19.3303 26.6777 19.3224 26.6726C19.3184 26.67 19.3159 26.6684 19.315 26.6678C19.3146 26.6675 19.3145 26.6675 19.3148 26.6677C19.315 26.6678 19.3153 26.668 19.3156 26.6682C19.3158 26.6683 19.3161 26.6685 19.3162 26.6686C19.3166 26.6688 19.317 26.6691 18.8975 27.2908ZM46.9988 33.2359C47.0404 33.4952 47.163 33.7084 47.2694 33.8569C47.381 34.0127 47.5126 34.1493 47.635 34.2603C47.7589 34.3726 47.8877 34.4714 48.0045 34.5499C48.106 34.6179 48.2473 34.7038 48.3898 34.7529L48.8784 33.3347C48.9117 33.3462 48.9228 33.3542 48.9047 33.3442C48.8914 33.3369 48.8694 33.3238 48.8402 33.3042C48.7813 33.2647 48.7103 33.2104 48.6424 33.1489C48.573 33.086 48.5209 33.0281 48.4887 32.9833C48.4513 32.9311 48.4701 32.9373 48.4798 32.9981L46.9988 33.2359ZM56.8519 36.2499C56.5591 36.7557 56.7361 37.2982 56.9535 37.5927C57.0703 37.7508 57.269 37.9398 57.5586 38.0136C57.9006 38.1007 58.2459 37.9933 58.4881 37.7424L57.409 36.7006C57.4543 36.6536 57.5292 36.5977 57.6352 36.5664C57.7419 36.5348 57.8448 36.5386 57.9288 36.56C58.0805 36.5986 58.1474 36.6843 58.1602 36.7017C58.1797 36.728 58.1916 36.7554 58.1967 36.7911C58.2021 36.8295 58.2025 36.9108 58.15 37.0015L56.8519 36.2499ZM58.4881 37.7424C58.5882 37.6387 58.6547 37.5285 58.6991 37.4418C58.7439 37.354 58.7769 37.2683 58.8008 37.2011C58.8236 37.1369 58.8467 37.0648 58.8606 37.0227C58.8775 36.9714 58.8878 36.9429 58.8957 36.9242C58.9042 36.9038 58.8996 36.9206 58.8764 36.9521C58.8519 36.9855 58.7891 37.0593 58.6747 37.1118C58.3983 37.2386 58.2007 37.0947 58.244 37.1227L59.0593 35.8636C58.8469 35.7261 58.4655 35.5574 58.0492 35.7484C57.6993 35.9089 57.5592 36.2327 57.5126 36.3437C57.4656 36.4555 57.3977 36.6699 57.3877 36.6979C57.3518 36.7987 57.3512 36.7604 57.409 36.7006L58.4881 37.7424ZM58.3069 37.1593C58.264 37.1371 58.2928 37.1372 58.3666 37.2518C58.4316 37.3528 58.4983 37.4908 58.5593 37.6488C58.6192 37.8038 58.6663 37.9589 58.6976 38.0829C58.7133 38.1448 58.7238 38.194 58.7299 38.2276C58.7384 38.2751 58.7326 38.2608 58.7326 38.2144H60.2326C60.2326 38.0597 60.1885 37.8598 60.1518 37.7149C60.1073 37.5389 60.0425 37.3257 59.9585 37.1083C59.8757 36.8939 59.7665 36.6553 59.6278 36.4399C59.4978 36.2379 59.295 35.9816 58.9963 35.8271L58.3069 37.1593ZM66.6612 34.0443C66.7426 33.7492 66.7608 33.6533 66.8227 33.549C66.858 33.4897 66.933 33.388 67.1941 33.2753L66.5994 31.8982C66.0936 32.1166 65.7534 32.4121 65.533 32.7831C65.3394 33.1091 65.2617 33.4767 65.2152 33.6452L66.6612 34.0443ZM67.194 33.2753C67.5539 33.1199 68.2017 32.8799 68.8174 32.6534C69.1193 32.5424 69.4107 32.4355 69.642 32.3483C69.85 32.2699 70.069 32.1858 70.182 32.1273L69.4921 30.7953C69.4967 30.7929 69.4709 30.8054 69.3897 30.8379C69.3183 30.8665 69.225 30.9025 69.1129 30.9447C68.8888 31.0292 68.6049 31.1333 68.2995 31.2457C67.7008 31.466 67.0064 31.7224 66.5994 31.8982L67.194 33.2753ZM71.6626 35.9547C71.7376 36.0325 71.8146 36.0846 71.8562 36.1114C71.8982 36.1386 71.9455 36.1656 71.9628 36.1757C71.975 36.1828 71.983 36.1875 71.9893 36.1915C71.9923 36.1933 71.9944 36.1946 71.9959 36.1956C71.9974 36.1966 71.998 36.197 71.9979 36.1969C71.9979 36.1969 71.9939 36.1942 71.9874 36.1889C71.9809 36.1835 71.9705 36.1745 71.958 36.1615C71.9329 36.1355 71.8957 36.0899 71.8659 36.0228C71.8346 35.9527 71.8196 35.8773 71.8206 35.8051C71.8225 35.6711 71.8771 35.6168 71.8401 35.6704L73.0751 36.5218C73.198 36.3436 73.3165 36.1071 73.3205 35.8262C73.3249 35.5115 73.1855 35.2735 73.0375 35.1201C72.9119 34.9899 72.7668 34.9082 72.7192 34.8804C72.6161 34.8201 72.6829 34.852 72.7417 34.9129L71.6626 35.9547ZM68.4982 46.489C68.5405 46.4999 68.4327 46.4823 68.3376 46.3533C68.2458 46.2286 68.2555 46.1191 68.2555 46.16H69.7555C69.7555 45.9938 69.7332 45.7187 69.5454 45.4637C69.3544 45.2044 69.0867 45.0918 68.8736 45.0367L68.4982 46.489ZM63.3202 54.4301C63.2383 54.642 63.2223 54.8875 63.2171 55.0566C63.2112 55.2522 63.2185 55.472 63.231 55.6884C63.2558 56.1174 63.306 56.6055 63.3364 56.9509L64.8306 56.8195C64.7973 56.4398 64.7516 56.001 64.7285 55.6017C64.7171 55.4039 64.7124 55.2341 64.7164 55.1024C64.7213 54.9441 64.7373 54.9243 64.7194 54.9707L63.3202 54.4301ZM59.5578 57.9688C59.5759 57.9801 59.5759 57.9871 59.5428 57.9473C59.5398 57.9437 59.4193 57.7894 59.3495 57.7126C59.1167 57.4564 58.7969 57.2384 58.2782 57.1406L58.0004 58.6146C58.1078 58.6349 58.1591 58.6595 58.1804 58.6716C58.1995 58.6824 58.215 58.6946 58.2394 58.7214C58.254 58.7375 58.2705 58.7573 58.2955 58.7889C58.3158 58.8145 58.3541 58.8638 58.3897 58.9066C58.4685 59.0013 58.5883 59.1324 58.7663 59.243L59.5578 57.9688ZM49.9552 59.0727C49.6751 59.0002 49.3195 58.9259 48.9796 58.8879C48.8098 58.8689 48.6297 58.8573 48.4571 58.863C48.2963 58.8683 48.0843 58.8898 47.8828 58.973L48.4556 60.3594C48.4139 60.3766 48.4176 60.3651 48.5065 60.3622C48.5836 60.3596 48.687 60.3645 48.8128 60.3786C49.0641 60.4067 49.3475 60.4648 49.5789 60.5248L49.9552 59.0727ZM38.0069 58.8498C37.6199 58.8498 37.2967 58.9995 37.0615 59.1448C36.8283 59.2889 36.6172 59.4706 36.4652 59.6005C36.2877 59.7521 36.1922 59.8309 36.1194 59.8733C36.0452 59.9165 36.1684 59.8189 36.3608 59.8936L35.8179 61.2919C36.266 61.4658 36.6609 61.2938 36.8744 61.1694C37.0893 61.0442 37.2974 60.8623 37.4395 60.741C37.6071 60.5978 37.7316 60.494 37.8499 60.4209C37.9662 60.3491 38.0105 60.3498 38.0069 60.3498V58.8498ZM36.3609 59.8936C36.1544 59.8134 35.7994 59.6381 35.5035 59.4483C35.3545 59.3528 35.2485 59.2713 35.1888 59.214C35.1588 59.1851 35.1596 59.1804 35.1724 59.2006C35.1806 59.2136 35.2415 59.3098 35.2415 59.4673H33.7415C33.7415 59.7075 33.8364 59.8948 33.906 60.0045C33.9802 60.1214 34.0699 60.2191 34.1497 60.2958C34.3098 60.4495 34.5073 60.5914 34.6939 60.711C35.069 60.9516 35.513 61.1734 35.8179 61.2918L36.3609 59.8936ZM33.8071 56.2941C33.031 55.7788 32.0576 55.41 31.1155 55.41V56.91C31.6913 56.91 32.3804 57.1474 32.9775 57.5438L33.8071 56.2941ZM31.1155 55.41C30.4569 55.41 29.9795 55.7713 29.72 55.9815C29.5537 56.1161 29.5039 56.1647 29.4352 56.2123C29.3477 56.2731 29.4965 56.1318 29.7504 56.1847L29.4449 57.6532C29.8587 57.7393 30.1822 57.5198 30.2907 57.4445C30.418 57.3561 30.5854 57.2108 30.6638 57.1474C30.8934 56.9614 31.0152 56.91 31.1155 56.91V55.41ZM17.6012 30.7996C17.6012 30.5003 17.6013 29.8527 17.6246 29.274C17.6364 28.9817 17.6533 28.7265 17.6761 28.5485C17.6816 28.5055 17.6869 28.471 17.6918 28.4445C17.6942 28.4314 17.6962 28.4214 17.6979 28.4141C17.6996 28.4067 17.7005 28.4036 17.7003 28.4041C17.7003 28.4043 17.6983 28.4112 17.6938 28.4229C17.6895 28.4339 17.6802 28.4567 17.6638 28.486C17.6489 28.5126 17.5439 28.705 17.2889 28.7936L16.797 27.3765C16.518 27.4734 16.3905 27.6896 16.3546 27.7539C16.3042 27.8441 16.2755 27.9314 16.259 27.9886C16.2247 28.1077 16.2032 28.2405 16.1882 28.3585C16.157 28.6026 16.138 28.9102 16.1258 29.2137C16.1012 29.8268 16.1012 30.5031 16.1012 30.7996H17.6012ZM68.2555 46.16C68.2555 45.9558 68.347 45.8274 68.365 45.8027C68.3903 45.7679 68.406 45.7574 68.3868 45.7742C68.3469 45.8091 68.2817 45.8561 68.1636 45.9399C68.0631 46.0112 67.9232 46.11 67.7999 46.2162C67.6936 46.3078 67.5042 46.4825 67.4001 46.7302L68.7829 47.3115C68.744 47.4039 68.7015 47.4193 68.7788 47.3528C68.8391 47.3008 68.9196 47.2427 69.0313 47.1634C69.1254 47.0967 69.2642 46.9997 69.3753 46.9023C69.4317 46.853 69.5095 46.7793 69.5782 46.6848C69.6396 46.6004 69.7555 46.416 69.7555 46.16H68.2555ZM55.2403 34.19C54.997 34.583 54.7558 35.2486 54.6218 36.0357C54.4852 36.8377 54.45 37.8211 54.6668 38.8581L56.1351 38.5512C55.9632 37.7288 55.9897 36.9379 56.1005 36.2875C56.2137 35.6224 56.4054 35.1577 56.5158 34.9794L55.2403 34.19ZM65.9382 33.8448C65.2017 33.7031 65.2017 33.7031 65.2017 33.7031C65.2017 33.7031 65.2017 33.7031 65.2017 33.7031C65.2017 33.7031 65.2017 33.7031 65.2017 33.7032C65.2017 33.7033 65.2016 33.7034 65.2016 33.7037C65.2015 33.7042 65.2013 33.705 65.2011 33.7061C65.2007 33.7083 65.2 33.7117 65.1992 33.7162C65.1974 33.7251 65.1948 33.7385 65.1914 33.7558C65.1846 33.7904 65.1747 33.8404 65.1623 33.9015C65.1376 34.024 65.1034 34.1896 65.0651 34.3639C65.0266 34.5391 64.9852 34.7179 64.9462 34.8681C64.9267 34.9433 64.9089 35.0068 64.8935 35.0566C64.8766 35.1116 64.8683 35.1307 64.87 35.127L66.2387 35.7407C66.3022 35.599 66.357 35.4032 66.398 35.2452C66.4438 35.0688 66.4898 34.8694 66.5302 34.6855C66.5708 34.5007 66.6068 34.3264 66.6326 34.1987C66.6456 34.1346 66.656 34.082 66.6632 34.0452C66.6669 34.0268 66.6697 34.0123 66.6716 34.0023C66.6726 33.9973 66.6733 33.9935 66.6739 33.9908C66.6741 33.9895 66.6743 33.9884 66.6745 33.9877C66.6745 33.9873 66.6746 33.987 66.6746 33.9868C66.6746 33.9867 66.6747 33.9866 66.6747 33.9866C66.6747 33.9865 66.6747 33.9865 66.6747 33.9865C66.6747 33.9864 66.6747 33.9864 65.9382 33.8448ZM70.013 29.658C69.9551 29.8524 69.8444 30.1607 69.71 30.431C69.6427 30.5664 69.5787 30.6735 69.5236 30.747C69.4587 30.8337 69.4496 30.8154 69.5121 30.7853L70.162 32.1372C70.4211 32.0127 70.6054 31.8048 70.7242 31.6462C70.8528 31.4745 70.9627 31.2807 71.0532 31.0988C71.2342 30.7346 71.3742 30.3428 71.4506 30.0863L70.013 29.658ZM42.2322 64.383C41.7392 63.5463 40.9662 62.2804 40.2483 61.2006C39.8905 60.6623 39.5383 60.1581 39.2371 59.7738C39.0874 59.583 38.9394 59.4075 38.8016 59.2685C38.7329 59.1992 38.656 59.1281 38.5739 59.066C38.5016 59.0113 38.3771 58.9262 38.2154 58.8794L37.7984 60.3202C37.7013 60.2921 37.6537 60.2507 37.6692 60.2625C37.675 60.2668 37.6969 60.2847 37.7365 60.3247C37.8155 60.4044 37.9227 60.5285 38.0565 60.6992C38.3221 61.0379 38.6491 61.5044 38.9992 62.031C39.6972 63.081 40.4553 64.3222 40.9399 65.1445L42.2322 64.383ZM32.9775 57.5438C33.1088 57.6309 33.189 57.7353 33.295 58.0807C33.3902 58.3911 33.5342 59.0454 33.7886 59.7289L35.1944 59.2056C34.9492 58.547 34.8868 58.155 34.729 57.6407C34.582 57.1615 34.3624 56.6628 33.8071 56.2941L32.9775 57.5438ZM13.4347 39.3096C13.1546 40.5687 13.2202 41.9908 13.3786 43.1986C13.5385 44.4179 13.8015 45.4793 13.9546 46.0412L15.4018 45.6467C15.2587 45.1217 15.0137 44.1314 14.8658 43.0036C14.7165 41.8644 14.6745 40.6441 14.8989 39.6354L13.4347 39.3096ZM58.8493 37.8127C58.6248 38.1667 58.3141 38.7321 58.1637 39.2446C58.0952 39.4779 58.0161 39.8386 58.115 40.1878C58.1715 40.3875 58.2921 40.6013 58.5122 40.756C58.7256 40.906 58.9617 40.9507 59.163 40.9507V39.4507C59.1763 39.4507 59.2682 39.4539 59.375 39.529C59.4883 39.6087 59.5398 39.7139 59.5582 39.779C59.5809 39.8593 59.55 39.8476 59.603 39.667C59.6954 39.3519 59.9206 38.9243 60.116 38.6161L58.8493 37.8127ZM70.1393 26.5965C69.9444 26.9487 69.7227 27.5198 69.6467 28.1612C69.5705 28.8041 69.6331 29.5971 70.1135 30.2967L71.3501 29.4477C71.1449 29.1488 71.0859 28.7629 71.1363 28.3377C71.1868 27.9111 71.3398 27.5251 71.4519 27.3225L70.1393 26.5965ZM42.4689 31.7424C43.3541 31.8529 44.7012 32.0187 45.866 32.1569C46.4482 32.226 46.9865 32.2884 47.3994 32.3336C47.7814 32.3754 48.1213 32.4105 48.2506 32.4105V30.9105C48.2556 30.9105 48.2052 30.9081 48.0616 30.8944C47.9352 30.8824 47.7661 30.8647 47.5627 30.8425C47.1565 30.798 46.6234 30.7362 46.0428 30.6673C44.882 30.5296 43.5381 30.3642 42.6547 30.254L42.4689 31.7424ZM69.4738 40.9225C69.2066 40.7864 68.7803 40.6253 68.3194 40.5655C67.8766 40.5081 67.2427 40.5256 66.7351 40.9497L67.6968 42.1008C67.7311 42.0721 67.8493 42.0171 68.1265 42.0531C68.3854 42.0867 68.647 42.1847 68.7931 42.2591L69.4738 40.9225ZM48.959 34.7198C49.1908 34.6084 49.5613 34.4427 49.9094 34.3117C50.0842 34.2459 50.2405 34.1937 50.3642 34.161C50.517 34.1206 50.532 34.1344 50.4702 34.1276L50.633 32.6365C50.3949 32.6105 50.1435 32.6678 49.9806 32.7109C49.7887 32.7617 49.58 32.833 49.381 32.9078C48.9816 33.0582 48.5696 33.2427 48.3091 33.3679L48.959 34.7198ZM52.733 34.1106L51.0082 32.7871L50.095 33.9771L51.8199 35.3006L52.733 34.1106ZM55.8911 35.3346C56.1598 35.3299 56.4812 35.4071 56.6653 35.5574C56.7423 35.6203 56.795 35.6945 56.823 35.7985C56.8529 35.9091 56.868 36.1046 56.7787 36.4236L58.2232 36.8279C58.3667 36.3151 58.3873 35.838 58.2713 35.4079C58.1536 34.9713 57.9092 34.6367 57.6142 34.3957C57.0542 33.9382 56.3313 33.8267 55.865 33.8348L55.8911 35.3346ZM47.7466 59.0466C47.0385 59.5295 45.9555 60.3104 45.0007 61.0893C44.5242 61.4781 44.068 61.8759 43.7035 62.2423C43.3681 62.5793 43.0149 62.981 42.8663 63.3718L44.2684 63.9048C44.2681 63.9055 44.2699 63.9009 44.275 63.8907C44.2802 63.8806 44.2879 63.8667 44.2989 63.8488C44.3213 63.8125 44.3535 63.766 44.3977 63.7092C44.4869 63.5948 44.6102 63.4576 44.7668 63.3003C45.0798 62.9857 45.4918 62.6246 45.949 62.2516C46.8618 61.5068 47.9085 60.7518 48.5917 60.2858L47.7466 59.0466ZM72.9337 26.4656C72.5292 26.1993 71.5847 25.8668 70.5347 26.2563L71.0564 27.6627C71.5663 27.4735 72.013 27.6553 72.109 27.7185L72.9337 26.4656ZM64.9896 34.9403C64.3181 35.7086 63.1979 36.8656 62.0358 37.8256C61.4544 38.306 60.879 38.7231 60.3565 39.0175C59.8156 39.3222 59.4129 39.4482 59.1557 39.4507L59.1703 40.9506C59.8107 40.9444 60.483 40.6679 61.0928 40.3243C61.721 39.9704 62.372 39.4935 62.9912 38.9821C64.2303 37.9584 65.4082 36.7407 66.119 35.9274L64.9896 34.9403ZM51.5402 34.5627C51.3531 35.5267 51.1392 36.9983 51.1125 38.2791C51.0993 38.9127 51.1304 39.5498 51.2565 40.0677C51.3651 40.5138 51.6317 41.2228 52.3608 41.3941L52.704 39.9339C52.8927 39.9783 52.8116 40.114 52.7139 39.7128C52.6337 39.3836 52.5999 38.8995 52.6122 38.3103C52.6365 37.1454 52.8349 35.7649 53.0127 34.8485L51.5402 34.5627ZM47.8807 32.3129C47.8727 32.3083 47.8563 32.2982 47.8376 32.2696C47.8132 32.2325 47.7927 32.1733 47.7983 32.1103C47.8034 32.0534 47.824 32.0597 47.766 32.1319C47.7058 32.2069 47.5795 32.3285 47.3345 32.4856L48.1441 33.7483C48.7778 33.342 49.2384 32.85 49.2924 32.2434C49.3502 31.5946 48.9237 31.1799 48.6206 31.008L47.8807 32.3129ZM18.1475 27.2908C18.1475 27.4531 18.171 27.6176 18.1894 27.739C18.2106 27.8787 18.2286 27.9828 18.2412 28.097C18.2666 28.3279 18.2464 28.4343 18.2206 28.4878L19.5719 29.1389C19.7856 28.6954 19.766 28.2393 19.7321 27.9326C19.7151 27.778 19.6885 27.6194 19.6725 27.514C19.6537 27.3904 19.6475 27.3273 19.6475 27.2908H18.1475ZM16.4275 28.5137C16.6341 28.8103 17.0058 29.2332 17.4718 29.5018C17.7096 29.6389 18.0145 29.7604 18.3613 29.7656C18.7288 29.7711 19.0867 29.6444 19.3913 29.3768L18.4012 28.2499C18.3812 28.2675 18.3731 28.2691 18.3776 28.2675C18.3823 28.2657 18.386 28.2658 18.3839 28.2658C18.3736 28.2656 18.3206 28.2597 18.221 28.2023C18.0121 28.0819 17.7912 27.8471 17.6584 27.6564L16.4275 28.5137ZM16.119 30.6374C15.8854 31.6921 15.4713 33.391 14.9911 35.0475C14.5039 36.7284 13.9711 38.2844 13.512 39.107L14.8217 39.8381C15.3753 38.8464 15.9482 37.1334 16.4318 35.4651C16.9225 33.7726 17.3442 32.0421 17.5835 30.9618L16.119 30.6374ZM14.03 46.2212C15.1052 48.0684 17.5666 52.1822 18.6293 53.5133L19.8015 52.5773C18.8242 51.3533 16.426 47.3558 15.3264 45.4666L14.03 46.2212ZM18.5875 53.4554C19.7247 55.1969 21.4954 56.2949 23.4497 56.9326C25.4031 57.5699 27.5851 57.7637 29.6326 57.6681L29.5627 56.1698C27.6451 56.2593 25.653 56.0736 23.915 55.5066C22.178 54.9398 20.7401 54.0084 19.8434 52.6352L18.5875 53.4554ZM40.9399 65.1445C41.1682 65.5319 41.5483 65.7522 41.9035 65.8518C42.2651 65.9532 42.6737 65.9529 43.056 65.8294C43.4463 65.7034 43.822 65.4433 44.0678 65.0234C44.3131 64.6044 44.39 64.0941 44.3098 63.5324L42.8249 63.7442C42.8683 64.0488 42.8114 64.2006 42.7734 64.2655C42.7359 64.3295 42.679 64.3749 42.5951 64.402C42.5032 64.4317 42.3961 64.432 42.3085 64.4075C42.2146 64.3811 42.2121 64.3488 42.2322 64.383L40.9399 65.1445ZM49.9962 60.5129C50.9814 60.1968 52.5814 59.7213 54.1677 59.3257C55.782 58.9232 57.2906 58.6276 58.1393 58.6276V57.1276C57.0802 57.1276 55.4007 57.4724 53.8047 57.8703C52.1808 58.2753 50.5485 58.7604 49.5379 59.0846L49.9962 60.5129ZM58.7663 59.243C59.741 59.8485 61.0681 59.7974 62.154 59.4336C63.2463 59.0677 64.3566 58.2982 64.7862 57.1475L63.3809 56.6229C63.1681 57.1929 62.5294 57.7259 61.6775 58.0113C60.8192 58.2988 60.0068 58.2477 59.5578 57.9688L58.7663 59.243ZM64.7335 54.9307C65.093 53.8165 65.725 52.1013 66.4461 50.5894C66.8072 49.8323 67.1814 49.1457 67.545 48.6162C67.9292 48.0567 68.2282 47.7835 68.4049 47.7022L67.7781 46.3395C67.2061 46.6025 66.7134 47.1774 66.3084 47.7671C65.8828 48.387 65.4702 49.1511 65.0922 49.9437C64.3351 51.5311 63.6798 53.3114 63.306 54.4701L64.7335 54.9307ZM66.5992 41.0985C66.1659 41.7247 65.6733 42.7825 65.7857 43.8643C65.8444 44.4296 66.0698 44.9967 66.5407 45.4753C67.004 45.9463 67.6603 46.2868 68.5099 46.4919L68.8619 45.0338C68.2027 44.8747 67.8251 44.642 67.61 44.4234C67.4025 44.2125 67.3051 43.9736 67.2776 43.7092C67.2176 43.1316 67.4987 42.4347 67.8327 41.9519L66.5992 41.0985ZM69.0563 42.3368C69.2426 42.3561 69.4465 42.3407 69.6473 42.2592C69.8514 42.1765 70.0085 42.0435 70.1236 41.8938C70.3324 41.6223 70.4075 41.2894 70.4463 41.0481C70.4881 40.7886 70.5071 40.4912 70.5247 40.2159C70.5431 39.9272 70.561 39.6392 70.5967 39.3459C70.6686 38.7551 70.8051 38.2217 71.0924 37.7946C71.3635 37.3917 71.8097 37.0225 72.6323 36.8255L72.2829 35.3667C71.1245 35.6441 70.3455 36.2177 69.8479 36.9573C69.3665 37.6728 69.1908 38.4818 69.1077 39.1648C69.0658 39.5083 69.0456 39.8402 69.0277 40.1204C69.009 40.4141 68.9935 40.635 68.9654 40.8095C68.9344 41.0022 68.904 41.019 68.9346 40.9793C68.9605 40.9456 69.0101 40.899 69.0839 40.8691C69.1544 40.8405 69.2051 40.8442 69.2106 40.8448L69.0563 42.3368ZM54.6581 38.808C54.65 38.7498 54.6758 38.808 54.5566 38.9953C54.4516 39.1602 54.2789 39.3509 54.0558 39.523C53.5828 39.8878 53.0771 40.0314 52.7225 39.9385L52.3423 41.3895C53.3354 41.6498 54.3197 41.2138 54.9719 40.7107C55.3114 40.4489 55.6101 40.1336 55.8219 39.8009C56.0195 39.4906 56.2076 39.0597 56.1438 38.6013L54.6581 38.808ZM72.2561 27.7936C73.5291 28.2749 74.1516 28.8024 74.2418 29.5981C74.2922 30.043 74.1957 30.6752 73.7878 31.575C73.3812 32.4718 72.6871 33.5863 71.6098 34.9739L72.7946 35.8938C73.9116 34.4551 74.6811 33.2373 75.1539 32.1944C75.6254 31.1545 75.8241 30.2397 75.7323 29.4292C75.5379 27.714 74.1257 26.8968 72.7866 26.3905L72.2561 27.7936Z" fill="#111111"/>
<rect x="0.75" y="0.75" width="83.5" height="83.5" rx="41.75" stroke="#111111" stroke-width="1.5"/>
</svg>
