<?xml version="1.0" encoding="UTF-8"?>
<svg xmlns="http://www.w3.org/2000/svg" width="13.4997" height="16.9991" viewBox="0 0 13.4997 16.9991">
  <defs>
    <style>
      .cls-1 {
        stroke: currentColor;
        stroke-width: .5px;
      }

      .cls-2 {
        stroke-width: 0px;
      }

      .cls-1, .cls-2 {
        fill: currentColor;
        
      }
    </style>
  </defs>
  <g id="Layer_1" data-name="Layer 1"/>
  <g id="Layer_2" data-name="Layer 2">
    <g id="Layer_1-2" data-name="Layer 1">
      <g>
        <path class="cls-2" d="M10.6083,1.2187C7.553-.926,3.3543-.1607,1.2115,2.8914c-1.6151,2.3198-1.6155,5.4036-.0004,7.7232l3.8455,5.5141,.0066,.0086c.3707,.4851,.9022,.7961,1.4999,.8524l.0024,.0094h.1948c.6681,0,1.3154-.317,1.6778-.8738l3.843-5.5101c2.1445-3.0552,1.3792-7.2538-1.6729-9.3965Zm.6127,8.6293l-.0007,.001-3.871,5.5097c-.236,.3197-.6741,.3932-.978,.1703l-.0091-.0061c-.0577-.0385-.119-.0998-.1569-.1568l-3.8761-5.517-.0007-.0011c-1.487-2.1639-1.2426-5.0551,.6219-6.9192l.0276-.0276c2.1102-2.0803,5.5219-2.0711,7.6211,.0276,1.8645,1.8646,2.1089,4.7553,.6218,6.9193Z"/>
        <path class="cls-1" d="M9.3342,6.8238c0-1.3573-1.1028-2.4601-2.4601-2.4601s-2.4601,1.1028-2.4601,2.4601,1.1028,2.4601,2.4601,2.4601,2.4601-1.1028,2.4601-2.4601Zm-4.0718,0c0-.9048,.7352-1.6118,1.6118-1.6118s1.6118,.7352,1.6118,1.6118-.7352,1.6118-1.6118,1.6118c-.9048,.0002-1.6118-.7067-1.6118-1.6118Z"/>
      </g>
    </g>
  </g>
</svg>