<svg width="15" height="18" viewBox="0 0 15 18" fill="none" xmlns="http://www.w3.org/2000/svg">
<path d="M7.51073 17.4988C8.10462 17.4988 8.66997 17.2161 8.98108 16.7355L12.8268 11.2215C14.891 8.28079 14.1557 4.2375 11.215 2.17297C8.27433 0.10874 4.23103 0.844038 2.16649 3.78473C0.611169 6.01866 0.611169 8.98759 2.16649 11.2213L6.01219 16.7353C6.37954 17.2159 6.9168 17.4986 7.51068 17.4986L7.51073 17.4988ZM3.52387 3.5017C5.72947 1.29611 9.32029 1.29611 11.5263 3.5017C13.4775 5.45287 13.7319 8.47828 12.1766 10.7404L8.30262 16.2544C7.99152 16.6786 7.39782 16.7916 6.97368 16.4805C6.88893 16.4239 6.80397 16.3391 6.74754 16.2544L2.87354 10.7404C1.31842 8.47833 1.5729 5.45246 3.52407 3.5017H3.52387Z" fill="currentColor" stroke="currentColor" stroke-width="0.5"/>
<path fill-rule="evenodd" clip-rule="evenodd" d="M1.96155 3.64115C4.10432 0.589035 8.30306 -0.176231 11.3583 1.96842C14.4104 4.11114 15.1757 8.30974 13.0312 11.365C13.0312 11.365 13.0313 11.3649 13.0312 11.365L9.18817 16.8751C8.82579 17.4319 8.17849 17.7489 7.5104 17.7489H7.31557L7.31319 17.7395C6.71543 17.6832 6.18399 17.3722 5.81323 16.8871L5.80661 16.8785L1.96111 11.3644C0.345994 9.04482 0.346455 5.96093 1.96155 3.64115ZM2.37104 3.92807C0.875773 6.07611 0.87588 8.93081 2.37132 11.0785L6.2137 16.5877C6.53719 17.0085 7.00175 17.2487 7.51035 17.2487H7.53595C8.04438 17.2407 8.51485 16.9952 8.77088 16.5997L8.77557 16.5924L12.6214 11.0785C14.6052 8.25242 13.9003 4.36396 11.071 2.37765C8.24504 0.393944 4.35743 1.09912 2.37104 3.92807ZM3.72811 3.65095L3.70049 3.67857C1.83597 5.5427 1.59154 8.43388 3.07853 10.5978C3.07876 10.5982 3.07899 10.5985 3.07922 10.5989L6.95535 16.1159C6.99331 16.1729 7.05458 16.2342 7.11224 16.2727L7.12135 16.2788C7.42525 16.5017 7.86329 16.4282 8.09929 16.1085L11.9703 10.5988C11.9705 10.5985 11.9707 10.5982 11.971 10.5978C13.4581 8.43381 13.2137 5.54309 11.3492 3.67855C9.25003 1.57982 5.83833 1.57064 3.72811 3.65095ZM2.95903 3.75177H2.91998L3.34676 3.325C5.65 1.02177 9.39909 1.02179 11.7027 3.32498C13.7402 5.36247 14.0049 8.52198 12.3823 10.8821L12.3808 10.8842L8.50392 16.4023C8.11841 16.928 7.37322 17.0802 6.82982 16.6854C6.72054 16.6114 6.6148 16.5058 6.54099 16.3958L2.66718 10.8821C1.15409 8.68117 1.28233 5.78458 2.95903 3.75177Z" fill="currentColor"/>
<path d="M10.0842 7.5736C10.0842 6.21632 8.98142 5.11353 7.62414 5.11353C6.26686 5.11353 5.16406 6.21632 5.16406 7.5736C5.16406 8.93088 6.26686 10.0337 7.62414 10.0337C8.98142 10.0337 10.0842 8.93088 10.0842 7.5736ZM6.01238 7.5736C6.01238 6.6688 6.74763 5.96184 7.62414 5.96184C8.5008 5.96184 9.2359 6.69709 9.2359 7.5736C9.2359 8.45026 8.50065 9.18536 7.62414 9.18536C6.71934 9.18556 6.01238 8.47861 6.01238 7.5736Z" fill="currentColor" stroke="currentColor" stroke-width="0.5"/>
<path fill-rule="evenodd" clip-rule="evenodd" d="M4.91406 7.5736C4.91406 6.07825 6.12879 4.86353 7.62414 4.86353C9.11949 4.86353 10.3342 6.07825 10.3342 7.5736C10.3342 9.06895 9.11949 10.2837 7.62414 10.2837C6.12879 10.2837 4.91406 9.06895 4.91406 7.5736ZM7.62414 5.36353C6.40493 5.36353 5.41406 6.3544 5.41406 7.5736C5.41406 8.79281 6.40493 9.78368 7.62414 9.78368C8.84335 9.78368 9.83422 8.79281 9.83422 7.5736C9.83422 6.3544 8.84335 5.36353 7.62414 5.36353ZM7.62414 6.21184C6.88283 6.21184 6.26238 6.80972 6.26238 7.5736C6.26238 8.34057 6.85743 8.93553 7.62409 8.93536C8.36254 8.93536 8.9859 8.31218 8.9859 7.5736C8.9859 6.83515 8.36271 6.21184 7.62414 6.21184ZM5.76238 7.5736C5.76238 6.52788 6.61243 5.71184 7.62414 5.71184C8.63889 5.71184 9.4859 6.55904 9.4859 7.5736C9.4859 8.58833 8.63874 9.43533 7.62419 9.43536M5.76238 7.5736C5.76238 8.61663 6.58127 9.43556 7.62419 9.43536L5.76238 7.5736Z" fill="currentColor"/>
</svg>
