<svg width="23" height="24" viewBox="0 0 23 24" fill="none" xmlns="http://www.w3.org/2000/svg">
<path d="M11.4998 13C12.0291 13 12.4582 12.5523 12.4582 12C12.4582 11.4477 12.0291 11 11.4998 11C10.9706 11 10.5415 11.4477 10.5415 12C10.5415 12.5523 10.9706 13 11.4998 13Z" stroke="black" stroke-width="2" stroke-linecap="round" stroke-linejoin="round"/>
<path d="M11.4998 6C12.0291 6 12.4582 5.55228 12.4582 5C12.4582 4.44772 12.0291 4 11.4998 4C10.9706 4 10.5415 4.44772 10.5415 5C10.5415 5.55228 10.9706 6 11.4998 6Z" stroke="black" stroke-width="2" stroke-linecap="round" stroke-linejoin="round"/>
<path d="M11.4998 20C12.0291 20 12.4582 19.5523 12.4582 19C12.4582 18.4477 12.0291 18 11.4998 18C10.9706 18 10.5415 18.4477 10.5415 19C10.5415 19.5523 10.9706 20 11.4998 20Z" stroke="black" stroke-width="2" stroke-linecap="round" stroke-linejoin="round"/>
</svg>
