<svg width="142" height="32" viewBox="0 0 142 32" fill="none" xmlns="http://www.w3.org/2000/svg">
<path d="M14.9488 9.21713C15.5018 9.21202 16.0538 9.26588 16.5953 9.3778C17.0512 9.46548 17.4853 9.64176 17.873 9.89663C18.2259 10.1414 18.5091 10.4736 18.6945 10.8606C18.9048 11.3273 19.0068 11.8353 18.993 12.3468C19.0136 12.9083 18.8627 13.4628 18.5604 13.9368C18.2336 14.3933 17.7901 14.754 17.2761 14.9811C17.9788 15.1533 18.5971 15.5698 19.0198 16.156C19.3599 16.7037 19.5568 17.3277 19.5926 17.971C19.6283 18.6143 19.5017 19.2563 19.2244 19.8381C18.985 20.2932 18.6401 20.6845 18.2184 20.9795C17.7843 21.2871 17.298 21.5139 16.7831 21.6489C16.2428 21.7926 15.6858 21.8646 15.1266 21.8632H9V9.21713H14.9488ZM14.6135 14.3251C15.0436 14.335 15.4655 14.2072 15.8174 13.9602C15.9854 13.8243 16.1179 13.6497 16.2038 13.4516C16.2896 13.2534 16.3262 13.0375 16.3103 12.8222C16.3204 12.5713 16.265 12.3221 16.1493 12.0991C16.0482 11.9175 15.9014 11.7652 15.7235 11.6573C15.536 11.5456 15.3288 11.4706 15.1132 11.4364C14.8763 11.3944 14.6361 11.3731 14.3955 11.3728H11.7799V14.3251H14.6135ZM14.7711 19.6807C15.0335 19.6811 15.2952 19.6554 15.5524 19.6037C15.7911 19.558 16.0187 19.4671 16.2231 19.336C16.4027 19.2053 16.5477 19.033 16.6456 18.8339C16.7662 18.5801 16.8237 18.3011 16.8133 18.0205C16.8371 17.7628 16.7994 17.5032 16.7032 17.2628C16.607 17.0225 16.4551 16.8084 16.26 16.6381C15.835 16.3438 15.3246 16.1979 14.808 16.223H11.79V19.6807H14.7711Z" fill="#231F20"/>
<path d="M23.0164 19.6502C23.4306 19.9749 23.9346 20.1651 24.4605 20.195C24.9863 20.2249 25.5087 20.0932 25.9572 19.8176C26.2662 19.6342 26.5029 19.3506 26.6279 19.0142H28.8445C28.5909 19.9607 28.0145 20.7893 27.2148 21.3573C26.4173 21.846 25.4942 22.0915 24.5589 22.0636C23.894 22.0775 23.2326 21.9638 22.6106 21.7289C22.0531 21.5151 21.5502 21.18 21.1385 20.7481C20.7288 20.3097 20.4127 19.7927 20.2096 19.2284C19.983 18.6052 19.8694 17.9467 19.8743 17.2837C19.8681 16.6326 19.9818 15.9859 20.2096 15.3757C20.4188 14.8073 20.7429 14.2878 21.1617 13.8496C21.5805 13.4114 22.0851 13.0638 22.6441 12.8285C23.2468 12.576 23.8953 12.4506 24.5488 12.4603C25.2537 12.4433 25.9521 12.5972 26.5843 12.9088C27.1465 13.1977 27.6343 13.6124 28.0095 14.1205C28.3876 14.6398 28.661 15.2276 28.8143 15.851C28.9822 16.5156 29.0422 17.2027 28.992 17.8862H22.3859C22.4228 18.6929 22.6274 19.282 23.0164 19.6502ZM25.86 14.8402C25.6787 14.6658 25.4624 14.5318 25.2254 14.447C24.9884 14.3621 24.7361 14.3285 24.4851 14.3481C24.1386 14.3354 23.794 14.4042 23.4791 14.549C23.2329 14.6698 23.0155 14.8422 22.842 15.0544C22.6884 15.2416 22.5743 15.458 22.5066 15.6904C22.4464 15.8854 22.4071 16.0862 22.3893 16.2895H26.4804C26.4095 15.7562 26.1912 15.2532 25.8499 14.8368L25.86 14.8402Z" fill="#231F20"/>
<path d="M36.0953 20.6712C35.8281 21.1388 35.4229 21.5129 34.935 21.7423C34.3893 21.967 33.8027 22.0755 33.2126 22.0611C32.6225 22.0467 32.0419 21.9096 31.5079 21.6586C31.0005 21.4056 30.5604 21.0363 30.2235 20.5808C29.8783 20.1093 29.6205 19.5799 29.4623 19.0176C29.2896 18.4204 29.2027 17.8016 29.2041 17.18C29.2031 16.5781 29.2901 15.9793 29.4623 15.4026C29.6207 14.8568 29.8788 14.345 30.2235 13.8929C30.5784 13.428 31.039 13.0541 31.5673 12.802C32.0956 12.55 32.6764 12.4271 33.2617 12.4436C33.7967 12.4382 34.326 12.5526 34.8109 12.7783C35.2874 12.993 35.6907 13.3421 35.9712 13.7825H36.0047V9.2168H38.5197V21.8394H36.1288V20.6712H36.0953ZM35.9879 16.1557C35.9262 15.8289 35.8034 15.5166 35.6258 15.2352C35.4542 14.9719 35.2248 14.751 34.9551 14.5892C34.6409 14.415 34.2848 14.3304 33.9256 14.3448C33.5624 14.3322 33.2024 14.4166 32.8827 14.5892C32.6079 14.7544 32.3776 14.9843 32.2121 15.2586C32.0324 15.5424 31.9062 15.8567 31.8399 16.1858C31.7611 16.5431 31.7218 16.9079 31.7225 17.2737C31.724 17.6309 31.7656 17.9868 31.8466 18.3348C31.922 18.6707 32.0571 18.9904 32.2456 19.2787C32.4237 19.5499 32.6596 19.7785 32.9364 19.9482C33.2407 20.1271 33.5894 20.2165 33.9424 20.2059C34.3039 20.2188 34.6621 20.1332 34.9786 19.9582C35.255 19.795 35.4857 19.5647 35.6493 19.2888C35.8222 18.9961 35.9425 18.6755 36.0047 18.3415C36.0762 17.981 36.1122 17.6144 36.112 17.2469C36.1074 16.88 36.0658 16.5144 35.9879 16.1557V16.1557Z" fill="#231F20"/>
<path d="M41.9195 12.6994V14.3965H41.9564C42.0769 14.1182 42.2373 13.8588 42.4326 13.6266C42.6343 13.3818 42.8717 13.1686 43.1368 12.994C43.3945 12.824 43.6743 12.69 43.9684 12.5957C44.2667 12.5014 44.5778 12.454 44.8906 12.4551C45.0772 12.4573 45.2624 12.4866 45.4405 12.5421V14.8852C45.3198 14.8618 45.179 14.8417 45.0147 14.825C44.8555 14.8063 44.6954 14.7974 44.5351 14.7982C44.1341 14.787 43.7355 14.8647 43.3682 15.0258C43.0631 15.1689 42.7981 15.3851 42.5969 15.6551C42.3967 15.9328 42.2552 16.2483 42.1811 16.5823C42.0954 16.9589 42.0537 17.3442 42.057 17.7304V21.8409H39.542V12.6994H41.9195Z" fill="#231F20"/>
<path d="M45.2657 15.2989C45.4732 14.7307 45.7989 14.2128 46.2214 13.7792C46.6433 13.3541 47.1507 13.0233 47.7103 12.8085C48.3323 12.5736 48.9937 12.4599 49.6586 12.4738C50.3256 12.4609 50.989 12.5745 51.6136 12.8085C52.1765 13.0223 52.6875 13.3532 53.1125 13.7792C53.535 14.2128 53.8607 14.7307 54.0682 15.2989C54.2994 15.936 54.4131 16.6096 54.4036 17.2872C54.414 17.9626 54.3003 18.6342 54.0682 19.2688C53.8589 19.8331 53.5333 20.3474 53.1125 20.7784C52.688 21.2035 52.1768 21.5323 51.6136 21.7424C50.9881 21.9732 50.3253 22.0867 49.6586 22.0771C48.9939 22.0877 48.3331 21.9742 47.7103 21.7424C47.1505 21.5313 46.6427 21.2025 46.2214 20.7784C45.8006 20.3474 45.475 19.8331 45.2657 19.2688C45.0336 18.6342 44.9199 17.9626 44.9303 17.2872C44.9208 16.6096 45.0345 15.936 45.2657 15.2989V15.2989ZM47.5493 18.3583C47.6161 18.6894 47.7398 19.0065 47.9148 19.2955C48.0799 19.5703 48.3103 19.8002 48.5855 19.965C48.9115 20.1403 49.2784 20.2258 49.6485 20.2127C50.0206 20.2249 50.3895 20.1395 50.7182 19.965C51.0007 19.8027 51.2381 19.5726 51.409 19.2955C51.5844 19.007 51.707 18.6897 51.7712 18.3583C51.8442 18.006 51.8802 17.647 51.8785 17.2872C51.8798 16.9252 51.8439 16.564 51.7712 16.2094C51.7094 15.8773 51.5866 15.5596 51.409 15.2721C51.2364 14.9964 50.9994 14.7667 50.7182 14.6027C50.3913 14.4228 50.0216 14.3349 49.6485 14.3483C49.302 14.3301 48.9571 14.4057 48.6501 14.5671C48.3431 14.7286 48.0856 14.9699 47.9048 15.2654C47.7275 15.5534 47.6037 15.8709 47.5392 16.2027C47.4693 16.5577 47.4345 16.9187 47.4353 17.2805C47.4377 17.6393 47.4759 17.997 47.5493 18.3483V18.3583Z" fill="#231F20"/>
<path d="M57.2641 19.5681C57.3705 19.758 57.5183 19.9216 57.6967 20.0467C57.8823 20.1733 58.089 20.2663 58.307 20.3212C58.5418 20.3792 58.7827 20.4084 59.0246 20.4082C59.213 20.4077 59.4009 20.3863 59.5846 20.3446C59.7704 20.3085 59.9493 20.2429 60.1144 20.1505C60.2707 20.0699 60.407 19.9556 60.5135 19.8158C60.6246 19.6511 60.6799 19.4551 60.6711 19.2568C60.6711 18.8819 60.423 18.5873 59.9199 18.4099C59.2348 18.171 58.5332 17.982 57.8207 17.8442C57.4552 17.7605 57.0964 17.6635 56.751 17.553C56.4216 17.4487 56.108 17.3 55.8188 17.1112C55.5518 16.9331 55.3283 16.6975 55.1649 16.4216C54.994 16.115 54.9083 15.7683 54.9167 15.4174C54.8926 14.9127 55.0086 14.4111 55.2521 13.9681C55.4756 13.598 55.7894 13.2906 56.1642 13.0743C56.5602 12.8513 56.991 12.6963 57.4385 12.6158C57.9187 12.5176 58.407 12.4638 58.8972 12.4551C59.3824 12.454 59.8666 12.5011 60.3425 12.5957C60.7793 12.6818 61.1979 12.8426 61.5799 13.071C61.9518 13.2941 62.2683 13.5986 62.5054 13.9614C62.7637 14.3871 62.9123 14.8701 62.938 15.3672H60.547C60.5527 15.1698 60.505 14.9745 60.4088 14.8019C60.3126 14.6293 60.1715 14.4858 60.0004 14.3865C59.6367 14.2079 59.2353 14.1195 58.8301 14.1287C58.6766 14.13 58.5233 14.1389 58.3707 14.1555C58.215 14.1712 58.0625 14.2095 57.918 14.2693C57.7887 14.3297 57.6742 14.4177 57.5827 14.5271C57.4728 14.678 57.4229 14.8642 57.4427 15.0498C57.4625 15.2353 57.5506 15.4069 57.69 15.5312C57.8808 15.6853 58.101 15.7992 58.3372 15.866C58.6359 15.9652 58.9405 16.0457 59.2493 16.107C59.5846 16.1773 59.9401 16.2543 60.2922 16.3346C60.6443 16.4149 61.0165 16.5187 61.3652 16.6359C61.6965 16.745 62.0096 16.9029 62.2941 17.1045C62.5694 17.2934 62.7986 17.5416 62.9648 17.8308C63.1411 18.1584 63.2268 18.527 63.2129 18.8986C63.2375 19.3929 63.1293 19.8848 62.8993 20.3233C62.6694 20.7618 62.3261 21.1309 61.9051 21.3923C61.4946 21.6477 61.0395 21.8237 60.5638 21.9112C59.5435 22.1165 58.4923 22.1165 57.472 21.9112C56.9972 21.8134 56.5432 21.6332 56.1307 21.379C55.7017 21.1159 55.3484 20.7463 55.1051 20.3063C54.8618 19.8664 54.7368 19.371 54.7424 18.8685H57.1333C57.114 19.1091 57.1592 19.3506 57.2641 19.5681V19.5681Z" fill="#231F20"/>
<path d="M63.8438 11.2821V9.2168H66.3588V11.2821H63.8438ZM66.3588 12.6946V21.8394H63.8438V12.698L66.3588 12.6946Z" fill="#231F20"/>
<path d="M67.3473 15.5112C67.3625 14.992 67.5152 14.4861 67.79 14.045C68.0485 13.6595 68.3928 13.3387 68.796 13.1078C69.2121 12.8666 69.6653 12.6958 70.1373 12.6024C70.6323 12.5058 71.1353 12.4565 71.6396 12.4551C72.1086 12.4544 72.577 12.4869 73.0413 12.5522C73.489 12.6095 73.9247 12.7372 74.3324 12.9304C74.7108 13.1103 75.0391 13.3804 75.2881 13.717C75.5543 14.1112 75.6849 14.5811 75.6603 15.0559V19.8091C75.6592 20.2051 75.6827 20.6009 75.7307 20.994C75.7538 21.2915 75.8383 21.5809 75.9789 21.8442H73.4303C73.3826 21.7019 73.3445 21.5565 73.3163 21.4091C73.2866 21.2609 73.2654 21.1111 73.2526 20.9605C72.8625 21.3643 72.3753 21.6616 71.8375 21.8241C71.2943 21.9908 70.729 22.0743 70.1608 22.0718C69.7487 22.0745 69.3381 22.0216 68.9402 21.9145C68.575 21.8183 68.2329 21.6498 67.9342 21.4191C67.6467 21.1924 67.4169 20.901 67.2635 20.5689C67.0965 20.1848 67.0153 19.7691 67.0254 19.3505C67.0082 18.9069 67.1028 18.4661 67.3004 18.0685C67.4694 17.7487 67.7119 17.4734 68.008 17.2651C68.3142 17.0568 68.6547 16.9039 69.014 16.8132C69.3838 16.7139 69.7589 16.6345 70.1373 16.5756C70.5163 16.5153 70.8851 16.4685 71.254 16.435C71.5816 16.4046 71.9066 16.3509 72.2265 16.2743C72.4697 16.2212 72.6985 16.1162 72.8971 15.9664C72.9813 15.8942 73.0462 15.8022 73.086 15.6988C73.1258 15.5954 73.1392 15.4838 73.1252 15.3739C73.1355 15.1511 73.0906 14.9292 72.9944 14.7279C72.9095 14.5759 72.7871 14.448 72.6389 14.3563C72.4808 14.2651 72.3067 14.2049 72.1259 14.1789C71.9181 14.1502 71.7086 14.1357 71.4988 14.1354C71.0826 14.1172 70.6718 14.2347 70.3285 14.4702C70.1749 14.6016 70.0512 14.7642 69.9656 14.9472C69.88 15.1302 69.8345 15.3293 69.8322 15.5312L67.3473 15.5112ZM73.1553 17.3689C73.0398 17.4685 72.9052 17.5437 72.7597 17.5898C72.5904 17.6439 72.4179 17.6875 72.2432 17.7204C72.0622 17.7583 71.871 17.7884 71.6698 17.8107C71.4686 17.8342 71.2674 17.8609 71.0662 17.8978C70.8782 17.9344 70.6924 17.9813 70.5096 18.0384C70.3378 18.0925 70.1759 18.1738 70.03 18.2794C69.8906 18.3781 69.7759 18.5075 69.6947 18.6576C69.6054 18.8384 69.5628 19.0386 69.5706 19.24C69.5633 19.436 69.606 19.6307 69.6947 19.8057C69.7722 19.9548 69.8879 20.0807 70.03 20.1706C70.1821 20.2631 70.3506 20.3256 70.5263 20.3547C70.7186 20.3914 70.914 20.4093 71.1098 20.4082C71.5085 20.4301 71.9058 20.3445 72.26 20.1605C72.5093 20.0187 72.7173 19.8145 72.8636 19.5681C72.9884 19.3528 73.0693 19.115 73.1017 18.8685C73.1279 18.681 73.1425 18.4921 73.1453 18.3028L73.1553 17.3689Z" fill="#231F20"/>
<path d="M79.1251 12.6986V13.9605H79.1787C79.465 13.459 79.8963 13.0553 80.4161 12.8023C80.9022 12.5668 81.4351 12.4433 81.9754 12.4408C82.54 12.4222 83.1029 12.5143 83.632 12.712C84.0267 12.8756 84.373 13.1371 84.638 13.4718C84.897 13.8235 85.0746 14.2282 85.1577 14.6567C85.2627 15.1654 85.3133 15.6838 85.3086 16.2032V21.8266H82.7936V16.6785C82.8294 16.0991 82.7077 15.5209 82.4415 15.0048C82.2992 14.8102 82.1081 14.6563 81.8874 14.5588C81.6666 14.4613 81.424 14.4235 81.184 14.4492C80.9051 14.4245 80.6244 14.4669 80.3653 14.5729C80.1062 14.6789 79.8764 14.8454 79.6951 15.0584C79.39 15.4668 79.2357 16.1329 79.2357 17.0668V21.84H76.7207V12.6986H79.1251Z" fill="#231F20"/>
<path d="M88.4672 19.5672C88.5735 19.7572 88.7214 19.9208 88.8998 20.0459C89.0851 20.1731 89.2918 20.2661 89.5101 20.3204C89.7449 20.3783 89.9858 20.4076 90.2277 20.4074C90.415 20.4068 90.6017 20.3855 90.7843 20.3438C90.9711 20.307 91.1509 20.2415 91.3175 20.1497C91.4732 20.0682 91.6093 19.954 91.7166 19.8149C91.8262 19.6496 91.8813 19.4541 91.8742 19.2559C91.8742 18.881 91.6227 18.5865 91.123 18.4091C90.4378 18.1706 89.7362 17.9816 89.0238 17.8434C88.6583 17.7597 88.2995 17.6626 87.9508 17.5522C87.6224 17.4479 87.3099 17.2992 87.0219 17.1103C86.7549 16.9323 86.5314 16.6966 86.368 16.4208C86.1955 16.1147 86.1097 15.7676 86.1198 15.4166C86.0956 14.9119 86.2117 14.4103 86.4552 13.9672C86.6777 13.5965 86.9918 13.2888 87.3673 13.0735C87.763 12.8499 88.1939 12.6948 88.6415 12.6149C89.1205 12.5273 89.6066 12.4836 90.0936 12.4844C90.5777 12.4833 91.0607 12.5304 91.5355 12.625C91.9769 12.7099 92.4001 12.8707 92.7863 13.1003C93.1532 13.3161 93.468 13.6098 93.7085 13.9605C93.9668 14.3863 94.1154 14.8693 94.1411 15.3664H91.7602C91.7659 15.1686 91.7178 14.9729 91.6209 14.8002C91.5241 14.6275 91.3821 14.4842 91.2102 14.3856C90.8479 14.2066 90.4474 14.1182 90.0433 14.1279C89.8898 14.1292 89.7364 14.1381 89.5838 14.1547C89.428 14.1695 89.2754 14.2079 89.1311 14.2685C89.0013 14.328 88.8866 14.4161 88.7958 14.5262C88.6953 14.6547 88.6452 14.8154 88.655 14.9781C88.651 15.0821 88.6714 15.1855 88.7145 15.2802C88.7575 15.3749 88.8221 15.4583 88.9031 15.5237C89.0932 15.6771 89.3121 15.7909 89.547 15.8585C89.8458 15.9573 90.1504 16.0378 90.4591 16.0995C90.7944 16.1697 91.1499 16.2467 91.5053 16.3271C91.8668 16.4093 92.2238 16.5098 92.575 16.6283C92.9074 16.7375 93.2215 16.8954 93.5073 17.0969C93.7825 17.2859 94.0117 17.5341 94.1779 17.8233C94.3528 18.1515 94.4383 18.5196 94.4261 18.8911C94.4511 19.3858 94.3426 19.8782 94.112 20.3168C93.8813 20.7555 93.537 21.1243 93.1149 21.3848C92.7049 21.6413 92.2497 21.8174 91.7736 21.9036C90.7544 22.1089 89.7043 22.1089 88.6851 21.9036C88.2103 21.8058 87.7563 21.6257 87.3438 21.3714C86.9474 21.1247 86.6144 20.7888 86.3713 20.3907C86.0989 19.9266 85.9543 19.3988 85.9521 18.861H88.3431C88.3205 19.1032 88.3634 19.3471 88.4672 19.5672V19.5672Z" fill="#231F20"/>
<path d="M94.2924 14.038C94.2964 13.7782 94.3772 13.5253 94.5246 13.3112C94.672 13.097 94.8795 12.9311 95.1211 12.8343C95.3626 12.7374 95.6274 12.714 95.8823 12.7668C96.1372 12.8197 96.3707 12.9465 96.5536 13.1314C96.7365 13.3163 96.8606 13.551 96.9104 13.806C96.9601 14.0611 96.9333 14.3251 96.8332 14.565C96.7332 14.8049 96.5644 15.0099 96.348 15.1543C96.1316 15.2988 95.8773 15.3762 95.617 15.3769C95.441 15.3792 95.2663 15.346 95.1035 15.2794C94.9406 15.2127 94.7929 15.1139 94.6692 14.9888C94.5456 14.8638 94.4484 14.7152 94.3837 14.5518C94.3189 14.3884 94.2879 14.2136 94.2924 14.038V14.038ZM96.7035 14.038C96.6943 13.8249 96.6226 13.6193 96.4972 13.4466C96.3718 13.2739 96.1984 13.1418 95.9984 13.0667C95.7985 12.9916 95.5808 12.9768 95.3725 13.0242C95.1642 13.0716 94.9744 13.179 94.8268 13.3332C94.6792 13.4874 94.5802 13.6815 94.5422 13.8913C94.5042 14.1012 94.5288 14.3176 94.613 14.5136C94.6972 14.7096 94.8373 14.8766 95.0158 14.9938C95.1943 15.111 95.4034 15.1732 95.617 15.1727C95.764 15.1729 95.9095 15.1433 96.0447 15.0856C96.18 15.028 96.302 14.9436 96.4036 14.8375C96.5052 14.7315 96.5841 14.6059 96.6357 14.4685C96.6872 14.331 96.7103 14.1846 96.7035 14.038V14.038ZM95.0738 13.3451H95.7444C96.0161 13.3451 96.2407 13.4824 96.2407 13.7367C96.2469 13.8151 96.2234 13.8928 96.175 13.9548C96.1266 14.0167 96.0568 14.0583 95.9792 14.0715V14.0715C96.0403 14.0773 96.097 14.1054 96.1385 14.1506C96.18 14.1957 96.2033 14.2546 96.2038 14.3158C96.224 14.4531 96.2039 14.6506 96.2709 14.6506V14.6874H95.9087C95.8685 14.6639 95.8685 14.5033 95.8517 14.3526C95.851 14.3269 95.8449 14.3017 95.8338 14.2784C95.8227 14.2552 95.8068 14.2346 95.7872 14.2179C95.7676 14.2012 95.7448 14.1887 95.7201 14.1814C95.6954 14.1741 95.6694 14.172 95.6438 14.1752H95.4493V14.6706H95.0838L95.0738 13.3451ZM95.4493 13.9409H95.6807C95.8082 13.9409 95.8719 13.8874 95.8719 13.7836C95.8719 13.6798 95.8182 13.6229 95.6874 13.6229H95.4493V13.9409Z" fill="#231F20"/>
<path d="M98.8789 9.24805H104.409C105.871 9.24805 106.964 9.6698 107.705 10.4263C108.072 10.8065 108.361 11.2553 108.554 11.7469C108.747 12.2386 108.842 12.7635 108.832 13.2916C108.832 15.6648 107.262 17.2648 104.62 17.2648H101.521V21.8204H98.8789V9.24805ZM101.521 15.1895H104.167C105.508 15.1895 106.209 14.4531 106.209 13.3083C106.209 12.1635 105.468 11.4639 104.197 11.4639H101.515L101.521 15.1895Z" fill="#231F20"/>
<path d="M109.747 9.24805H115.525C117.956 9.24805 119.576 10.6539 119.576 12.746C119.576 14.2221 118.888 15.3501 117.269 15.7886V15.8422C118.432 16.1769 119.029 16.8464 119.19 18.3727C119.364 20.1501 119.294 21.5024 119.733 21.6966V21.8204H117.285C116.97 21.6798 116.933 20.2706 116.829 18.9183C116.725 17.566 115.947 16.7727 114.361 16.7727H112.302V21.8204H109.747V9.24805ZM112.302 14.8045H115.015C116.407 14.8045 117.091 14.0815 117.091 13.0807C117.091 12.0798 116.44 11.3033 115.079 11.3033H112.296L112.302 14.8045Z" fill="#231F20"/>
<path d="M119.966 15.5607C119.966 11.795 122.313 9 126.042 9C129.771 9 132.102 11.795 132.102 15.5607C132.102 19.3264 129.754 22.1013 126.042 22.1013C122.33 22.1013 119.966 19.3163 119.966 15.5607ZM129.496 15.5607C129.496 13.0435 128.366 11.0921 126.059 11.0921C123.752 11.0921 122.571 13.0435 122.571 15.5607C122.571 18.0778 123.752 20.0092 126.059 20.0092C128.366 20.0092 129.496 18.0577 129.496 15.5607V15.5607Z" fill="#231F20"/>
</svg>
