<svg width="82" height="26" viewBox="0 0 82 26" fill="none" xmlns="http://www.w3.org/2000/svg">
<g clip-path="url(#clip0_3616_38229)">
<path fill-rule="evenodd" clip-rule="evenodd" d="M6.80706 9.18655C7.04417 9.18655 7.27091 9.16397 7.4873 9.1188C7.70369 9.07364 7.89419 8.99818 8.05907 8.8927C8.22396 8.78723 8.35532 8.64402 8.45343 8.46309C8.551 8.28242 8.60033 8.05154 8.60033 7.76992C8.60033 7.21756 8.44035 6.82328 8.12094 6.58708C7.80126 6.35115 7.37911 6.23292 6.85339 6.23292H4.21038V9.18655H6.80706ZM6.66807 4.62048C7.10085 4.62048 7.45623 4.52032 7.73449 4.31919C8.01274 4.11833 8.15201 3.79181 8.15201 3.33961C8.15201 3.0888 8.10541 2.88263 8.01275 2.72162C7.92008 2.56115 7.79635 2.43548 7.64183 2.34515C7.4873 2.25481 7.30961 2.19185 7.10848 2.15678C6.90763 2.1217 6.69887 2.1039 6.48248 2.1039H4.21038V4.62048H6.66807ZM6.97712 0.265625C7.50256 0.265625 7.98195 0.310792 8.41446 0.401125C8.84751 0.491723 9.21843 0.639976 9.52748 0.845617C9.8368 1.05179 10.0764 1.32571 10.2464 1.66685C10.4165 2.00852 10.5015 2.43043 10.5015 2.93284C10.5015 3.47537 10.3751 3.92757 10.1227 4.2889C9.87005 4.65077 9.49668 4.94701 9.00204 5.17815C9.68228 5.36918 10.1897 5.70315 10.5247 6.18032C10.8593 6.65749 11.027 7.2327 11.027 7.90568C11.027 8.44821 10.9188 8.91794 10.7024 9.31461C10.486 9.71155 10.1949 10.0357 9.8289 10.2868C9.46316 10.5378 9.04564 10.7238 8.57716 10.8442C8.10786 10.9648 7.62629 11.0251 7.13165 11.0251H1.7832V0.265625H6.97712Z" fill="#231F20"/>
<path fill-rule="evenodd" clip-rule="evenodd" d="M16.4912 5.05779C16.2285 4.7767 15.829 4.63588 15.2932 4.63588C14.9427 4.63588 14.6516 4.69354 14.42 4.80911C14.1881 4.92468 14.0025 5.06789 13.8635 5.23846C13.7245 5.40956 13.6264 5.59023 13.5697 5.78099C13.513 5.97202 13.4795 6.14285 13.4694 6.2935H17.0401C16.9368 5.75097 16.7542 5.33915 16.4912 5.05779ZM14.0104 9.15653C14.3399 9.46817 14.8141 9.62387 15.4324 9.62387C15.8756 9.62387 16.2568 9.51573 16.5763 9.29973C16.8957 9.08373 17.0913 8.85497 17.1638 8.614H19.0961C18.7868 9.54841 18.3126 10.2166 17.6737 10.6183C17.0347 11.0203 16.2617 11.2212 15.3553 11.2212C14.7266 11.2212 14.1597 11.1231 13.655 10.9273C13.1497 10.7312 12.7221 10.4525 12.3716 10.0909C12.0214 9.72934 11.7508 9.29734 11.5603 8.79493C11.3695 8.29278 11.2744 7.74015 11.2744 7.13731C11.2744 6.55493 11.3723 6.0124 11.5682 5.50999C11.7636 5.00758 12.0419 4.57318 12.4027 4.20627C12.7633 3.83989 13.1936 3.55082 13.6934 3.33987C14.193 3.12891 14.747 3.02344 15.3553 3.02344C16.0353 3.02344 16.6278 3.1515 17.1328 3.40762C17.6375 3.66374 18.0526 4.00807 18.3771 4.43981C18.7017 4.87208 18.9361 5.36413 19.0803 5.91675C19.2244 6.46911 19.276 7.04698 19.2348 7.64956H13.4694C13.5002 8.34273 13.6803 8.84541 14.0104 9.15653Z" fill="#231F20"/>
<path fill-rule="evenodd" clip-rule="evenodd" d="M25.3411 6.18032C25.2793 5.88408 25.1735 5.62265 25.0242 5.39655C24.8748 5.17071 24.6816 4.98766 24.4445 4.84658C24.2074 4.70603 23.9087 4.63589 23.5479 4.63589C23.187 4.63589 22.8834 4.70603 22.636 4.84658C22.3888 4.98766 22.1901 5.17337 22.0408 5.40452C21.8914 5.6354 21.7832 5.89922 21.7162 6.19546C21.6491 6.4917 21.6159 6.8007 21.6159 7.12218C21.6159 7.42346 21.6519 7.72475 21.7241 8.02657C21.796 8.32786 21.9118 8.59673 22.0718 8.83266C22.2313 9.06859 22.4324 9.25962 22.6747 9.40521C22.9167 9.55107 23.2077 9.62361 23.5479 9.62361C23.9087 9.62361 24.2101 9.55346 24.4524 9.41265C24.6941 9.2721 24.8876 9.08373 25.0318 8.8478C25.1762 8.61161 25.2793 8.34274 25.3411 8.04145C25.403 7.74016 25.4338 7.42878 25.4338 7.10703C25.4338 6.78555 25.403 6.47682 25.3411 6.18032ZM25.4338 10.0306C25.1762 10.4525 24.8386 10.7565 24.4213 10.9422C24.0041 11.1282 23.5326 11.2212 23.0069 11.2212C22.4092 11.2212 21.8835 11.108 21.4303 10.8819C20.9768 10.6561 20.6034 10.3495 20.3096 9.96289C20.0158 9.57605 19.794 9.13156 19.6449 8.62914C19.4953 8.12673 19.4209 7.6044 19.4209 7.06187C19.4209 6.53979 19.4953 6.03499 19.6449 5.54746C19.794 5.06045 20.0158 4.63084 20.3096 4.25915C20.6034 3.88745 20.9716 3.58856 21.4147 3.36246C21.8579 3.13636 22.3732 3.02344 22.9606 3.02344C23.4345 3.02344 23.8855 3.12121 24.3131 3.31729C24.7407 3.5131 25.0784 3.8019 25.3256 4.18369H25.3564V0.265625H27.5516V11.0251H25.4649V10.0306H25.4338Z" fill="#231F20"/>
<path fill-rule="evenodd" clip-rule="evenodd" d="M30.5194 3.23439V4.68105H30.5505C30.6532 4.44007 30.7922 4.21637 30.9677 4.01046C31.1429 3.80455 31.3438 3.62894 31.5706 3.48307C31.797 3.33774 32.0396 3.2243 32.2968 3.14406C32.5547 3.06356 32.8228 3.02344 33.1008 3.02344C33.245 3.02344 33.4047 3.04868 33.5802 3.09889V5.08782C33.4769 5.06789 33.3532 5.05009 33.209 5.03521C33.0646 5.02007 32.9256 5.01263 32.7918 5.01263C32.3898 5.01263 32.0499 5.07798 31.7714 5.20844C31.4934 5.33915 31.2691 5.51743 31.0991 5.74326C30.929 5.96936 30.8077 6.23319 30.7358 6.53447C30.6636 6.83603 30.6276 7.16255 30.6276 7.51406V11.0254H28.4326V3.23439H30.5194Z" fill="#231F20"/>
<path fill-rule="evenodd" clip-rule="evenodd" d="M35.4351 8.04915C35.497 8.34565 35.6024 8.61187 35.7521 8.8478C35.9011 9.08399 36.0998 9.27236 36.347 9.41291C36.5942 9.55372 36.9035 9.62387 37.2747 9.62387C37.6456 9.62387 37.9568 9.55372 38.2097 9.41291C38.4621 9.27236 38.663 9.08399 38.8126 8.8478C38.9617 8.61187 39.0677 8.34565 39.1295 8.04915C39.1911 7.75291 39.2222 7.44896 39.2222 7.13758C39.2222 6.8262 39.1911 6.51959 39.1295 6.21831C39.0677 5.91702 38.9617 5.6508 38.8126 5.41966C38.663 5.18851 38.4621 5.00014 38.2097 4.85454C37.9568 4.70895 37.6456 4.63588 37.2747 4.63588C36.9035 4.63588 36.5942 4.70895 36.347 4.85454C36.0998 5.00014 35.9011 5.18851 35.7521 5.41966C35.6024 5.6508 35.497 5.91702 35.4351 6.21831C35.3732 6.51959 35.3424 6.8262 35.3424 7.13758C35.3424 7.44896 35.3732 7.75291 35.4351 8.04915ZM33.441 5.44197C33.6367 4.93505 33.9149 4.50278 34.2757 4.14622C34.6363 3.78967 35.0694 3.51336 35.5741 3.31755C36.0791 3.12148 36.646 3.02344 37.2747 3.02344C37.9029 3.02344 38.4725 3.12148 38.9826 3.31755C39.4926 3.51336 39.9278 3.78967 40.2889 4.14622C40.6492 4.50278 40.9277 4.93505 41.1234 5.44197C41.3191 5.94943 41.4172 6.51481 41.4172 7.13758C41.4172 7.76061 41.3191 8.32307 41.1234 8.82521C40.9277 9.32763 40.6492 9.75724 40.2889 10.1138C39.9278 10.4703 39.4926 10.7443 38.9826 10.935C38.4725 11.1258 37.9029 11.2212 37.2747 11.2212C36.646 11.2212 36.0791 11.1258 35.5741 10.935C35.0694 10.7443 34.6363 10.4703 34.2757 10.1138C33.9149 9.75724 33.6367 9.32763 33.441 8.82521C33.2453 8.32307 33.1475 7.76061 33.1475 7.13758C33.1475 6.51481 33.2453 5.94943 33.441 5.44197Z" fill="#231F20"/>
<path fill-rule="evenodd" clip-rule="evenodd" d="M43.9134 9.08878C44.0112 9.25456 44.1374 9.39006 44.2919 9.49554C44.4467 9.60102 44.6244 9.67913 44.8253 9.72934C45.0264 9.77982 45.2351 9.80453 45.4515 9.80453C45.6058 9.80453 45.7682 9.78726 45.9383 9.75193C46.1083 9.71659 46.2629 9.66133 46.4021 9.58614C46.5411 9.51068 46.6569 9.41025 46.7499 9.28459C46.8425 9.15918 46.8889 9.00083 46.8889 8.81007C46.8889 8.48859 46.6698 8.24735 46.2318 8.08687C45.7938 7.92613 45.1834 7.7654 44.4001 7.60439C44.0807 7.53425 43.7689 7.45135 43.465 7.35597C43.1609 7.26059 42.8905 7.13492 42.6534 6.97897C42.4163 6.82354 42.2258 6.62746 42.0817 6.39153C41.9372 6.15534 41.865 5.86654 41.865 5.52487C41.865 5.02272 41.9656 4.61091 42.1664 4.28916C42.3676 3.96768 42.6327 3.71422 42.9628 3.52824C43.2925 3.34253 43.6635 3.21154 44.0755 3.13635C44.4876 3.06116 44.9103 3.02344 45.3433 3.02344C45.7758 3.02344 46.1958 3.06356 46.603 3.14406C47.0099 3.2243 47.3732 3.36006 47.6928 3.55082C48.0122 3.74185 48.2774 3.99532 48.4889 4.31201C48.6998 4.62818 48.8263 5.0275 48.8674 5.50999H46.7807C46.7499 5.09791 46.5899 4.81921 46.3016 4.67361C46.0129 4.52802 45.6728 4.45495 45.2815 4.45495C45.1575 4.45495 45.0237 4.46266 44.8795 4.47754C44.735 4.49268 44.6037 4.52536 44.4854 4.57557C44.3669 4.62605 44.2663 4.69859 44.1837 4.79397C44.1011 4.88961 44.0603 5.01767 44.0603 5.17841C44.0603 5.36918 44.1322 5.52487 44.2766 5.64549C44.4208 5.76611 44.6089 5.86388 44.8408 5.93934C45.0727 6.01479 45.3379 6.08254 45.6369 6.14285C45.9356 6.20316 46.2397 6.26852 46.5488 6.3384C46.8682 6.40907 47.1799 6.49435 47.4841 6.59478C47.788 6.69521 48.0583 6.82832 48.2957 6.99411C48.5325 7.1599 48.723 7.36607 48.8674 7.61183C49.0116 7.85839 49.0838 8.16206 49.0838 8.52393C49.0838 9.03617 48.9781 9.46552 48.7672 9.81224C48.5557 10.1587 48.2801 10.4374 47.94 10.6483C47.5999 10.8596 47.211 11.0078 46.773 11.0928C46.3348 11.1781 45.8892 11.2212 45.436 11.2212C44.9721 11.2212 44.5187 11.1757 44.0755 11.0854C43.6324 10.9951 43.2383 10.8442 42.893 10.6332C42.5477 10.4225 42.2643 10.1435 42.043 9.79709C41.8211 9.45037 41.7001 9.01598 41.6797 8.49364H43.7665C43.7665 8.72479 43.8152 8.92299 43.9134 9.08878Z" fill="#231F20"/>
<path fill-rule="evenodd" clip-rule="evenodd" d="M49.6553 11.0251H51.8503V3.23413H49.6553V11.0251ZM49.6553 2.02872H51.8503V0.265625H49.6553V2.02872Z" fill="#231F20"/>
<path fill-rule="evenodd" clip-rule="evenodd" d="M57.7861 7.21277C57.6935 7.29327 57.5774 7.35597 57.4384 7.40114C57.2994 7.44631 57.1498 7.48403 56.9903 7.51406C56.8303 7.54434 56.6627 7.56958 56.4878 7.58951C56.3125 7.60997 56.1373 7.63468 55.9621 7.66496C55.7972 7.69499 55.6348 7.73511 55.4753 7.78559C55.3153 7.8358 55.1761 7.90382 55.0581 7.98884C54.9393 8.07439 54.8441 8.18225 54.7719 8.31297C54.6997 8.44369 54.6637 8.60921 54.6637 8.81007C54.6637 9.0011 54.6997 9.16184 54.7719 9.29229C54.8441 9.42301 54.942 9.52609 55.0657 9.60128C55.1892 9.67674 55.3333 9.72934 55.4985 9.75936C55.6631 9.78965 55.8332 9.80453 56.0087 9.80453C56.4414 9.80453 56.7761 9.73466 57.0132 9.59358C57.2503 9.45329 57.4256 9.28485 57.5389 9.08904C57.652 8.89296 57.7218 8.69476 57.7477 8.49364C57.773 8.29278 57.7861 8.13204 57.7861 8.01142V7.21277ZM52.7162 5.63034C52.747 5.1282 52.8756 4.71134 53.1024 4.37976C53.3291 4.04819 53.6177 3.78224 53.9682 3.58111C54.3182 3.38025 54.7125 3.23705 55.1507 3.1515C55.5887 3.06648 56.0291 3.02344 56.4722 3.02344C56.8742 3.02344 57.2811 3.05133 57.6935 3.10633C58.1055 3.16159 58.4819 3.26973 58.822 3.43047C59.1619 3.59121 59.4401 3.81465 59.6565 4.10106C59.8729 4.3872 59.9811 4.7666 59.9811 5.23872V9.29229C59.9811 9.64406 60.0018 9.98068 60.043 10.3019C60.0841 10.6236 60.1563 10.8646 60.2593 11.0254H58.0336C57.9922 10.9047 57.9586 10.782 57.933 10.6561C57.9071 10.5306 57.8891 10.4026 57.8788 10.2719C57.5286 10.6236 57.1162 10.8697 56.6423 11.0102C56.1681 11.151 55.6841 11.2212 55.1892 11.2212C54.8079 11.2212 54.4525 11.176 54.1227 11.0857C53.7927 10.9951 53.5044 10.8545 53.2569 10.6638C53.0097 10.473 52.8168 10.232 52.6775 9.9403C52.5382 9.6491 52.4688 9.30239 52.4688 8.90067C52.4688 8.45857 52.5486 8.09431 52.7083 7.8079C52.868 7.52176 53.074 7.29327 53.3267 7.12243C53.579 6.95186 53.8677 6.82354 54.1922 6.73825C54.5168 6.65297 54.8441 6.58495 55.1739 6.53474C55.5037 6.48452 55.828 6.4444 56.1477 6.41412C56.4671 6.38383 56.7505 6.33866 56.998 6.27835C57.2451 6.21831 57.4408 6.13036 57.5853 6.01479C57.7294 5.89948 57.7965 5.73104 57.7861 5.50999C57.7861 5.27911 57.7477 5.09552 57.6703 4.96002C57.5932 4.82425 57.4899 4.71878 57.361 4.64359C57.2321 4.56813 57.0827 4.51792 56.9127 4.49268C56.7429 4.4677 56.5597 4.45522 56.364 4.45522C55.9313 4.45522 55.5911 4.54555 55.344 4.72648C55.0965 4.90715 54.9523 5.2087 54.9112 5.63034H52.7162Z" fill="#231F20"/>
<path fill-rule="evenodd" clip-rule="evenodd" d="M62.995 3.23439V4.31945H63.0413C63.3196 3.86726 63.6804 3.53834 64.1235 3.33243C64.5667 3.12652 65.0202 3.02344 65.4838 3.02344C66.0713 3.02344 66.5529 3.10155 66.9293 3.25698C67.3051 3.41293 67.6016 3.62894 67.8177 3.90498C68.0344 4.1813 68.1862 4.51792 68.2739 4.91459C68.3612 5.31152 68.4053 5.75097 68.4053 6.23319V11.0254H66.2103V6.62507C66.2103 5.98211 66.107 5.50255 65.9013 5.18585C65.695 4.86942 65.3292 4.71134 64.8038 4.71134C64.2058 4.71134 63.7731 4.8843 63.5052 5.23102C63.2373 5.57774 63.1034 6.1479 63.1034 6.9415V11.0254H60.9082V3.23439H62.995Z" fill="#231F20"/>
<path fill-rule="evenodd" clip-rule="evenodd" d="M71.1487 9.08878C71.2466 9.25456 71.3727 9.39006 71.5275 9.49554C71.6821 9.60102 71.8597 9.67913 72.0609 9.72934C72.2617 9.77982 72.4705 9.80453 72.6869 9.80453C72.8411 9.80453 73.0036 9.78726 73.1736 9.75193C73.3437 9.71659 73.4982 9.66133 73.6375 9.58614C73.7765 9.51068 73.8926 9.41025 73.9852 9.28459C74.0779 9.15918 74.1242 9.00083 74.1242 8.81007C74.1242 8.48859 73.9051 8.24735 73.4671 8.08687C73.0292 7.92613 72.4187 7.7654 71.6355 7.60439C71.316 7.53425 71.0043 7.45135 70.7004 7.35597C70.3962 7.26059 70.1259 7.13492 69.8888 6.97897C69.6517 6.82354 69.4612 6.62746 69.317 6.39153C69.1726 6.15534 69.1004 5.86654 69.1004 5.52487C69.1004 5.02272 69.2009 4.61091 69.4018 4.28916C69.6029 3.96768 69.8681 3.71422 70.1981 3.52824C70.5279 3.34253 70.8988 3.21154 71.3111 3.13635C71.7229 3.06116 72.1456 3.02344 72.5787 3.02344C73.0112 3.02344 73.4312 3.06356 73.8383 3.14406C74.2452 3.2243 74.6085 3.36006 74.9282 3.55082C75.2476 3.74185 75.5128 3.99532 75.7243 4.31201C75.9352 4.62818 76.0616 5.0275 76.1028 5.50999H74.016C73.9852 5.09791 73.8252 4.81921 73.5369 4.67361C73.2483 4.52802 72.9085 4.45495 72.5168 4.45495C72.3928 4.45495 72.259 4.46266 72.1148 4.47754C71.9704 4.49268 71.839 4.52536 71.7208 4.57557C71.6022 4.62605 71.5016 4.69859 71.4193 4.79397C71.3365 4.88961 71.2956 5.01767 71.2956 5.17841C71.2956 5.36918 71.3676 5.52487 71.512 5.64549C71.6562 5.76611 71.8442 5.86388 72.0761 5.93934C72.3081 6.01479 72.5732 6.08254 72.8722 6.14285C73.1709 6.20316 73.475 6.26852 73.7844 6.3384C74.1035 6.40907 74.4153 6.49435 74.7194 6.59478C75.0233 6.69521 75.2937 6.82832 75.531 6.99411C75.7679 7.1599 75.9584 7.36607 76.1028 7.61183C76.247 7.85839 76.3192 8.16206 76.3192 8.52393C76.3192 9.03617 76.2134 9.46552 76.0025 9.81224C75.791 10.1587 75.5155 10.4374 75.1754 10.6483C74.8353 10.8596 74.4464 11.0078 74.0084 11.0928C73.5702 11.1781 73.1246 11.2212 72.6714 11.2212C72.2075 11.2212 71.754 11.1757 71.3111 11.0854C70.8677 10.9951 70.4736 10.8442 70.1286 10.6332C69.783 10.4225 69.4996 10.1435 69.2783 9.79709C69.0565 9.45037 68.9355 9.01598 68.915 8.49364H71.0018C71.0018 8.72479 71.0506 8.92299 71.1487 9.08878Z" fill="#231F20"/>
<path fill-rule="evenodd" clip-rule="evenodd" d="M0.917969 16.5387V14.5498H9.96086V16.5387H6.65287V25.309H4.22596V16.5387H0.917969Z" fill="#231F20"/>
<path fill-rule="evenodd" clip-rule="evenodd" d="M10.2852 25.309H12.4801V17.5183H10.2852V25.309ZM10.2852 16.3129H12.4801V14.5498H10.2852V16.3129Z" fill="#231F20"/>
<path fill-rule="evenodd" clip-rule="evenodd" d="M13.5 25.3093H15.695V14.5498H13.5V25.3093Z" fill="#231F20"/>
<path fill-rule="evenodd" clip-rule="evenodd" d="M21.4844 19.342C21.2217 19.0606 20.8221 18.9198 20.2863 18.9198C19.9361 18.9198 19.6448 18.978 19.4131 19.0933C19.1812 19.2089 18.9956 19.3521 18.8566 19.5226C18.7176 19.6935 18.6195 19.8744 18.5628 20.0652C18.5062 20.2562 18.4726 20.427 18.4626 20.5774H22.0333C21.93 20.0351 21.7474 19.6233 21.4844 19.342ZM19.0035 23.4407C19.333 23.7524 19.8072 23.908 20.4256 23.908C20.8687 23.908 21.25 23.7999 21.5694 23.5839C21.8888 23.3679 22.0845 23.1394 22.157 22.8982H24.0893C23.7799 23.8323 23.3057 24.5008 22.6669 24.9025C22.0278 25.3042 21.2549 25.5051 20.3485 25.5051C19.7197 25.5051 19.1529 25.4073 18.6481 25.2115C18.1429 25.0154 17.7153 24.7367 17.3651 24.3749C17.0146 24.0135 16.744 23.5815 16.5535 23.0788C16.3627 22.577 16.2676 22.0243 16.2676 21.4215C16.2676 20.8391 16.3654 20.2966 16.5614 19.7939C16.7568 19.2918 17.035 18.8574 17.3959 18.4905C17.7564 18.1238 18.1867 17.835 18.6866 17.624C19.1861 17.4131 19.7402 17.3076 20.3485 17.3076C21.0284 17.3076 21.6209 17.4354 22.1259 17.6918C22.6307 17.9479 23.0457 18.2922 23.3703 18.724C23.6949 19.1563 23.9293 19.6483 24.0734 20.2007C24.2179 20.7533 24.2691 21.3309 24.2282 21.9337H18.4626C18.4933 22.6269 18.6735 23.1296 19.0035 23.4407Z" fill="#231F20"/>
<path fill-rule="evenodd" clip-rule="evenodd" d="M31.1906 16.1625C30.9898 15.9616 30.7551 15.8612 30.4872 15.8612C30.2193 15.8612 29.9874 15.9491 29.792 16.125C29.5958 16.3009 29.4982 16.5294 29.4982 16.8105C29.4982 17.1522 29.5909 17.4434 29.7765 17.6846C29.9618 17.9256 30.1575 18.1721 30.3638 18.4229C30.6728 18.2324 30.9383 18.0263 31.1599 17.8052C31.3814 17.5842 31.4921 17.2776 31.4921 16.886C31.4921 16.6049 31.3918 16.3636 31.1906 16.1625ZM29.1426 20.8492C28.957 20.9597 28.7921 21.0902 28.6479 21.2411C28.5035 21.3917 28.3874 21.5572 28.3002 21.7382C28.2124 21.9191 28.1688 22.12 28.1688 22.3407C28.1688 22.532 28.2124 22.7154 28.3002 22.891C28.3874 23.0671 28.5035 23.2175 28.6479 23.3432C28.7921 23.4688 28.9594 23.569 29.1502 23.6445C29.341 23.7199 29.5391 23.7574 29.7454 23.7574C30.137 23.7574 30.4796 23.6697 30.7734 23.4936C31.0672 23.3182 31.3427 23.0894 31.6003 22.8081L29.7143 20.5628C29.5187 20.6435 29.3282 20.7387 29.1426 20.8492ZM31.3452 25.1892C30.8454 25.4001 30.2812 25.5056 29.6527 25.5056C29.1581 25.5056 28.6918 25.4352 28.2538 25.2946C27.8156 25.1541 27.4371 24.9455 27.1177 24.6692C26.798 24.3929 26.5459 24.0563 26.36 23.6596C26.1747 23.2629 26.082 22.8081 26.082 22.2956C26.082 21.9141 26.1488 21.5647 26.2829 21.2485C26.4167 20.9321 26.5998 20.6459 26.8315 20.3895C27.0634 20.1334 27.3289 19.9049 27.6278 19.7041C27.9265 19.5032 28.2356 19.3271 28.5553 19.1764C28.2563 18.8249 28.0064 18.4734 27.8055 18.1217C27.6047 17.7699 27.5041 17.3581 27.5041 16.886C27.5041 16.5143 27.584 16.1776 27.7437 15.8763C27.9034 15.5751 28.117 15.3163 28.3852 15.1C28.6528 14.8843 28.9594 14.7185 29.305 14.6029C29.65 14.4873 30.0081 14.4297 30.379 14.4297C30.8017 14.4297 31.1958 14.4849 31.5616 14.5955C31.9273 14.706 32.2467 14.8691 32.5201 15.0851C32.7929 15.3014 33.0093 15.57 33.1692 15.8912C33.3289 16.213 33.4091 16.5844 33.4091 17.0063C33.4091 17.6392 33.2207 18.1721 32.8446 18.6039C32.4683 19.0359 32.0022 19.3975 31.4457 19.6889L32.8678 21.3917C32.9812 21.1909 33.0689 20.9823 33.1305 20.7663C33.1927 20.5503 33.2387 20.3319 33.2698 20.1108H35.171C35.1195 20.5928 35.0061 21.0601 34.8311 21.5121C34.6556 21.9643 34.4136 22.3814 34.1046 22.7629L36.3459 25.3095H33.6562L32.7596 24.2396C32.3165 24.6618 31.845 24.9779 31.3452 25.1892Z" fill="#231F20"/>
<path fill-rule="evenodd" clip-rule="evenodd" d="M39.6857 22.6575C39.8195 22.9085 39.9975 23.1123 40.2191 23.268C40.4406 23.4237 40.7009 23.539 40.9996 23.6145C41.2983 23.6899 41.6076 23.7274 41.9273 23.7274C42.1437 23.7274 42.3753 23.7101 42.6228 23.6748C42.87 23.6394 43.1019 23.5717 43.3183 23.4713C43.5347 23.3711 43.7148 23.2327 43.8593 23.0571C44.0037 22.8814 44.0757 22.6575 44.0757 22.3862C44.0757 22.095 43.9803 21.8588 43.7898 21.6779C43.599 21.4972 43.3494 21.3463 43.04 21.2259C42.731 21.1053 42.3805 20.9999 41.9892 20.9095C41.5973 20.8189 41.2007 20.7188 40.7987 20.608C40.3864 20.5078 39.9844 20.3845 39.5931 20.2389C39.2012 20.0933 38.8509 19.9052 38.5419 19.6738C38.2328 19.4427 37.9827 19.1539 37.7922 18.8074C37.6014 18.4607 37.5063 18.0414 37.5063 17.5489C37.5063 16.9965 37.6273 16.5169 37.8696 16.1099C38.1116 15.7029 38.4285 15.3639 38.8202 15.0926C39.2115 14.8213 39.6549 14.6205 40.1496 14.49C40.6442 14.3596 41.1389 14.2939 41.6335 14.2939C42.2105 14.2939 42.7642 14.3569 43.2951 14.4823C43.8258 14.6083 44.2972 14.8115 44.7096 15.0926C45.1216 15.374 45.4487 15.7332 45.6912 16.1702C45.9332 16.6073 46.0545 17.1373 46.0545 17.7598H43.7047C43.684 17.4383 43.6145 17.1721 43.496 16.9614C43.3774 16.7502 43.2202 16.5847 43.0245 16.4641C42.8288 16.3434 42.6045 16.2582 42.3522 16.2079C42.0995 16.1577 41.824 16.1325 41.5253 16.1325C41.3294 16.1325 41.1334 16.1527 40.9377 16.1928C40.7418 16.2332 40.5644 16.3033 40.4047 16.4038C40.2447 16.5042 40.1133 16.6299 40.0103 16.7805C39.9073 16.9311 39.8561 17.1222 39.8561 17.353C39.8561 17.564 39.8969 17.7351 39.9795 17.8656C40.0618 17.996 40.2242 18.1166 40.4665 18.2272C40.7083 18.3377 41.0432 18.4482 41.4713 18.5587C41.8987 18.6693 42.4576 18.8101 43.1485 18.9806C43.3543 19.0208 43.6402 19.0938 44.0062 19.199C44.3719 19.3048 44.7352 19.473 45.096 19.7041C45.4566 19.9352 45.7684 20.244 46.0311 20.6308C46.2938 21.0174 46.4252 21.5121 46.4252 22.1152C46.4252 22.6075 46.3273 23.0645 46.1316 23.4864C45.936 23.9083 45.6449 24.2726 45.2582 24.5786C44.8717 24.8855 44.3926 25.1238 43.8208 25.2947C43.2488 25.4652 42.5865 25.551 41.8344 25.551C41.2263 25.551 40.6363 25.4777 40.0645 25.3321C39.4928 25.1868 38.9875 24.9583 38.5498 24.6467C38.1116 24.3353 37.7638 23.9383 37.5063 23.4564C37.2487 22.9739 37.125 22.4013 37.1354 21.7382H39.4849C39.4849 22.0998 39.5516 22.4067 39.6857 22.6575Z" fill="#231F20"/>
<path fill-rule="evenodd" clip-rule="evenodd" d="M51.2473 17.5183V18.95H49.6396V22.8075C49.6396 23.1694 49.7015 23.4104 49.8252 23.531C49.9487 23.6516 50.1961 23.7119 50.5671 23.7119C50.6908 23.7119 50.8091 23.7069 50.9227 23.6965C51.0361 23.687 51.1443 23.6718 51.2473 23.6516V25.309C51.0617 25.3392 50.8554 25.3594 50.6289 25.3693C50.4022 25.3794 50.1806 25.3844 49.9642 25.3844C49.6241 25.3844 49.302 25.3618 48.9984 25.3167C48.6942 25.2715 48.426 25.1836 48.1944 25.0528C47.9625 24.9224 47.7793 24.7364 47.6458 24.4954C47.5114 24.2545 47.4446 23.9378 47.4446 23.5459V18.95H46.1152V17.5183H47.4446V15.1826H49.6396V17.5183H51.2473Z" fill="#231F20"/>
<path fill-rule="evenodd" clip-rule="evenodd" d="M53.566 22.3333C53.6278 22.6296 53.7333 22.8958 53.8829 23.132C54.032 23.3682 54.2307 23.5565 54.4779 23.6968C54.725 23.8376 55.0344 23.908 55.4056 23.908C55.7765 23.908 56.0877 23.8376 56.3406 23.6968C56.593 23.5565 56.7938 23.3682 56.9435 23.132C57.0925 22.8958 57.1985 22.6296 57.2604 22.3333C57.322 22.0371 57.3531 21.7329 57.3531 21.4215C57.3531 21.1101 57.322 20.8035 57.2604 20.5022C57.1985 20.2009 57.0925 19.935 56.9435 19.7038C56.7938 19.4724 56.593 19.2841 56.3406 19.1387C56.0877 18.9931 55.7765 18.9198 55.4056 18.9198C55.0344 18.9198 54.725 18.9931 54.4779 19.1387C54.2307 19.2841 54.032 19.4724 53.8829 19.7038C53.7333 19.935 53.6278 20.2009 53.566 20.5022C53.5041 20.8035 53.4733 21.1101 53.4733 21.4215C53.4733 21.7329 53.5041 22.0371 53.566 22.3333ZM51.5718 19.7262C51.7675 19.219 52.0458 18.787 52.4066 18.4304C52.7672 18.0739 53.2002 17.7973 53.705 17.6015C54.21 17.4057 54.7768 17.3076 55.4056 17.3076C56.0337 17.3076 56.6033 17.4057 57.1135 17.6015C57.6234 17.7973 58.0587 18.0739 58.4198 18.4304C58.78 18.787 59.0586 19.219 59.2543 19.7262C59.4499 20.2336 59.548 20.7987 59.548 21.4215C59.548 22.0445 59.4499 22.607 59.2543 23.1094C59.0586 23.6118 58.78 24.0412 58.4198 24.398C58.0587 24.7545 57.6234 25.0284 57.1135 25.2189C56.6033 25.4097 56.0337 25.5051 55.4056 25.5051C54.7768 25.5051 54.21 25.4097 53.705 25.2189C53.2002 25.0284 52.7672 24.7545 52.4066 24.398C52.0458 24.0412 51.7675 23.6118 51.5718 23.1094C51.3762 22.607 51.2783 22.0445 51.2783 21.4215C51.2783 20.7987 51.3762 20.2336 51.5718 19.7262Z" fill="#231F20"/>
<path fill-rule="evenodd" clip-rule="evenodd" d="M62.284 17.5186V18.6036H62.3304C62.6086 18.1517 62.9692 17.8228 63.4126 17.6166C63.8555 17.4107 64.309 17.3076 64.7725 17.3076C65.3601 17.3076 65.8417 17.3857 66.2181 17.5412C66.5939 17.6971 66.8904 17.9128 67.1068 18.1889C67.3234 18.4655 67.4752 18.8021 67.5627 19.1988C67.6502 19.5957 67.6944 20.0354 67.6944 20.5174V25.3093H65.4994V20.9093C65.4994 20.2666 65.3961 19.7865 65.1903 19.47C64.9838 19.1536 64.618 18.9955 64.0926 18.9955C63.4946 18.9955 63.0619 19.1687 62.7942 19.5155C62.5261 19.8617 62.3922 20.4321 62.3922 21.2257V25.3093H60.1973V17.5186H62.284Z" fill="#231F20"/>
<path fill-rule="evenodd" clip-rule="evenodd" d="M73.4212 19.342C73.1585 19.0606 72.7589 18.9198 72.2231 18.9198C71.8727 18.9198 71.5816 18.978 71.3499 19.0933C71.118 19.2089 70.9324 19.3521 70.7934 19.5226C70.6544 19.6935 70.5561 19.8744 70.4996 20.0652C70.443 20.2562 70.4094 20.427 70.3994 20.5774H73.9701C73.8668 20.0351 73.6839 19.6233 73.4212 19.342ZM70.9403 23.4407C71.2698 23.7524 71.744 23.908 72.3624 23.908C72.8053 23.908 73.1868 23.7999 73.5062 23.5839C73.8256 23.3679 74.0213 23.1394 74.0938 22.8982H76.0258C75.7167 23.8323 75.2425 24.5008 74.6037 24.9025C73.9646 25.3042 73.1917 25.5051 72.285 25.5051C71.6563 25.5051 71.0894 25.4073 70.5847 25.2115C70.0797 25.0154 69.6521 24.7367 69.3016 24.3749C68.9514 24.0135 68.6808 23.5815 68.4903 23.0788C68.2995 22.577 68.2041 22.0243 68.2041 21.4215C68.2041 20.8391 68.3019 20.2966 68.4982 19.7939C68.6936 19.2918 68.9718 18.8574 69.3327 18.4905C69.6932 18.1238 70.1233 17.835 70.6234 17.624C71.1229 17.4131 71.677 17.3076 72.285 17.3076C72.9652 17.3076 73.5575 17.4354 74.0627 17.6918C74.5675 17.9479 74.9825 18.2922 75.3071 18.724C75.6317 19.1563 75.8661 19.6483 76.0102 20.2007C76.1544 20.7533 76.2059 21.3309 76.1648 21.9337H70.3994C70.4302 22.6269 70.6103 23.1296 70.9403 23.4407Z" fill="#231F20"/>
<path fill-rule="evenodd" clip-rule="evenodd" d="M77.6634 2.83921H77.867C77.9787 2.83921 78.0346 2.79272 78.0346 2.70318C78.0346 2.62135 77.9866 2.56688 77.8711 2.56688H77.6634V2.83921ZM77.3443 2.32963H77.9228C78.1583 2.32963 78.3537 2.44626 78.3537 2.66412C78.3537 2.80042 78.2938 2.89368 78.1264 2.94442V2.95213C78.2619 2.9872 78.3019 3.03369 78.3218 3.16202C78.3417 3.27892 78.3338 3.43833 78.3818 3.45374V3.48509H78.0665C78.0308 3.46543 78.0308 3.3294 78.0147 3.21648C78.0027 3.11552 77.9468 3.06478 77.8351 3.06478H77.6634V3.48509H77.3443V2.32963ZM78.7688 2.92104C78.7688 2.36071 78.3619 1.95235 77.819 1.95235C77.2685 1.95235 76.8654 2.36071 76.8654 2.92104C76.8654 3.47712 77.2685 3.88947 77.819 3.88947C78.3619 3.88947 78.7688 3.47712 78.7688 2.92104ZM76.6621 2.92104C76.6621 2.26347 77.1728 1.78125 77.819 1.78125C78.4614 1.78125 78.9683 2.26347 78.9683 2.92104C78.9683 3.57038 78.4614 4.05685 77.819 4.05685C77.1728 4.05685 76.6621 3.57038 76.6621 2.92104Z" fill="#231F20"/>
</g>
<defs>
<clipPath id="clip0_3616_38229">
<rect width="80.5867" height="26" fill="white" transform="translate(0.917969)"/>
</clipPath>
</defs>
</svg>
