<svg xmlns="http://www.w3.org/2000/svg" xmlns:xlink="http://www.w3.org/1999/xlink" viewBox="0 0 100 100">
  <defs>
    <style>
      .cls-1 {
        fill: url(#linear-gradient);
      }

      .cls-2 {
        fill: #e6e7e8;
      }

      .cls-3 {
        fill: #f1f2f2;
      }
    </style>
    <linearGradient id="linear-gradient" x1="49.3388" y1="-43.8655" x2="50.6503" y2="142.3453" gradientUnits="userSpaceOnUse">
      <stop offset="0" stop-color="#fff"/>
      <stop offset="0.2175" stop-color="#b5b5b5"/>
      <stop offset="0.4626" stop-color="#686868"/>
      <stop offset="0.6655" stop-color="#303030"/>
      <stop offset="0.8155" stop-color="#0d0d0d"/>
      <stop offset="0.8962"/>
    </linearGradient>
  </defs>
  <g id="Layer_2" data-name="Layer 2">
    <g id="Layer_1-2" data-name="Layer 1">
      <g>
        <circle class="cls-1" cx="49.9999" cy="50.0002" r="49.5"/>
        <path class="cls-2" d="M50,1A49,49,0,1,1,1,50,49.0555,49.0555,0,0,1,50,1m0-1a50,50,0,1,0,50,50A50,50,0,0,0,50,0Z"/>
      </g>
      <g>
        <path class="cls-3" d="M39.7045,32.4587l-1.6079-3.36h-.0723V40.38H34.5922V23.6262h3.9844l4.5844,7.9209,1.608,3.36h.0722V23.6262h3.4321V40.38H44.289Z"/>
        <path class="cls-3" d="M51.32,32.0027c0-5.6885,2.9282-8.6646,7.3687-8.6646s7.3686,2.9761,7.3686,8.6646-2.9282,8.665-7.3686,8.665S51.32,37.6916,51.32,32.0027Zm10.8731,1.2485V30.7546c0-2.664-1.32-4.1762-3.5044-4.1762s-3.5044,1.5122-3.5044,4.1762v2.4966c0,2.6641,1.32,4.1763,3.5044,4.1763S62.1933,35.9153,62.1933,33.2512Z"/>
        <path class="cls-3" d="M12.4164,62.38V59.4753h2.16V48.5305h-2.16V45.6262h7.9688v2.9043h-2.16V59.4753h2.16V62.38Z"/>
        <path class="cls-3" d="M35.9613,51.3865h-.0722l-1.2242,2.4482-3.2641,5.9287-3.1924-5.9043-1.272-2.6406h-.0722V62.38H23.432V45.6262h3.8643l4.1045,7.8486h.0478l4.0567-7.8486h3.8882V62.38H35.9613Z"/>
        <path class="cls-3" d="M53.4086,62.38l-1.2-3.9844H46.6161l-1.2,3.9844H41.72l5.52-16.7534h4.5122L57.2011,62.38Zm-3.96-13.4409h-.12l-1.8481,6.36h3.84Z"/>
        <path class="cls-3" d="M69.44,59.7156h-.12c-.24,1.68-1.7759,2.9521-4.2964,2.9521-3.84,0-6.8642-2.9761-6.8642-8.5928,0-5.6406,3.0483-8.7368,7.5844-8.7368a6.7033,6.7033,0,0,1,6.4566,3.8882L69.2245,50.93a3.4634,3.4634,0,0,0-3.4805-2.352c-2.2563,0-3.72,1.2963-3.72,4.0805v2.688c0,2.7842,1.4639,4.0806,3.72,4.0806,1.8243,0,3.2886-.8643,3.2886-2.4961v-.84H65.912V53.0427h6.6006V62.38H69.44Z"/>
        <path class="cls-3" d="M76.0634,62.38V45.6262H87.4643v3.24H79.7118v3.4322H86.36v3.2163H79.7118v3.6245h7.7525v3.24Z"/>
        <path class="cls-3" d="M21.6215,77.38l-.65-2.1582H17.9423l-.65,2.1582H15.29l2.99-9.0742h2.4443L23.6757,77.38Zm-2.145-7.28h-.065l-1.0009,3.4454h2.08Z"/>
        <path class="cls-3" d="M26.34,77.38l-2.9248-9.0742h2.002l1.352,4.355.7149,2.8472h.039l.689-2.8472,1.3521-4.355h1.937L28.5507,77.38Z"/>
        <path class="cls-3" d="M37.5722,77.38l-.65-2.1582H33.893l-.65,2.1582H31.2406l2.99-9.0742h2.4443L39.6264,77.38Zm-2.145-7.28h-.065l-1.0015,3.4454h2.08Z"/>
        <path class="cls-3" d="M40.5356,77.38V75.8064h1.17V69.8782h-1.17V68.3054H44.852v1.5728h-1.17v5.9282h1.17V77.38Z"/>
        <path class="cls-3" d="M46.5023,77.38V68.3054h1.9761v7.3193h3.458V77.38Z"/>
        <path class="cls-3" d="M59.204,77.38l-.65-2.1582H55.5248l-.65,2.1582H52.8725l2.99-9.0742H58.307L61.2582,77.38Zm-2.145-7.28h-.065l-1.0014,3.4454h2.08Z"/>
        <path class="cls-3" d="M62.5185,68.3054h4.4072a2.1955,2.1955,0,0,1,2.3921,2.3272c0,1.3911-.7671,1.9106-1.69,1.95V72.66a2.007,2.007,0,0,1,2.0411,2.1323,2.442,2.442,0,0,1-2.34,2.5869h-4.81Zm1.976,3.7183h1.9629a.7655.7655,0,0,0,.8321-.8321v-.39a.7653.7653,0,0,0-.8321-.832H64.4945Zm0,3.6919H66.77a.7656.7656,0,0,0,.8448-.8189v-.4424a.7655.7655,0,0,0-.8448-.8188H64.4945Z"/>
        <path class="cls-3" d="M71.1894,77.38V68.3054h1.976v7.3193h3.458V77.38Z"/>
        <path class="cls-3" d="M78.08,77.38V68.3054h6.1753V70.06H80.0556v1.8589h3.601v1.7422h-3.601v1.9633h4.1992V77.38Z"/>
      </g>
    </g>
  </g>
</svg>
