<svg width="22" height="22" viewBox="0 0 22 22" fill="none" xmlns="http://www.w3.org/2000/svg">
<path d="M5.13204 21.6663H0.598694V7.39967H5.13204V21.6663ZM2.86537 5.39967C1.3987 5.39967 0.332031 4.33301 0.332031 2.86634C0.332031 1.39967 1.53203 0.333008 2.86537 0.333008C4.33203 0.333008 5.3987 1.39967 5.3987 2.86634C5.3987 4.33301 4.33203 5.39967 2.86537 5.39967ZM21.6654 21.6663H17.132V13.933C17.132 11.6663 16.1987 10.9997 14.8654 10.9997C13.532 10.9997 12.1987 12.0663 12.1987 14.0663V21.6663H7.66536V7.39967H11.932V9.39967C12.332 8.46634 13.932 6.99967 16.1987 6.99967C18.732 6.99967 21.3987 8.46634 21.3987 12.8663V21.6663H21.6654Z" fill="#9E9E9E"/>
</svg>
