<svg width="22" height="16" viewBox="0 0 22 16" fill="none" xmlns="http://www.w3.org/2000/svg">
<path d="M21.132 2.79987C20.8654 1.86654 20.1987 1.19987 19.2654 0.933203C17.6654 0.533203 10.8654 0.533203 10.8654 0.533203C10.8654 0.533203 4.19871 0.533203 2.46537 0.933203C1.53204 1.19987 0.86536 1.86654 0.598694 2.79987C0.332027 4.5332 0.332031 7.99987 0.332031 7.99987C0.332031 7.99987 0.332035 11.4665 0.732035 13.1999C0.998702 14.1332 1.66536 14.7999 2.59869 15.0665C4.19869 15.4665 10.9987 15.4665 10.9987 15.4665C10.9987 15.4665 17.6653 15.4665 19.3987 15.0665C20.332 14.7999 20.9987 14.1332 21.2654 13.1999C21.6654 11.4665 21.6654 7.99987 21.6654 7.99987C21.6654 7.99987 21.6654 4.5332 21.132 2.79987ZM8.86536 11.1999V4.79987L14.4654 7.99987L8.86536 11.1999Z" fill="#9E9E9E"/>
</svg>
