<svg width="24" height="24" viewBox="0 0 24 24" fill="none" xmlns="http://www.w3.org/2000/svg">
<path d="M12.0003 2.93359C14.9336 2.93359 15.3336 2.93359 16.5336 2.93359C17.6003 2.93359 18.1336 3.20026 18.5336 3.33359C19.0669 3.60026 19.4669 3.73359 19.8669 4.13359C20.2669 4.53359 20.5336 4.93359 20.6669 5.46693C20.8003 5.86693 20.9336 6.40026 21.0669 7.46693C21.0669 8.66693 21.0669 8.93359 21.0669 12.0003C21.0669 15.0669 21.0669 15.3336 21.0669 16.5336C21.0669 17.6003 20.8003 18.1336 20.6669 18.5336C20.4003 19.0669 20.2669 19.4669 19.8669 19.8669C19.4669 20.2669 19.0669 20.5336 18.5336 20.6669C18.1336 20.8003 17.6003 20.9336 16.5336 21.0669C15.3336 21.0669 15.0669 21.0669 12.0003 21.0669C8.93359 21.0669 8.66693 21.0669 7.46693 21.0669C6.40026 21.0669 5.86693 20.8003 5.46693 20.6669C4.93359 20.4003 4.53359 20.2669 4.13359 19.8669C3.73359 19.4669 3.46693 19.0669 3.33359 18.5336C3.20026 18.1336 3.06693 17.6003 2.93359 16.5336C2.93359 15.3336 2.93359 15.0669 2.93359 12.0003C2.93359 8.93359 2.93359 8.66693 2.93359 7.46693C2.93359 6.40026 3.20026 5.86693 3.33359 5.46693C3.60026 4.93359 3.73359 4.53359 4.13359 4.13359C4.53359 3.73359 4.93359 3.46693 5.46693 3.33359C5.86693 3.20026 6.40026 3.06693 7.46693 2.93359C8.66693 2.93359 9.06693 2.93359 12.0003 2.93359ZM12.0003 0.933594C8.93359 0.933594 8.66693 0.933594 7.46693 0.933594C6.26693 0.933594 5.46693 1.20026 4.80026 1.46693C4.13359 1.73359 3.46693 2.13359 2.80026 2.80026C2.13359 3.46693 1.86693 4.00026 1.46693 4.80026C1.20026 5.46693 1.06693 6.26693 0.933594 7.46693C0.933594 8.66693 0.933594 9.06693 0.933594 12.0003C0.933594 15.0669 0.933594 15.3336 0.933594 16.5336C0.933594 17.7336 1.20026 18.5336 1.46693 19.2003C1.73359 19.8669 2.13359 20.5336 2.80026 21.2003C3.46693 21.8669 4.00026 22.1336 4.80026 22.5336C5.46693 22.8003 6.26693 22.9336 7.46693 23.0669C8.66693 23.0669 9.06693 23.0669 12.0003 23.0669C14.9336 23.0669 15.3336 23.0669 16.5336 23.0669C17.7336 23.0669 18.5336 22.8003 19.2003 22.5336C19.8669 22.2669 20.5336 21.8669 21.2003 21.2003C21.8669 20.5336 22.1336 20.0003 22.5336 19.2003C22.8003 18.5336 22.9336 17.7336 23.0669 16.5336C23.0669 15.3336 23.0669 14.9336 23.0669 12.0003C23.0669 9.06693 23.0669 8.66693 23.0669 7.46693C23.0669 6.26693 22.8003 5.46693 22.5336 4.80026C22.2669 4.13359 21.8669 3.46693 21.2003 2.80026C20.5336 2.13359 20.0003 1.86693 19.2003 1.46693C18.5336 1.20026 17.7336 1.06693 16.5336 0.933594C15.3336 0.933594 15.0669 0.933594 12.0003 0.933594Z" fill="#9E9E9E"/>
<path d="M12.0003 6.26693C8.80026 6.26693 6.26693 8.80026 6.26693 12.0003C6.26693 15.2003 8.80026 17.7336 12.0003 17.7336C15.2003 17.7336 17.7336 15.2003 17.7336 12.0003C17.7336 8.80026 15.2003 6.26693 12.0003 6.26693ZM12.0003 15.7336C10.0003 15.7336 8.26693 14.1336 8.26693 12.0003C8.26693 10.0003 9.86693 8.26693 12.0003 8.26693C14.0003 8.26693 15.7336 9.86693 15.7336 12.0003C15.7336 14.0003 14.0003 15.7336 12.0003 15.7336Z" fill="#9E9E9E"/>
<path d="M17.8669 7.46693C18.6033 7.46693 19.2003 6.86997 19.2003 6.13359C19.2003 5.39722 18.6033 4.80026 17.8669 4.80026C17.1305 4.80026 16.5336 5.39722 16.5336 6.13359C16.5336 6.86997 17.1305 7.46693 17.8669 7.46693Z" fill="#9E9E9E"/>
</svg>
