<svg width="22" height="22" viewBox="0 0 22 22" fill="none" xmlns="http://www.w3.org/2000/svg">
<path d="M10.9987 0.333008C5.13203 0.333008 0.332031 5.13301 0.332031 10.9997C0.332031 15.3997 2.9987 19.133 6.73203 20.733C6.73203 19.933 6.73202 19.133 6.86536 18.333C7.13202 17.3997 8.19869 12.4663 8.19869 12.4663C8.19869 12.4663 7.79871 11.7997 7.79871 10.733C7.79871 9.13301 8.73204 7.93301 9.79871 7.93301C10.732 7.93301 11.2654 8.59967 11.2654 9.53301C11.2654 10.4663 10.5987 11.933 10.332 13.2663C10.0654 14.333 10.8654 15.2663 12.0654 15.2663C14.0654 15.2663 15.3987 12.733 15.3987 9.53301C15.3987 7.13301 13.7987 5.39967 10.9987 5.39967C7.7987 5.39967 5.79871 7.79967 5.79871 10.4663C5.79871 11.3997 6.06537 12.0663 6.46537 12.5997C6.5987 12.8663 6.73203 12.8663 6.59869 13.133C6.59869 13.2663 6.46536 13.7997 6.33203 13.933C6.1987 14.1997 6.06537 14.333 5.79871 14.1997C4.33204 13.533 3.66536 11.933 3.66536 10.0663C3.66536 6.99967 6.19869 3.39967 11.2654 3.39967C15.3987 3.39967 18.0653 6.33301 18.0653 9.53301C18.0653 13.6663 15.7987 16.8663 12.332 16.8663C11.132 16.8663 10.0654 16.1997 9.66536 15.533C9.66536 15.533 8.99869 17.933 8.86536 18.4663C8.59869 19.2663 8.19871 20.0663 7.79871 20.733C8.73204 20.9997 9.79869 21.133 10.8654 21.133C16.732 21.133 21.532 16.333 21.532 10.4663C21.6654 5.13301 16.8654 0.333008 10.9987 0.333008Z" fill="#9E9E9E"/>
</svg>
