<svg width="22" height="18" viewBox="0 0 22 18" fill="none" xmlns="http://www.w3.org/2000/svg">
<path d="M21.6654 2.33301C20.8654 2.73301 20.0654 2.86634 19.132 2.99967C20.0654 2.46634 20.732 1.66634 20.9987 0.599674C20.1987 1.13301 19.2654 1.39967 18.1987 1.66634C17.3987 0.866341 16.1987 0.333008 14.9987 0.333008C12.1987 0.333008 10.0654 2.99967 10.732 5.66634C7.13203 5.53301 3.93203 3.79967 1.66536 1.13301C0.465365 3.13301 1.13203 5.66634 2.9987 6.99967C2.33203 6.99967 1.66536 6.73301 0.998698 6.46634C0.998698 8.46634 2.46536 10.333 4.46536 10.8663C3.7987 10.9997 3.13203 11.133 2.46536 10.9997C2.9987 12.733 4.5987 14.0663 6.5987 14.0663C4.9987 15.2663 2.5987 15.933 0.332031 15.6663C2.33203 16.8663 4.5987 17.6663 6.9987 17.6663C15.132 17.6663 19.6654 10.8663 19.3987 4.59967C20.332 4.06634 21.132 3.26634 21.6654 2.33301Z" fill="#9E9E9E"/>
</svg>
