<svg width="16" height="16" viewBox="0 0 16 16" fill="none" xmlns="http://www.w3.org/2000/svg">
<path d="M11.0561 1.14988L11.0561 1.14991L11.0618 1.15236C12.9379 1.95581 14.2015 3.43992 14.9703 5.33939C15.726 7.2066 15.6637 9.26042 14.8437 11.0682C14.0243 12.8747 12.5776 14.2464 10.6794 14.9992C9.78051 15.3157 8.89735 15.5 7.95902 15.5C6.11976 15.5 4.35072 14.8735 2.96377 13.6896L2.96235 13.6884C2.08421 12.9445 1.32413 11.8819 0.882218 10.7589L0.88224 10.7589L0.880421 10.7544C0.873681 10.7377 0.868434 10.702 0.893082 10.6506C0.91836 10.5978 0.961979 10.5587 1.0048 10.5417C1.02638 10.5332 1.06761 10.5289 1.12246 10.5545C1.17857 10.5808 1.2171 10.6246 1.23292 10.6637C1.67176 11.7479 2.39683 12.6727 3.24622 13.4422L3.24619 13.4422L3.2511 13.4466C5.28511 15.2414 8.10768 15.6623 10.6229 14.739L10.623 14.7391L10.6344 14.7346C12.436 14.0224 13.8155 12.7326 14.6111 10.9456C15.4034 9.16589 15.48 7.22772 14.7525 5.4301C14.0276 3.63905 12.651 2.28307 10.9263 1.5018L10.9263 1.50174L10.9194 1.49873C9.12351 0.717787 7.16929 0.641885 5.35597 1.35718C4.18868 1.79087 3.24704 2.51134 2.46137 3.42901L1.47058 4.58626L2.95443 4.24119L4.09921 3.97498L4.13531 3.96658L4.16978 3.95296C4.18233 3.948 4.19526 3.94625 4.20724 3.94712C4.21575 3.94775 4.22228 3.94958 4.22666 3.95131C4.22669 3.95209 4.2267 3.95294 4.2267 3.95385V4.05119L4.26191 4.13819C4.26212 4.14368 4.26062 4.16075 4.24251 4.19004C4.22923 4.21152 4.21153 4.23048 4.19317 4.24403C4.17484 4.25755 4.16202 4.26126 4.15836 4.26198L4.14821 4.26399L4.13815 4.26641L1.43497 4.91802H1.3597C1.29076 4.91802 1.25001 4.89827 1.22866 4.88168C1.20935 4.86669 1.1873 4.84047 1.17637 4.78642L1.17427 4.77606L1.17174 4.7658L0.501884 2.05148C0.493768 1.99566 0.52047 1.90458 0.621292 1.84584C0.688722 1.84335 0.727844 1.85991 0.745207 1.87101C0.760766 1.88096 0.787379 1.90301 0.799324 1.97384L0.803773 2.00022L0.811013 2.02598L1.14771 3.22394L1.41653 4.18039L2.02451 3.39463C2.83939 2.34146 3.9751 1.52752 5.24722 1.02461C7.1405 0.276149 9.22354 0.337964 11.0561 1.14988ZM4.26167 4.13622C4.2617 4.13622 4.2618 4.13661 4.26186 4.13739L4.26167 4.13622Z" fill="#626262" stroke="currentColor"/>
<path d="M7.91866 8.80997L7.90756 8.80174L7.89602 8.79413C7.8833 8.78575 7.87675 8.7791 7.87342 8.77521C7.87006 8.77128 7.86731 8.76706 7.86474 8.76148C7.8593 8.74964 7.85156 8.72433 7.85156 8.67923V4.68604C7.85156 4.60178 7.87764 4.56961 7.88822 4.55915C7.89932 4.54818 7.93481 4.52051 8.02496 4.52051C8.1151 4.52051 8.15059 4.54818 8.16169 4.55915C8.17227 4.56961 8.19835 4.60178 8.19835 4.68604V8.34646V8.59822L8.4006 8.74814L10.8248 10.5451C10.8289 10.5481 10.861 10.581 10.8718 10.6558C10.8766 10.6888 10.875 10.7187 10.8702 10.7415C10.8654 10.7641 10.8589 10.7729 10.8589 10.7729L10.8505 10.784L10.8427 10.7955C10.8287 10.8163 10.818 10.8226 10.8082 10.827C10.7947 10.8331 10.7683 10.8408 10.7237 10.8413C10.7199 10.8405 10.7093 10.838 10.6903 10.8309C10.6594 10.8195 10.6252 10.8037 10.5758 10.7796L7.91866 8.80997Z" fill="#626262" stroke="currentColor"/>
</svg>
