<svg width="20" height="20" viewBox="0 0 20 20" fill="none" xmlns="http://www.w3.org/2000/svg">
<path d="M2.5 5H4.16667H17.5" stroke="#111111" stroke-width="1.5" stroke-linecap="round" stroke-linejoin="round"/>
<path d="M6.66797 4.99996V3.33329C6.66797 2.89127 6.84356 2.46734 7.15612 2.15478C7.46869 1.84222 7.89261 1.66663 8.33464 1.66663H11.668C12.11 1.66663 12.5339 1.84222 12.8465 2.15478C13.159 2.46734 13.3346 2.89127 13.3346 3.33329V4.99996M15.8346 4.99996V16.6666C15.8346 17.1087 15.659 17.5326 15.3465 17.8451C15.0339 18.1577 14.61 18.3333 14.168 18.3333H5.83464C5.39261 18.3333 4.96868 18.1577 4.65612 17.8451C4.34356 17.5326 4.16797 17.1087 4.16797 16.6666V4.99996H15.8346Z" stroke="#111111" stroke-width="1.5" stroke-linecap="round" stroke-linejoin="round"/>
</svg>
